<svg width="800" height="634" viewBox="0 0 800 634" fill="none" xmlns="http://www.w3.org/2000/svg">
<g clip-path="url(#clip0_806_1658)">
<path d="M800 0H0V634H800V0Z" fill="white"/>
<path d="M800 0H0V634H800V0Z" fill="#EE46D3" fill-opacity="0.153164"/>
<mask id="mask0_806_1658" style="mask-type:luminance" maskUnits="userSpaceOnUse" x="0" y="0" width="800" height="634">
<path d="M800 0H0V634H800V0Z" fill="white"/>
</mask>
<g mask="url(#mask0_806_1658)">
<g filter="url(#filter0_f_806_1658)">
<path d="M766.5 77.665H190.5V441.819H766.5V77.665Z" fill="#18A0FB"/>
<path d="M832 270.243H238.5V673.625H832V270.243Z" fill="#907CFF"/>
<path d="M929.5 24.5675H318V372.871H929.5V24.5675Z" fill="#F2371F"/>
<path d="M606.5 161.274H66.5V659.756H606.5V161.274Z" fill="#907CFF"/>
</g>
</g>
<g style="mix-blend-mode:overlay">
<path d="M800 0H0V634H800V0Z" fill="#808080"/>
</g>
</g>
<defs>
<filter id="filter0_f_806_1658" x="-183.5" y="-225.432" width="1363" height="1149.06" filterUnits="userSpaceOnUse" color-interpolation-filters="sRGB">
<feFlood flood-opacity="0" result="BackgroundImageFix"/>
<feBlend mode="normal" in="SourceGraphic" in2="BackgroundImageFix" result="shape"/>
<feGaussianBlur stdDeviation="125" result="effect1_foregroundBlur_806_1658"/>
</filter>
<clipPath id="clip0_806_1658">
<rect width="800" height="634" fill="white"/>
</clipPath>
</defs>
</svg>
