<svg xmlns="http://www.w3.org/2000/svg" width="698" height="697" fill="none" viewBox="0 0 698 697"><g filter="url(#a)"><rect width="663" height="697" fill="url(#b)" rx="27"/><rect width="662" height="696" x=".5" y=".5" stroke="#fafafa" rx="26.5"/></g><path fill="#000" d="M39 49.5q-2 0-3.6-.7T32.9 47a9 9 0 0 1-1.5-2.4l-.5-1.3 2.6-1 .4 1 1.1 2q.7.8 1.8 1.2 1 .5 2.3.5 2.1 0 3.4-1.1 1.4-1.2 1.4-3 0-1.4-1-2.5-1-1-4.3-2.1-4-1.3-5.4-3-1.4-1.5-1.4-3.7 0-2.5 2-4.3t5-1.7q1.7 0 3 .5t2.3 1.4 1.4 1.8l.4 1-2.5 1-.3-.6q-.2-.6-.9-1.3l-1.5-1q-.8-.3-2-.3-1.8 0-3 1t-1.2 2.4q0 1.2 1 2.2.8 1 4.6 2.2 3.3 1 4.9 2.8 1.5 1.7 1.5 4.1 0 3.1-2.1 5-2.2 1.7-5.5 1.7m10.7-.5V32.6h2.6v2.8l-.3-.4h.4q.7-1.2 2.1-2t3-.9q1.8 0 3.1 1a5 5 0 0 1 2 2.3q.9-1.6 2.3-2.4 1.5-.9 3.3-.9 2.7 0 4.2 1.7t1.5 4.7V49H71V39q0-2.3-.9-3.3-.9-1.1-2.8-1.1t-3 1.4-1.3 3.7V49h-2.6V39q0-2.2-1-3.3t-2.7-1.1-3.1 1.5-1.3 3.7V49zm33.2.5q-2.7 0-4.4-1.6-1.7-1.5-1.7-4 0-2.4 1.9-3.9 2-1.5 5-1.5 1.3 0 2.6.3t2 .8v-1q0-1.8-1.2-3t-3.3-1q-1 0-1.7.2-.8.2-1.3.6l-1 .9-.4.5-2-1.5.6-.7q.6-.7 1.4-1.2l1.8-1q1-.3 2.7-.3 3.2 0 5.1 1.8 2 1.7 2 4.7V49h-2.6v-3.9l.9 1.5h-1q-.8 1.3-2.3 2.1a6 6 0 0 1-3 .8M83 47q2.1 0 3.6-1.5 1.6-1.6 1.6-3.7-.8-.5-2-.9l-2.4-.3q-2 0-3.3.9T79.4 44q0 1.4 1 2.2t2.7.9M94.7 49V32.6h2.5v3l-.4-.3h.5q.5-1.4 1.9-2.3t2.8-.9l.8.1q.5 0 .8.2h.4v2.9l-.5-.2-1-.2h-.8q-1.8 0-3 1.4-1.4 1.4-1.4 3.5V49zm17.8.5q-1.9 0-3.1-1.2t-1.2-3.3V28h2.7v16.4q0 1.4.5 2t1.6.6h.6l.8-.2.5-.2v2.5h-.4l-1 .3zM105.3 35v-2.4h9.6V35zm20 14.5q-3.5 0-5.9-2.5t-2.3-6.2 2.3-6.2q2.3-2.5 5.7-2.5t5.7 2.2q2.1 2.1 2.1 5.3v1.7h-14.2v-2.2H130q0-2-1.4-3.2t-3.6-1.3q-2.3 0-3.8 1.7t-1.5 4.5 1.6 4.6q1.7 1.6 4 1.6 1.2 0 2-.3l1.5-.8q.6-.6 1.4-1.9l2.3 1.1q-.9 1.8-2 2.7a7 7 0 0 1-2.3 1.2q-1.2.5-3 .5M136 49V32.6h2.6v3l-.4-.3h.5q.5-1.4 1.8-2.3t2.9-.9l.8.1.8.2h.3v2.9l-.5-.2-1-.2h-.7q-1.8 0-3.1 1.4t-1.3 3.5V49zm25 .5q-2 0-3.1-1.2t-1.2-3.3V28h2.6v16.4q0 1.4.6 2t1.6.6h.6l.8-.2.5-.2v2.5h-.5l-.9.3zM153.8 35v-2.4h9.6V35zm12.7 14V26h2.6v9h.1q.7-1.2 2.1-2a6 6 0 0 1 3.1-.9q3 0 4.5 1.7 1.6 1.8 1.6 4.7V49h-2.7V39q0-2.1-1-3.3t-3-1.1-3.3 1.6-1.4 3.6V49zm23 .5q-2.6 0-4.4-1.6-1.7-1.5-1.7-4 0-2.4 2-3.9 1.9-1.5 5-1.5 1.2 0 2.5.3t2.1.8v-1q0-1.8-1.3-3t-3.2-1q-1 0-1.8.2-.7.2-1.2.6l-1 .9-.5.5-2-1.5.6-.7q.7-.7 1.5-1.2l1.8-1q1-.3 2.6-.3 3.3 0 5.2 1.8 1.9 1.7 1.9 4.7V49H195v-3.9l1 1.5h-1q-.8 1.3-2.3 2.1a6 6 0 0 1-3.1.8m.2-2.4q2.2 0 3.7-1.5 1.5-1.6 1.5-3.7-.8-.5-2-.9l-2.3-.3q-2.1 0-3.3.9t-1.2 2.4q0 1.4 1 2.2t2.6.9m11.6 1.9V32.6h2.6v2.9l-.4-.5h.4q.8-1.2 2.3-2a6 6 0 0 1 3-.9q3 0 4.5 1.7t1.6 4.7V49h-2.6V39q0-2.2-1-3.3t-3.1-1.1-3.3 1.5-1.3 3.7V49zm32.6.5q-3.6 0-6-2.5t-2.4-6.2 2.4-6.2 6-2.5 6 2.5 2.4 6.2T240 47t-6 2.5m0-2.5q2.4 0 4-1.7 1.7-1.8 1.7-4.5t-1.6-4.5-4.1-1.7-4 1.7-1.7 4.5q0 2.7 1.6 4.5T234 47m12.6 2V30.7q0-2.3 1.5-3.7 1.4-1.4 3.6-1.4h1.1l1 .3h.3v2.5h-.4l-.9-.2-1-.1q-1 0-1.8.7-.7.7-.7 2V49zm10.3 0V30.7q0-2.3 1.4-3.7 1.5-1.4 3.7-1.4h1.1l.9.3h.4v2.5h-.4l-.9-.2-1-.1q-1 0-1.8.7-.7.7-.7 2V49zm-13.3-14v-2.4h4.4V35zm14.6 0v-2.4h5.5V35zM248 35v-2.4h10.4V35zm17.6 4.5v-2.2h9.4v2.2zm18.4 10q-2 0-3.1-1.2t-1.2-3.3V28h2.6v16.4q0 1.4.6 2t1.6.6h.6l.8-.2.5-.2v2.5h-.5l-.9.3zM276.7 35v-2.4h9.6V35zm12.7 14V26h2.6v9h.1q.7-1.2 2.2-2a6 6 0 0 1 3-.9q3 0 4.5 1.7 1.6 1.8 1.6 4.7V49h-2.7V39q0-2.1-1-3.3t-3-1.1-3.3 1.6-1.4 3.6V49zm25.2.5q-3.6 0-6-2.5t-2.2-6.2 2.2-6.2q2.3-2.5 5.8-2.5t5.6 2.2 2.2 5.3v1.7h-14.3v-2.2h11.5q-.1-2-1.5-3.2t-3.5-1.3q-2.4 0-3.9 1.7t-1.5 4.5 1.7 4.6q1.6 1.6 4 1.6 1.1 0 2-.3l1.4-.8q.7-.6 1.5-1.9l2.2 1.1q-.8 1.8-1.9 2.7a7 7 0 0 1-2.3 1.2q-1.3.5-3 .5m10-10v-2.2h9.4v2.2zm17.8 10q-1.6 0-2.8-.4a7 7 0 0 1-2.2-1.2q-1-.9-1.4-1.8l-.5-1 2.4-1 .4.7 1 1.2q.7.6 1.4.9.8.2 1.9.2 1.6 0 2.5-.6t1-1.9q0-1-.8-1.6-.8-.5-3.2-1-3.2-.8-4.6-2t-1.4-3.2 1.8-3.3 4.3-1.4q1.4 0 2.5.4 1 .3 2 1 .8.7 1.3 1.4l.4.8-2.3 1-.4-.5-.9-.9-1.2-.6-1.4-.2q-1.5 0-2.5.7t-.9 1.5q0 1 .7 1.5t3.4 1.3q3.3.7 4.6 2 1.3 1.2 1.3 3 0 2.2-1.8 3.6t-4.6 1.4m9.3-.5V26h2.7v9q.8-1.2 2.2-2a6 6 0 0 1 3-.9q3 0 4.6 1.7 1.5 1.8 1.5 4.7V49h-2.6V39q0-2.1-1-3.3t-3-1.1-3.3 1.6-1.4 3.6V49zm25.2.5q-3.5 0-5.9-2.5t-2.3-6.2 2.3-6.2 5.7-2.5 5.7 2.2q2.1 2.1 2.1 5.3v1.7h-14.2v-2.2h11.4q0-2-1.4-3.2t-3.6-1.3-3.8 1.7-1.5 4.5 1.6 4.6q1.6 1.6 4 1.6 1.2 0 2-.3l1.5-.8q.6-.6 1.4-1.9l2.3 1.1q-.9 1.8-2 2.7A7 7 0 0 1 380 49q-1.2.5-3 .5m10.7-.5V26h2.7v23zm5.5-14v-2.4h9.8V35zm3 14V30.7q0-2.3 1.4-3.7 1.5-1.4 3.7-1.4h1.1l.9.3h.4v2.5h-.4l-.9-.2-1-.1q-1 0-1.8.7-.7.7-.7 2V49zm24.6.5q-3.6 0-6-2.5-2.3-2.4-2.3-6.3 0-3.8 2.4-6.2t6-2.4q1.4 0 2.7.5a7 7 0 0 1 2.3 1.3q1.1 1 2 2.8l-2.4 1-1.3-1.9a4 4 0 0 0-1.6-1l-2-.2q-2.2 0-3.8 1.7t-1.6 4.4q0 2.8 1.6 4.6t3.9 1.7q1 0 2-.3l1.5-.9q.6-.6 1.4-2l2.3 1.2q-1 1.8-2 2.7a7 7 0 0 1-2.3 1.3q-1.3.5-2.8.5m10-.5V26h2.7v9q.8-1.2 2.2-2a6 6 0 0 1 3-.9q3 0 4.5 1.7 1.6 1.8 1.6 4.7V49H442V39q0-2.1-1-3.3t-3-1.1-3.3 1.6-1.3 3.6V49zm23.1.5q-2.7 0-4.5-1.6-1.7-1.5-1.7-4 0-2.4 2-3.9 1.9-1.5 5-1.5 1.3 0 2.6.3t2 .8v-1q0-1.8-1.2-3t-3.3-1q-1 0-1.8.2-.7.2-1.2.6l-1 .9-.4.5-2-1.5.6-.7q.6-.7 1.4-1.2l1.8-1q1-.3 2.6-.3 3.3 0 5.2 1.8 1.9 1.7 1.9 4.7V49h-2.6v-3.9l1 1.5h-1q-.8 1.3-2.3 2.1a6 6 0 0 1-3 .8m.2-2.4q2.1 0 3.6-1.5 1.5-1.6 1.5-3.7-.8-.5-2-.9l-2.3-.3q-2.1 0-3.3.9t-1.2 2.4q0 1.4 1 2.2t2.7.9m16.9 2.4q-2 0-3.2-1.2t-1.2-3.3V28h2.7v16.4q0 1.4.5 2t1.6.6h.6l.8-.2.6-.2v2.5h-.5l-.9.3zM463.8 35v-2.4h9.5V35zm21 14.5a7 7 0 0 1-3.4-.8q-1.6-.9-2.4-2.2h-.7l.7-.8V49h-2.6V26h2.7v9.1q.8-1.3 2.3-2.1 1.6-.9 3.4-.9 3.3 0 5.6 2.5 2.2 2.4 2.2 6.2t-2.2 6.2q-2.2 2.5-5.6 2.5m-.3-2.5q2.3 0 3.9-1.7t1.6-4.5-1.6-4.5-4-1.7q-2.2 0-3.8 1.7t-1.6 4.5 1.6 4.5 3.9 1.7m18.8 2.5q-3.6 0-6-2.5t-2.4-6.2 2.4-6.2 6-2.5 6 2.5 2.4 6.2-2.4 6.2-6 2.5m0-2.5q2.4 0 4-1.7t1.7-4.5-1.6-4.5-4.1-1.7-4 1.7-1.8 4.5 1.7 4.5 4 1.7m17.5 2.5q-2 0-3.1-1.2t-1.2-3.3V28h2.6v16.4q0 1.4.6 2t1.6.6h.5l.9-.2.5-.2v2.5h-.5l-.9.3zM513.5 35v-2.4h9.5V35zm18.3 14.5q-1.5 0-2.8-.4a7 7 0 0 1-2.1-1.2q-1-.9-1.5-1.8l-.4-1 2.4-1 .4.7q.4.7 1 1.2t1.4.9 1.8.2q1.6 0 2.6-.6t1-1.9q0-1-.8-1.6-.8-.5-3.2-1-3.3-.8-4.7-2t-1.4-3.2 1.8-3.3 4.4-1.4q1.4 0 2.4.4 1 .3 2 1t1.3 1.4l.4.8-2.3 1-.4-.5-.8-.9-1.2-.6-1.5-.2q-1.5 0-2.4.7-1 .6-1 1.5t.8 1.5 3.3 1.3q3.3.7 4.6 2 1.4 1.2 1.4 3 0 2.2-1.9 3.6t-4.6 1.4M30.3 80l4.4-11.5h1.6L40.7 80H39l-3-8.5-.5-1.4-.5 1.4-3.2 8.5zm1.9-3 .4-1.4H38l.5 1.3zm17.3 3.3q-1.8 0-3-1.3-1.2-1.2-1.2-3.2 0-1.9 1.2-3 1.2-1.3 3-1.3l1.4.2q.6.2 1.1.6t1 1.3l-1.2.6-.6-.9-.8-.4-1-.1q-1 0-1.9.8t-.8 2.2q0 1.4.8 2.3t2 .9l1-.2.7-.4q.3-.2.7-.9l1.2.7q-.5.8-1 1.2l-1.2.7zm5-.3V68.5H56v4.4q.4-.6 1.1-1a3 3 0 0 1 1.6-.4q1.5 0 2.3.8t.8 2.3V80h-1.5v-5.1q0-1-.5-1.6t-1.4-.5-1.7.7a3 3 0 0 0-.7 1.8V80zm12 .3q-1.4 0-2.3-.8t-.9-2 1-2 2.5-.8l1.3.1q.6.1 1 .5v-.6q0-.9-.5-1.4-.7-.5-1.7-.5h-.8l-.7.4-.5.4-.2.2-1-.8.3-.3.7-.6q.4-.3 1-.4t1.3-.2q1.6 0 2.6.9t1 2.4V80h-1.4v-1.9l.4.7h-.4q-.4.7-1.2 1t-1.6.5m.2-1.3q1 0 1.8-.7t.8-1.8l-1-.5-1.2-.2q-1 0-1.6.4t-.6 1.3.5 1.1 1.3.4m8.8 1.3q-1 0-1.6-.7t-.6-1.6v-8.5h1.4v8.2q0 .6.2 1 .3.3.8.3h.4l.4-.2h.2l.2 1.2h-.3l-.5.2zM71.7 73v-1.2h5V73zm11 7.3-1.7-.5q-.8-.4-1.2-1h-.4l.3-.4V80h-1.3V68.5h1.4V73q.4-.7 1.2-1a3 3 0 0 1 1.7-.5q1.6 0 2.8 1.2t1.1 3.2-1.1 3.1q-1.2 1.3-2.9 1.3m-.1-1.3q1.1 0 2-.9.7-.9.7-2.2t-.8-2.3-2-.8-1.9.8-.8 2.3.8 2.2 2 .9m9.6 1.3q-1.9 0-3-1.3-1.3-1.2-1.3-3.1t1.2-3.2q1.3-1.2 3.1-1.2t3 1.2 1.3 3.2-1.2 3.1-3 1.3m0-1.3q1.1 0 2-.9T95 76q0-1.4-.9-2.3t-2-.8-2 .8-.9 2.3.9 2.2 2 .9m9 1.3q-1 0-1.6-.7t-.6-1.6v-8.5h1.4v8.2q0 .6.3 1t.8.3h.3l.4-.2h.3V80h-.2l-.5.2zM97.4 73v-1.2h5V73zm13.5 7.3q-1 0-1.6-.7t-.6-1.6v-8.5h1.4v8.2q0 .6.2 1t.8.3h.3l.5-.2h.2l.1 1.2h-.2l-.5.2zm-3.7-7.2v-1.2h5V73zm6.7 7V68.5h1.4v4.4q.4-.6 1.1-1a3 3 0 0 1 1.6-.4q1.5 0 2.3.8t.8 2.3V80h-1.5v-5.1q0-1-.5-1.6t-1.4-.5-1.7.7a3 3 0 0 0-.7 1.8V80zm11.8.3q-1.3 0-2.2-.8t-.9-2 1-2 2.5-.8l1.3.1q.6.1 1 .5v-.6q0-.9-.5-1.4-.7-.5-1.7-.5h-.8l-.7.4-.5.4-.2.2-1-.8.3-.3.7-.6q.4-.3 1-.4t1.3-.2q1.6 0 2.6.9t1 2.4V80h-1.4v-1.9l.4.7h-.4q-.4.7-1.2 1t-1.6.5m.2-1.3q1 0 1.8-.7t.8-1.8l-1-.5-1.2-.2q-1 0-1.6.4t-.6 1.3.5 1.1 1.3.4m8.8 1.3q-1 0-1.6-.7t-.6-1.6v-8.5h1.4v8.2q0 .6.2 1 .3.3.8.3h.4l.4-.2h.2l.1 1.2h-.2l-.5.2zM131 73v-1.2h5V73zm13 7.3q-1.3 0-2.2-.8-.8-.8-.8-2 0-1.3 1-2 .9-.8 2.4-.8l1.4.1q.7.1 1 .5v-.6q0-.9-.6-1.4t-1.6-.5h-1q-.3 0-.6.4l-.5.4-.2.2-1-.8.3-.3.7-.6q.4-.3 1-.4t1.3-.2q1.6 0 2.6.9t1 2.4V80h-1.4v-1.9l.4.7h-.4q-.4.7-1.1 1-.8.5-1.7.5m.2-1.3q1 0 1.8-.7a3 3 0 0 0 .8-1.8l-1-.5-1.2-.2q-1 0-1.6.4t-.6 1.3.5 1.1 1.3.4m9.8 1.3q-1.9 0-3-1.3-1.2-1.2-1.2-3.2 0-1.9 1.2-3 1.2-1.3 3-1.3.7 0 1.3.2l1.2.6q.5.4 1 1.3l-1.2.6-.7-.9-.7-.4-1-.1q-1.1 0-1.9.8t-.8 2.2.8 2.3 2 .9q.5 0 .9-.2l.8-.4q.3-.2.7-.9l1.1.7q-.5.8-1 1.2l-1.1.7zm8 0q-1 0-1.5-.7-.7-.6-.7-1.6v-8.5h1.5v8.2q0 .6.2 1 .3.3.8.3h.3l.5-.2h.2l.1 1.2h-.2l-.5.2zm-3.7-7.2v-1.2h5V73zm9.6 7.3q-1.4 0-2.2-.9T165 77v-5.2h1.4v5q0 1 .5 1.6t1.5.6 1.6-.7.7-1.9v-4.6h1.4V80h-1.3v-1.8l.6.6h-.7q-.3.6-1 1a3 3 0 0 1-1.7.5m8.9 0q-1.4 0-2.2-.8t-.9-2 1-2 2.5-.8l1.3.1q.7.1 1 .5v-.6q0-.9-.6-1.4t-1.6-.5h-.9l-.6.4-.5.4-.3.2-1-.8.3-.3.8-.6q.4-.3 1-.4.4-.2 1.2-.2 1.7 0 2.6.9t1 2.4V80h-1.3v-1.9l.4.7h-.5q-.4.7-1.1 1t-1.6.5m.2-1.3q1 0 1.8-.7t.8-1.8l-1-.5-1.2-.2q-1 0-1.7.4t-.6 1.3.5 1.1q.6.4 1.4.4m6 1V68.5h1.4V80zm3.6 0V68.5h1.4V80zm4.1 3.5L193 79v1l-3.6-8.2h1.5l2.4 5.5.2.6.3-.6 2.2-5.5h1.5l-5 11.7zm12.2-5.3v-1.8l4.6-4.6h1.8zm-.6 1.8V68.5h1.4V80zm5.5 0-3-4.5 1-1 3.7 5.5zm2.8 0v-8.2h1.4v1.4l-.3-.2h.3q.4-.7 1.1-1a3 3 0 0 1 1.6-.5q1.5 0 2.3.8t.8 2.3V80h-1.4v-5.1q0-1-.5-1.6-.5-.5-1.6-.5-1 0-1.6.7t-.7 1.8V80zm13 .3q-1.8 0-3-1.3-1.2-1.2-1.2-3.1t1.2-3.2 3-1.2q2 0 3.1 1.2 1.3 1.3 1.3 3.2t-1.2 3.1-3.1 1.3m0-1.3q1.2 0 2-.9t.8-2.2-.8-2.3-2-.8-2 .8-.9 2.3.8 2.2 2 .9m7.5 1-2.6-8.2h1.4l1.7 5.6.2.9.3-.8 1.8-5.7h1.4l1.8 5.7.3.7.3-.7 1.6-5.7h1.5l-2.7 8.2h-1.4l-1.9-5.8-.2-.7-.2.7-1.9 5.8zm13.4.3-1.4-.3-1-.6-.8-.9-.2-.4 1.2-.6.2.3.5.7q.3.3.7.4l1 .1q.7 0 1.2-.3t.5-1l-.4-.7q-.4-.3-1.6-.6-1.6-.4-2.3-1t-.7-1.6.9-1.6 2.2-.7l1.2.1 1 .5.6.7.3.4-1.2.6-.2-.3-1-.7h-.8q-.7 0-1.2.2-.4.4-.4.8l.3.7q.3.3 1.8.7 1.6.4 2.2 1t.7 1.5q0 1.2-1 1.9t-2.3.7m9.2 3.2L256 79v1l-3.6-8.2h1.5l2.3 5.5.3.6.2-.6 2.3-5.5h1.5l-5.1 11.7zm11.2-3.2q-1.9 0-3-1.3t-1.3-3.1q0-2 1.2-3.2 1.3-1.2 3.1-1.2t3 1.2 1.3 3.2-1.2 3.1-3 1.3m0-1.3q1.1 0 2-.9t.8-2.2q0-1.4-.8-2.3t-2-.8-2.1.8-.9 2.3.9 2.2 2 .9m9 1.3q-1.5 0-2.3-.9t-.8-2.4v-5.2h1.4v5q0 1 .5 1.6t1.5.6 1.7-.7.6-1.9v-4.6h1.5V80h-1.4v-1.8l.7.6h-.7q-.4.6-1.1 1a3 3 0 0 1-1.6.5m6.2-.3v-8.2h1.4v1.4l-.2-.1h.2q.2-.7 1-1.2a3 3 0 0 1 1.8-.4l.4.1.2.1v1.4h-.3l-.9-.2q-.9 0-1.5.7t-.7 1.8V80zm14.2.3-1.7-.5q-.7-.4-1.1-1h-.4l.3-.4V80h-1.3V68.5h1.4V73q.4-.7 1.2-1a3 3 0 0 1 1.7-.5q1.6 0 2.8 1.2 1 1.2 1 3.2 0 1.9-1 3.1-1.2 1.3-2.9 1.3m-.2-1.3q1.2 0 2-.9t.8-2.2-.8-2.3-2-.8q-1 0-1.9.8t-.8 2.3.8 2.2 2 .9m8.7 1.3q-1.4 0-2.2-.9T300 77v-5.2h1.4v5q0 1 .5 1.6t1.5.6 1.7-.7.6-1.9v-4.6h1.5V80h-1.4v-1.8l.7.6h-.7q-.4.6-1.2 1a3 3 0 0 1-1.6.5m9.2 0-1.5-.3-1-.6-.8-.9-.2-.4 1.2-.6.2.3.5.7q.3.3.7.4l1 .1q.7 0 1.2-.3t.5-1l-.4-.7q-.4-.3-1.6-.6-1.6-.4-2.3-1t-.7-1.6.9-1.6 2.2-.7l1.2.1 1 .5.7.7.2.4-1.2.6-.2-.3-1-.7h-.7q-.8 0-1.3.2-.4.4-.4.8t.3.7 1.8.7q1.6.4 2.3 1t.6 1.5q0 1.2-1 1.9t-2.2.7m4.9-.3v-8.2h1.4V80zm.7-10-.7-.2-.3-.7q0-.4.3-.7l.7-.2a1 1 0 0 1 1 .9l-.3.7zm3 9.9v-8.2h1.3v1.4l-.2-.2h.3q.3-.7 1-1a3 3 0 0 1 1.7-.5q1.4 0 2.2.8t.8 2.3V80h-1.4v-5.1q0-1-.5-1.6-.5-.5-1.5-.5t-1.7.7-.6 1.8V80zm13 .3q-2 0-3-1.3-1.3-1.2-1.3-3.1t1.2-3.2 2.9-1.2 2.9 1 1 2.8v.9h-7.1V75h5.7a2 2 0 0 0-.7-1.6q-.7-.6-1.8-.6t-1.9.8-.7 2.3.8 2.3 2 .8l1-.2.7-.4.7-.8 1.1.6q-.4.8-1 1.2l-1 .6q-.7.3-1.6.3m8.4 0-1.4-.3-1.1-.6-.7-.9-.3-.4 1.2-.6.2.3.5.7.7.4 1 .1q.8 0 1.3-.3t.4-1l-.4-.7q-.4-.3-1.6-.6-1.6-.4-2.3-1t-.7-1.6 1-1.6 2.1-.7l1.2.1 1 .5.7.7.2.4-1.1.6-.2-.3-1-.7h-.8q-.7 0-1.2.2-.5.4-.5.8l.4.7q.3.3 1.7.7 1.6.4 2.3 1t.6 1.5q0 1.2-.9 1.9t-2.3.7m7.7 0-1.5-.3-1-.6-.8-.9-.2-.4 1.2-.6.2.3.5.7q.3.3.7.4l1 .1q.7 0 1.2-.3t.5-1l-.4-.7q-.4-.3-1.6-.6-1.6-.4-2.3-1t-.7-1.6.9-1.6 2.2-.7l1.2.1 1 .5.7.7.2.4-1.2.6-.2-.3-1-.7h-.7q-.8 0-1.2.2-.5.4-.5.8l.3.7q.4.3 1.8.7 1.6.4 2.3 1t.6 1.5q0 1.2-.9 1.9t-2.3.7m8.4-4.7v-1.2h13.2v1.2zm22 4.7q-1 0-1.6-.7t-.7-1.6v-8.5h1.5v8.2q0 .6.2 1t.8.3h.3l.5-.2h.2l.1 1.2h-.2l-.5.2zm-3.7-7.2v-1.2h5V73zm6.7 7v-8.2h1.3v1.4l-.2-.1h.3q.2-.7.9-1.2a3 3 0 0 1 1.9-.4l.4.1.2.1v1.4h-.3l-1-.2q-.8 0-1.5.7t-.6 1.8V80zm8.5.3q-1.4 0-2.3-.8t-.8-2 1-2 2.4-.8l1.4.1q.7.1 1 .5v-.6q0-.9-.6-1.4t-1.6-.5h-1l-.6.4-.5.4-.2.2-1-.8.3-.3.7-.6 1-.4q.5-.2 1.3-.2 1.6 0 2.6.9t1 2.4V80h-1.4v-1.9l.5.7h-.5q-.4.7-1.1 1-.8.5-1.6.5m.1-1.3q1.1 0 1.9-.7a3 3 0 0 0 .7-1.8l-1-.5-1.2-.2q-1 0-1.6.4t-.6 1.3.5 1.1 1.3.4m6.2 1v-8.2h1.4V80zm.7-10-.7-.2-.3-.7q0-.4.3-.7l.7-.2a1 1 0 0 1 .9.9l-.3.7zm3 9.9v-8.2h1.3v1.4l-.2-.2h.2q.4-.7 1.1-1a3 3 0 0 1 1.7-.5q1.4 0 2.2.8t.8 2.3V80h-1.4v-5.1q0-1-.5-1.6-.5-.5-1.5-.5t-1.7.7-.7 1.8V80zm12.9.3q-1.9 0-3-1.3-1.2-1.2-1.2-3.1t1.2-3.2 2.9-1.2 2.8 1 1.1 2.8v.9h-7.2V75h5.7a2 2 0 0 0-.7-1.6q-.6-.6-1.7-.6t-2 .8-.7 2.3.8 2.3 2 .8q.6 0 1-.2.4-.1.7-.4.4-.2.8-.8l1.1.6q-.4.8-1 1.2t-1.1.6q-.6.3-1.5.3m9 0q-1.7 0-2.8-1.3-1.1-1.2-1.1-3.1t1-3.2 2.9-1.2a3 3 0 0 1 1.7.4q.7.5 1.1 1.1v-4.5h1.5V80h-1.4v-1.5l.2.3h-.2q-.4.7-1.2 1-.8.5-1.7.5m.2-1.3q1.2 0 2-.9.7-.8.7-2.2t-.8-2.3-1.9-.8-2 .8q-.7.9-.7 2.3t.8 2.2q.7 1 1.9 1m13.8 1.2q-1.9 0-3-1.3-1.3-1.2-1.3-3.1t1.2-3.2q1.3-1.2 3.1-1.2t3 1.2T442 76t-1.2 3.1-3 1.3m0-1.3q1.1 0 2-.9t.8-2.2q0-1.4-.9-2.3t-2-.8-2 .8-.9 2.3.9 2.2 2 .9m6 1v-8.2h1.3v1.4l-.2-.2h.3q.3-.7 1-1a3 3 0 0 1 1.7-.5q1.5 0 2.3.8t.8 2.3V80h-1.5v-5.1q0-1-.5-1.6-.5-.5-1.5-.5t-1.6.7-.7 1.8V80zm13.6 3.5 2-4.5.1 1-3.6-8.2h1.5l2.3 5.5.2.6.3-.6 2.2-5.5h1.5l-5 11.7zm11.2-3.2q-1.9 0-3-1.3T464 76q0-2 1.2-3.2t3.1-1.2 3 1.2q1.3 1.3 1.3 3.2t-1.2 3.1-3.1 1.3m0-1.3q1.2 0 2-.9t.9-2.2-.9-2.3-2-.8-2 .8-.9 2.3.8 2.2 2.1.9m9 1.3q-1.5 0-2.3-.9t-.8-2.4v-5.2h1.4v5q0 1 .5 1.6t1.5.6 1.6-.7.7-1.9v-4.6h1.4V80H480v-1.8l.6.6h-.7q-.3.6-1 1a3 3 0 0 1-1.7.5m6.3-.3v-8.2h1.3v1.4l-.2-.1h.3q.2-.7.9-1.2a3 3 0 0 1 1.9-.4l.4.1.2.1v1.4h-.3l-.9-.2q-1 0-1.5.7-.7.7-.7 1.8V80zm13.4.3q-1.7 0-2.8-1.3-1.1-1.2-1.1-3.1t1.1-3.2 2.8-1.2q1 0 1.7.4.8.5 1.1 1.1v-4.5h1.5V80h-1.4v-1.5l.2.3h-.2q-.4.7-1.2 1-.7.5-1.7.5m.2-1.3q1.2 0 2-.9.7-.8.7-2.2t-.8-2.3-1.9-.8-2 .8q-.7.9-.7 2.3t.8 2.2 2 1m10 1.2q-1.9 0-3.1-1.3t-1.1-3q0-2 1.2-3.2t3-1.2q2 0 3.1 1.2 1.3 1.3 1.3 3.2t-1.3 3.1-3 1.3m0-1.3q1.2 0 2-.9t.8-2.2-.8-2.3-2-.8-2 .8-.9 2.3.8 2.2 2 .9m9.8 1.3q-1.9 0-3-1.3-1.2-1.2-1.2-3.2 0-1.9 1.1-3 1.2-1.3 3-1.3.8 0 1.4.2l1.2.6q.5.4 1 1.3l-1.2.6-.7-.9-.7-.4-1-.1q-1.1 0-2 .8t-.7 2.2.8 2.3 2 .9l.9-.2.7-.4q.4-.2.8-.9l1.1.7q-.5.8-1 1.2l-1.2.7zm7.9 0-1.4-.3-1.1-.6-.8-.9-.2-.4 1.2-.6.2.3.5.7q.3.3.7.4l1 .1q.8 0 1.2-.3.5-.3.5-1l-.4-.7q-.4-.3-1.6-.6-1.6-.4-2.3-1t-.7-1.6.9-1.6 2.2-.7l1.2.1 1 .5.7.7.2.4-1.2.6-.2-.3-1-.7h-.7q-.8 0-1.2.2-.5.4-.5.8l.3.7q.4.3 1.8.7 1.6.4 2.3 1t.6 1.5q0 1.2-.9 1.9t-2.3.7m4.5 1 1-1.3a1 1 0 0 1-.8-1q0-.4.3-.7t.8-.3.7.3.3.7v.5l-.5.7-1 1.6zm-495.5 28-1.4-.3-1-.6-.8-.9-.3-.4 1.3-.6.2.3.5.7q.3.3.7.4l.9.1q.8 0 1.3-.3t.5-1l-.4-.7q-.4-.3-1.6-.6-1.7-.4-2.4-1t-.6-1.6.8-1.6 2.2-.7l1.3.1 1 .5q.5.3.6.7l.3.4-1.2.6-.2-.3-1-.7h-.8q-.7 0-1.2.2-.4.4-.4.8t.3.7 1.7.7q1.7.4 2.3 1t.7 1.5q0 1.2-1 1.9t-2.3.7m4.9 3.2v-11.7H40v1.6l-.3-.4h.4q.4-.7 1.1-1l1.7-.5q1.7 0 2.8 1.2Q47 103 47 105q0 1.9-1.2 3.1t-2.8 1.3q-1 0-1.7-.4t-1-1h-.1v4.6zm4-4.5a3 3 0 0 0 2-.9q.7-.9.7-2.2t-.7-2.3q-.8-.8-2-.8t-1.9.8-.8 2.3.8 2.2 2 .9m9.4 1.3q-1.8 0-3-1.3-1.1-1.2-1.1-3.1t1.1-3.2 3-1.2 2.8 1 1 2.8v.9h-7V104h5.6a2 2 0 0 0-.7-1.6q-.7-.6-1.8-.6t-1.9.8q-.7.8-.7 2.3t.8 2.3 2 .8q.6 0 1-.2l.7-.4q.4-.2.8-.8l1 .6q-.4.8-.9 1.2t-1.1.6q-.7.3-1.6.3m8.2 0q-1.4 0-2.2-.8-1-.8-1-2 0-1.3 1-2 1-.8 2.5-.8l1.4.1q.7.1 1 .5v-.6q0-.9-.6-1.4t-1.6-.5h-1l-.6.4q-.3.1-.5.4l-.3.2-1-.8.3-.3.8-.6q.4-.3.9-.4t1.3-.2q1.7 0 2.6.9t1 2.4v5.2h-1.3v-1.9l.4.7h-.5q-.4.7-1.1 1a3 3 0 0 1-1.6.5m.2-1.3q1 0 1.8-.7t.7-1.8l-1-.5-1.1-.2q-1 0-1.7.4t-.6 1.3.5 1.1q.6.4 1.4.4m6.6-.8v-1.8l4.6-4.6h1.8zm-.6 1.8V97.5H68V109zm5.5 0-3-4.5 1-1L74 109zm5.7.3-1.5-.3-1-.6-.8-.9-.2-.4 1.2-.6.2.3.5.7q.3.3.7.4l1 .1q.7 0 1.2-.3t.5-1l-.4-.7q-.4-.3-1.6-.6-1.6-.4-2.3-1t-.7-1.6.9-1.6 2.2-.7l1.2.1 1 .5.7.7.2.4-1.2.6-.2-.3-1-.7h-.7q-.8 0-1.2.2-.5.4-.5.8t.3.7q.4.3 1.8.7 1.6.4 2.3 1t.6 1.5q0 1.2-1 1.9t-2.2.7m8.6-.3v-8.2H88v8.2zm.8-10-.7-.2-.3-.7q0-.4.3-.7l.7-.2a1 1 0 0 1 .9.9l-.3.7zm3 9.9v-8.2h1.3v1.4l-.2-.2h.2q.4-.7 1.1-1a3 3 0 0 1 1.6-.5q1.5 0 2.3.8t.8 2.3v5.4H96v-5.1q0-1-.5-1.6-.5-.5-1.5-.5t-1.7.7-.7 1.8v4.7zm13.5 3.5 2.1-4.5v1l-3.6-8.2h1.5l2.4 5.5.2.6.3-.6 2.2-5.5h1.5l-5 11.7zm11.2-3.2q-1.8 0-3-1.3-1.3-1.2-1.3-3.1t1.3-3.2 3-1.2 3 1.2q1.3 1.3 1.3 3.2t-1.2 3.1-3 1.3m0-1.3q1.2 0 2-.9t.8-2.2-.8-2.3-2-.8-2.1.8-.8 2.3.8 2.2 2 .9m9 1.3q-1.5 0-2.3-.9t-.8-2.4v-5.2h1.4v5q0 1 .5 1.6t1.5.6 1.7-.7.7-1.9v-4.6h1.4v8.2h-1.4v-1.8l.7.6h-.7q-.4.6-1.1 1a3 3 0 0 1-1.6.5m6.2-.3v-8.2h1.4v1.4l-.2-.1h.2q.3-.7 1-1.2a3 3 0 0 1 1.8-.4l.5.1.2.1-.1 1.4h-.3l-.9-.2q-.9 0-1.5.7t-.6 1.8v4.6zm12.4 0-3.4-8.2h1.6l2.3 6 .2.6.3-.6 2.3-6h1.5L144 109zm9.4.3q-1.9 0-3-1.3-1.3-1.2-1.3-3.1t1.2-3.2 3.1-1.2q1.8 0 3 1.2 1.3 1.3 1.3 3.2T155 108t-3 1.3m0-1.3q1.1 0 2-.9t.8-2.2q0-1.4-.9-2.3t-2-.8-2 .8-.9 2.3.8 2.2 2.1.9m6 1v-8.2h1.5v8.2zm.8-10-.7-.2-.3-.7q0-.4.3-.7l.7-.2a1 1 0 0 1 1 .9l-.3.7zm6.7 10.2q-1.9 0-3-1.3-1.2-1.2-1.2-3.2 0-1.9 1.1-3 1.2-1.3 3-1.3.8 0 1.4.2l1.2.6q.5.4 1 1.3l-1.2.6-.7-.9-.7-.4-1-.1q-1.1 0-2 .8t-.7 2.2.8 2.3 2 .9l.9-.2.7-.4q.4-.2.8-.9l1.1.7q-.5.8-1 1.2l-1.2.7zm8.7 0q-1.8 0-3-1.3-1.1-1.2-1.1-3.1t1.1-3.2 3-1.2 2.8 1 1 2.8v.9H171V104h5.7q0-1-.7-1.6t-1.8-.6-1.9.8-.7 2.3.8 2.3 2 .8q.6 0 1-.2.4-.1.7-.4l.7-.8 1.2.6q-.5.8-1 1.2l-1.2.6q-.6.3-1.5.3m5.3 1 .9-1.3a1 1 0 0 1-.7-1q0-.4.3-.7t.7-.3.8.3.3.7l-.1.5-.4.7-1.1 1.6zm8-1.3V97.5h1.5V109zm3.7 0v-8.2h1.5v8.2zm.8-10-.7-.2-.3-.7q0-.4.3-.7l.7-.2a1 1 0 0 1 .9.9l-.3.7zm5.3 9.9-3.3-8.2h1.5l2.3 6 .2.6.3-.6 2.3-6h1.5l-3.4 8.2zm9.3.3q-1.8 0-3-1.3-1.2-1.2-1.2-3.1t1.2-3.2 2.9-1.2 2.8 1 1.1 2.8v.9h-7.1V104h5.7q0-1-.7-1.6t-1.8-.6-2 .8q-.6.8-.6 2.3t.8 2.3 2 .8l1-.2.7-.4.7-.8 1.1.6q-.4.8-1 1.2l-1 .6q-.7.3-1.6.3m8.4 0-1.4-.3-1.1-.6-.7-.9-.3-.4 1.2-.6.2.3.5.7.7.4 1 .1q.8 0 1.2-.3.5-.3.5-1l-.4-.7q-.4-.3-1.6-.6-1.6-.4-2.3-1t-.7-1.6 1-1.6 2.1-.7l1.2.1 1 .5.7.7.2.4-1.2.6-.1-.3-1-.7h-.8q-.8 0-1.2.2-.5.4-.5.8l.4.7q.3.3 1.7.7 1.6.4 2.3 1t.6 1.5q0 1.2-.9 1.9t-2.3.7m12.4 0q-1.9 0-3-1.3t-1.5-3q0-2 1.2-3.2t3.1-1.2 3 1.2 1.3 3.2q0 1.9-1.2 3.1t-3.1 1.3m0-1.3q1.2 0 2-.9t.9-2.2-.9-2.3-2-.8-2 .8-.9 2.3.8 2.2 2.1.9m6 1v-8.2h1.3v1.4l-.2-.2h.3q.3-.7 1-1a3 3 0 0 1 1.7-.5q1.4 0 2.2.8t.8 2.3v5.4H239V104q0-1-.5-1.6-.5-.5-1.5-.5t-1.7.7-.6 1.8v4.7zm13.6 3.5 2-4.5.1 1-3.7-8.2h1.6l2.3 5.5.2.6.3-.6 2.2-5.5h1.5l-5 11.7zm11.2-3.2q-1.9 0-3.1-1.3-1.2-1.2-1.2-3.1t1.2-3.2 3-1.2q2 0 3.1 1.2 1.3 1.3 1.3 3.2t-1.3 3.1-3 1.3m0-1.3q1.2 0 2-.9t.8-2.2-.8-2.3-2-.8-2 .8-.9 2.3.8 2.2 2 .9m9 1.3q-1.5 0-2.2-.9t-.8-2.4v-5.2h1.4v5q0 1 .5 1.6t1.5.6 1.6-.7.7-1.9v-4.6h1.4v8.2H270v-1.8l.6.6h-.7q-.3.6-1 1a3 3 0 0 1-1.7.5m6.3-.3v-8.2h1.3v1.4l-.2-.1h.3q.2-.7.9-1.2a3 3 0 0 1 1.9-.4l.4.1.2.1v1.4h-.3l-1-.2q-.8 0-1.5.7t-.6 1.8v4.6zm12.8.3-1.4-.3-1.1-.6-.8-.9-.2-.4 1.2-.6.2.3.5.7q.3.3.7.4l1 .1q.8 0 1.2-.3.5-.3.5-1l-.4-.7q-.4-.3-1.6-.6-1.6-.4-2.3-1t-.7-1.6.9-1.6 2.2-.7l1.2.1 1 .5.7.7.2.4-1.2.6-.2-.3-1-.7h-.7q-.8 0-1.2.2-.5.4-.5.8l.3.7q.4.3 1.8.7 1.6.4 2.3 1t.6 1.5q0 1.2-.9 1.9t-2.3.7m4.9-.3v-8.2h1.4v8.2zm.7-10-.7-.2-.2-.7q0-.4.2-.7l.7-.2a1 1 0 0 1 1 .9l-.3.7zm6 10.2q-1 0-1.6-.7t-.6-1.6v-8.5h1.4v8.2q0 .6.2 1t.8.3h.4l.4-.2h.2l.1 1.2h-.2l-.5.2zm-3.7-7.2v-1.2h5v1.2zm10.4 7.3q-1.9 0-3-1.3-1.2-1.2-1.2-3.1t1.1-3.2 3-1.2 2.8 1 1 2.8v.9h-7V104h5.6q0-1-.7-1.6t-1.7-.6q-1.2 0-2 .8-.7.8-.7 2.3t.8 2.3 2 .8q.6 0 1-.2.4-.1.7-.4.4-.2.8-.8l1.1.6q-.4.8-1 1.2l-1.1.6q-.6.3-1.5.3m6.5-.2q-.5 0-.8-.3l-.3-.8q0-.4.3-.7t.8-.3.7.3.3.7-.3.8z"/><g filter="url(#c)"><rect width="547.926" height="102.065" x="146" y="139" fill="url(#d)" rx="13"/><path fill="#000" d="M258.2 170.8v-10.6h1.8v10.6zm-3.3-9.8v-1.6h8.3v1.6zm8.9 9.8v-8.2h1.6v1.5l-.2-.3h.3q.2-.6.9-1l1.4-.5 1 .1.1.1v1.7h-.3l-.5-.2h-.5q-.9 0-1.5.6t-.6 1.8v4.4zm8.7.3q-1.4 0-2.2-.8t-.9-2 1-2 2.5-.8q.7 0 1.3.2.6.1 1 .4v-.5q0-.9-.5-1.4t-1.6-.5q-.5 0-.8.2-.4 0-.7.2l-.5.5-.3.2-1-1 .3-.3.8-.6 1-.5 1.4-.1q1.7 0 2.7.9t1 2.4v5.2h-1.7V169l.4.7h-.5q-.4.6-1 1a3 3 0 0 1-1.7.4m.4-1.4a2 2 0 0 0 1.7-.7q.7-.7.7-1.7l-1-.4-1-.2q-1 0-1.6.4-.5.4-.5 1.2 0 .6.5 1t1.2.4m6.2 1.1v-8.2h1.8v8.2zm.9-9.8q-.5 0-.8-.3l-.3-.8q0-.5.3-.8t.8-.3.8.3.3.8-.3.8zm3 9.8v-8.2h1.8v1.4l-.2-.2h.2q.4-.7 1.2-1.1a3 3 0 0 1 1.6-.4q1.4 0 2.2.8t.8 2.3v5.4h-1.8v-5q0-1-.4-1.5t-1.4-.5-1.5.7-.6 1.6v4.7zm13.4.3q-1.9 0-3-1.3t-1.2-3.1 1.1-3.2 3-1.2 3 1 1 2.8v1h-7.2v-1.2h5.5q0-1-.7-1.5t-1.6-.6-1.7.8q-.7.7-.7 2t.7 2.2 2 .8l.9-.1.7-.4.7-.8 1.2.8q-.5.8-1 1.2l-1.2.6q-.6.2-1.5.2m9 0q-1.7 0-2.8-1.2-1.1-1.3-1.1-3.2t1.1-3.2q1.2-1.2 2.8-1.2 1 0 1.7.4t1 1h.1v-4.4h1.8v11.5h-1.7v-1.4l.2.3h-.3q-.4.6-1.1 1zm.3-1.5q1 0 1.8-.8.7-.8.7-2.1t-.7-2q-.8-.9-1.8-.9t-1.8.8q-.7.8-.7 2 0 1.4.7 2.2t1.8.8m14 1.5q-2 0-3.2-1.3-1.2-1.2-1.2-3.1t1.2-3.2 3.2-1.2 3.1 1.2 1.2 3.2-1.2 3.1-3.1 1.3m0-1.6q1 0 1.8-.8t.8-2q0-1.3-.8-2-.7-.9-1.8-.9t-2 .8q-.7.8-.7 2 0 1.3.8 2.1.7.8 1.9.8m6 1.3v-8.2h1.7v1.4l-.3-.2h.3q.4-.7 1.2-1.1a3 3 0 0 1 1.6-.4q1.4 0 2.2.8t.8 2.3v5.4h-1.8v-5q0-1-.4-1.5t-1.4-.5-1.5.7-.6 1.6v4.7zm13.8 3.5 2.1-4.5v1l-3.6-8.2h1.9l2.1 5.1.2.7.4-.7 2-5.1h1.8l-5 11.7zm11.6-3.2q-2 0-3.2-1.3-1.2-1.2-1.2-3.1t1.3-3.2 3.1-1.2 3.1 1.2 1.3 3.2-1.2 3.1-3.2 1.3m0-1.6q1.1 0 1.9-.8t.7-2-.7-2q-.8-.9-1.9-.9t-1.9.8q-.7.8-.7 2 0 1.3.7 2.1.8.8 1.9.8m9 1.6q-1.5 0-2.3-.9t-.7-2.3v-5.3h1.7v5q0 1 .5 1.5t1.3.5q1 0 1.5-.7.7-.6.7-1.6v-4.7h1.7v8.2H363v-2l.8.9h-.9q-.3.6-1 1-.8.4-1.7.4m6.6-.3v-8.2h1.7v1.5l-.3-.3h.3q.3-.6 1-1l1.3-.5 1 .1.1.1v1.7h-.3l-.5-.2h-.5q-.8 0-1.4.6t-.6 1.8v4.4zm13.2.3q-.9 0-1.5-.2l-1.1-.6-.8-.9-.2-.4 1.3-.8.2.3q.2.4.5.6.3.3.7.4l1 .1q.7 0 1.1-.2a1 1 0 0 0 .5-.8 1 1 0 0 0-.4-.8l-1.6-.5q-1.6-.4-2.3-1t-.7-1.6 1-1.7 2.2-.7l1.3.1 1 .5.7.7.2.3-1.2.8-.2-.2-.5-.4-.6-.3h-.7q-.7 0-1.1.2t-.4.6.3.7 1.7.6q1.6.4 2.3 1t.7 1.6-1 1.9-2.4.7m8 0q-1 0-1.7-.7t-.7-1.8v-8.3h1.8v8q0 .6.2 1 .3.3.8.3h.3l.5-.2h.2l.1 1.4h-.2l-.6.2zm-3.8-7v-1.4h5.2v1.4zm10 7q-1.5 0-2.3-.8t-.8-2.3v-5.3h1.7v5q0 1 .5 1.5t1.4.5 1.5-.7.6-1.6v-4.7h1.8v8.2h-1.7v-2l.8.9h-.9q-.3.6-1 1-.8.4-1.7.4m7.4-.3v-9.1q0-1.2.8-2 .7-.7 2-.7h.6l.5.2h.3l-.1 1.5h-.2l-1-.2q-.5 0-.8.4-.3.3-.3.8v9.1zm5.5 0v-9.1q0-1.2.8-2 .7-.7 2-.7h.6l.5.2h.3l-.1 1.5h-.2l-1-.2q-.5 0-.8.4-.3.3-.3.8v9.1zm-7-6.8v-1.4h2.4v1.4zm7.9 0v-1.4h2.9v1.4zm-5.5 0v-1.4h5.5v1.4zm8.6 8.2 1-1.5-.5-.3-.2-.7q0-.5.3-.8.4-.4 1-.4.4 0 .8.4.3.3.3.8v.6l-.5.7-1.2 1.8zm8.4-1.4v-8.2h1.7v1.4l-.2-.2h.3q.4-.7 1.1-1.1a3 3 0 0 1 1.6-.4q1.4 0 2.2.8t.8 2.3v5.4h-1.7v-5q0-1-.5-1.5t-1.4-.5-1.5.7-.6 1.6v4.7zm13.5.3q-2 0-3.2-1.3-1.2-1.2-1.2-3.1t1.2-3.2 3.2-1.2 3.1 1.2 1.3 3.2-1.3 3.1-3.1 1.3m0-1.6q1.1 0 1.8-.8.8-.8.8-2 0-1.3-.8-2-.7-.9-1.8-.9t-1.9.8-.7 2q0 1.3.7 2.1t1.9.8m9.2 1.6q-1.2 0-1.8-.7t-.7-1.8v-8.3h1.8v8q0 .6.3 1 .2.3.7.3h.4l.4-.2h.2l.2 1.4h-.3l-.6.2zm-3.9-7v-1.4h5.2v1.4zm13.9 7q-1.2 0-1.8-.6t-.7-1.8v-8.3h1.8v8q0 .6.3 1 .2.3.7.3h.4l.4-.2h.2l.2 1.4h-.3l-.6.2zm-3.9-7v-1.4h5.2v1.4zm7 6.8v-11.5h1.7v4.4a3 3 0 0 1 1.2-1 3 3 0 0 1 1.6-.4q1.4 0 2.2.8t.8 2.3v5.4h-1.8v-5q0-1-.5-1.5t-1.3-.5q-1 0-1.5.7a2 2 0 0 0-.7 1.7v4.6zm13.3.3q-1.9 0-3-1.2t-1.3-3.2 1.2-3.2 3-1.2 3 1 1 2.8v1h-7.2v-1.2h5.5q0-1-.7-1.5t-1.6-.6-1.7.8q-.7.7-.7 2t.7 2.2 2 .8l.8-.1.8-.4.7-.8 1.2.8q-.5.8-1 1.2l-1.2.6q-.6.2-1.5.2m9.4-.3v-8.2h1.8v8.2zm.9-9.8q-.5 0-.8-.3l-.3-.8q0-.5.3-.8t.8-.3.8.3.3.8-.3.8zm3 9.8v-8.2h1.8v1.4l-.2-.2h.2q.4-.7 1.2-1.1a3 3 0 0 1 1.6-.4q1.4 0 2.2.8t.8 2.3v5.4h-1.8v-5q0-1-.4-1.5t-1.4-.5-1.5.7-.6 1.6v4.7zm12.8.3q-1.1 0-1.8-.7t-.6-1.8v-8.3h1.7v8q0 .6.3 1 .3.3.8.3h.3l.4-.2h.3l.1 1.4h-.3q-.2.2-.5.2zm-3.8-7v-1.4h5.2v1.4zm10.6 7q-1.8 0-3-1.1t-1.2-3.2 1.1-3.2 3-1.2 3 1 1 2.8v1h-7.2v-1.2h5.5q0-1-.6-1.5t-1.6-.6q-1.1 0-1.8.8-.7.7-.7 2t.8 2.2 1.9.8l.9-.1.7-.4.7-.8 1.3.8q-.5.8-1 1.2l-1.2.6q-.7.2-1.6.2m5.6-.3v-8.2h1.7v1.5l-.2-.3h.3q.2-.6.9-1l1.4-.5.9.1.2.1-.1 1.7h-.2l-.6-.2h-.4q-.9 0-1.5.6t-.6 1.8v4.4zm6.5 0v-8.2h1.7v1.4l-.2-.2h.3q.4-.7 1.1-1.1a3 3 0 0 1 1.6-.4q1.5 0 2.3.8t.8 2.3v5.4h-1.8v-5q0-1-.5-1.5t-1.4-.5-1.5.7-.6 1.6v4.7zm13.3.3q-1.8 0-3-1.2-1.2-1.3-1.2-3.2t1.2-3.2 3-1.2 2.9 1q1 1.2 1 2.8v1h-7.1v-1.2h5.4q0-1-.6-1.5t-1.6-.6q-1.1 0-1.8.8-.7.7-.7 2t.8 2.2 1.9.8l.9-.1.7-.4.7-.8 1.3.8q-.5.8-1 1.2l-1.2.6q-.6.2-1.6.2m8.8 0q-1.1 0-1.8-.7t-.6-1.8v-8.3h1.7v8q0 .6.3 1 .2.3.8.3h.3l.4-.2h.3v1.4h-.2l-.5.2zm-3.8-7V163h5.2v1.4zm-272.4 37.5q-1.8 0-2.8-1-1-1.1-1-3v-6.3h1.3v6.4q0 1.3.6 2t1.9.7 1.8-.7.7-2v-6.4h1.2v6.4q0 1.8-1 2.9t-2.7 1m5.8 2.8V194h1.3v1.5l-.3-.4h.3l1-1a3 3 0 0 1 1.6-.4q1.5 0 2.4 1.1 1 1 1 2.8t-1 2.8-2.4 1.1q-1 0-1.6-.4-.7-.3-1-.9v4.1zm3.7-4q1 0 1.7-.7t.6-2-.6-2a2 2 0 0 0-1.7-.7q-1 0-1.8.7-.7.8-.7 2t.7 2 1.8.8m5.2.9V191h1.3v10.2zm6.7.2q-1.7 0-2.8-1.1t-1-2.8 1-2.8q1.1-1 2.8-1t2.7 1 1.1 2.8-1 2.8-2.8 1.1m0-1.2q1 0 1.8-.7.7-.8.7-2t-.7-2q-.7-.7-1.8-.7t-1.8.8q-.7.7-.7 2 0 1.1.7 1.9t1.8.7m7.6 1.2q-1.2 0-2-.7-.7-.6-.7-1.8t.9-1.8 2.1-.7q.7 0 1.2.2.6.1 1 .4v-.5q0-.8-.6-1.3t-1.4-.4h-.8l-.5.3-.5.4-.2.2-.9-.7.3-.3.7-.5.8-.4q.5-.2 1.2-.2 1.4 0 2.3.8t.8 2.1v4.7H291v-1.6l.4.6h-.4q-.4.5-1 .8t-1.5.4m.2-1q1 0 1.6-.7t.7-1.6l-.9-.5-1-.2q-1 0-1.5.4t-.5 1.1.5 1 1.1.4m8.6 1.1q-1.5 0-2.6-1-1-1.2-1-2.9t1-2.8 2.5-1q.9 0 1.5.3.7.4 1 1v-4h1.4v10.2h-1.3v-1.4l.2.3h-.2l-1 1zm.1-1.1a2 2 0 0 0 1.7-.8q.7-.7.7-2t-.7-2-1.7-.7a2 2 0 0 0-1.7.7q-.7.8-.7 2 0 1.3.7 2 .7.8 1.7.8m9.6 4 1.8-4v.9l-3.2-7.3h1.4l2 4.8.2.6.3-.6 2-4.8h1.3l-4.5 10.3zm10-2.9q-1.7 0-2.8-1.1t-1-2.8 1-2.8q1.1-1 2.8-1t2.7 1 1.1 2.8-1 2.8-2.8 1.1m0-1.2q1 0 1.8-.7.7-.8.7-2t-.7-2q-.7-.7-1.8-.7t-1.8.8q-.7.7-.7 2 0 1.1.7 1.9t1.8.7m8 1.2q-1.3 0-2-.7-.7-.8-.7-2.1V194h1.3v4.5q0 1 .4 1.4.5.5 1.3.5t1.5-.7.6-1.5V194h1.3v7.3h-1.3v-1.7l.6.6h-.6q-.3.6-1 1-.6.3-1.4.3m5.7-.2V194h1.2v1.3l-.2-.2h.2q.3-.6.8-1t1.3-.4h.4l.4.2h.2l-.1 1.3h-.2l-.4-.2h-.4q-.8 0-1.4.6t-.5 1.7v4zm12 .2q-1.4 0-2.4-1-1-1.2-1-2.9t1-2.8 2.4-1q.9 0 1.6.3.6.4 1 1v-4h1.3v10.2h-1.2v-1.4l.1.3h-.2l-1 1zm.2-1.1q1 0 1.7-.8.7-.7.7-2t-.7-2-1.7-.7a2 2 0 0 0-1.8.7q-.7.8-.7 2 0 1.3.7 2 .7.8 1.8.8m9 1.1q-1.7 0-2.8-1.1t-1-2.8 1-2.8q1.1-1 2.8-1t2.7 1 1.1 2.8-1 2.8-2.8 1.1m0-1.2q1 0 1.8-.7.7-.8.7-2t-.7-2q-.7-.7-1.8-.7t-1.8.8q-.7.7-.7 2 0 1.1.7 1.9t1.8.7m8.7 1.2q-1.7 0-2.7-1.1t-1-2.8 1-2.8 2.7-1l1.1.1 1 .5.9 1-1 .7-.6-.7-.7-.4h-.7q-1 0-1.8.7-.7.7-.7 1.9t.7 2a2 2 0 0 0 1.8.7h.8l.6-.4.7-.8 1 .7q-.5.7-1 1l-1 .5zm7 0q-.8 0-1.3-.2l-1-.5-.6-.8-.2-.4 1-.5.2.3.5.5q.2.3.6.4l.8.1q.7 0 1.1-.3a1 1 0 0 0 .5-.8l-.4-.7q-.4-.3-1.4-.5-1.4-.3-2-.9-.6-.5-.6-1.4t.7-1.5 2-.6q.6 0 1 .2l1 .4.5.6.2.3-1 .6-.2-.3-.4-.3-.5-.3h-.6q-.7 0-1 .2-.5.3-.5.7t.3.6 1.6.6 2 .9q.5.5.5 1.3 0 1-.8 1.7t-2 .6m4 1 .9-1.2-.5-.3-.2-.6q0-.4.3-.7l.7-.2q.4 0 .7.2t.2.7v.4l-.4.6-1 1.6zm9-1.2-2.4-7.3h1.3l1.5 5 .2.7.3-.7 1.5-5h1.3l1.5 5 .3.7.2-.7 1.5-5h1.2l-2.3 7.3h-1.2l-1.7-5-.2-.8-.2.7-1.6 5zm12.6.2q-1.6 0-2.6-1-1-1.2-1-2.9t1-2.7 2.6-1.2 2.5 1 1 2.4v.8h-6.4v-1h5q0-.9-.6-1.4-.6-.6-1.5-.6t-1.7.7-.7 2 .7 2 1.8.8q.5 0 .8-.2l.7-.3.7-.7 1 .6q-.5.7-1 1l-1 .5q-.5.2-1.3.2m8.8 0-1.5-.4q-.6-.3-1-.9h-.3l.3-.3v1.4h-1.3V191h1.3v4q.4-.6 1-1a3 3 0 0 1 1.6-.4q1.5 0 2.5 1.1t1 2.8-1 2.8-2.6 1.1m-.1-1.1q1 0 1.7-.8.7-.7.7-2 0-1.2-.7-2a2 2 0 0 0-1.7-.7q-1 0-1.7.7-.7.8-.7 2t.7 2a2 2 0 0 0 1.7.8m7.7 1.1q-.7 0-1.3-.2l-1-.5-.5-.8-.2-.4 1-.5.2.3.4.5.6.4.9.1q.7 0 1-.3a1 1 0 0 0 .5-.8l-.3-.7q-.4-.3-1.4-.5-1.5-.3-2-.9-.7-.5-.7-1.4t.8-1.5 2-.6q.6 0 1 .2.5.1.9.4l.6.6.2.3-1 .6-.2-.3-.4-.3-.5-.3h-.7q-.6 0-1 .2t-.4.7.3.6 1.5.6 2 .9.6 1.3q0 1-.8 1.7t-2 .6m4.3-.2V194h1.3v7.3zm.7-8.8-.6-.3-.3-.6q0-.3.3-.6l.6-.2.6.2.2.6-.2.6zm5.3 9q-.9 0-1.4-.5-.6-.6-.6-1.5V192h1.3v7.2q0 .6.2.9.3.2.7.2h.3l.4-.1.2-.1.2 1-.2.2-.5.1zm-3.3-6.4v-1h4.5v1.1zm9.4 6.4q-1.7 0-2.7-1-1-1.2-1-2.9t1-2.7 2.6-1.2 2.5 1 1 2.4v.8H423v-1h5q0-.9-.5-1.4-.6-.6-1.6-.6t-1.7.7q-.6.8-.6 2 0 1.3.7 2 .7.8 1.7.8.5 0 .9-.2l.7-.3.6-.7 1 .6q-.4.7-.9 1l-1 .5q-.5.2-1.3.2m4.7 1 .8-1.2-.4-.3-.2-.6q0-.4.3-.7l.7-.2q.4 0 .6.2.3.3.3.7v.4l-.4.6-1 1.6zm9.7-1q-1.2 0-2-.7t-.8-1.8.9-1.8 2.2-.7l1.2.2 1 .4v-.5q0-.8-.6-1.3t-1.4-.4h-.8q-.3 0-.6.3l-.5.4-.2.2-.9-.7.3-.3.7-.5q.4-.3.9-.4t1.1-.2q1.4 0 2.3.8t.9 2.1v4.7h-1.3v-1.6l.4.6h-.4q-.3.5-1 .8t-1.4.4m.2-1q.9 0 1.6-.7.6-.7.6-1.6l-.8-.5-1.1-.2q-1 0-1.4.4t-.5 1.1q0 .6.4 1t1.2.4m5.4.9V194h1.2v1.3l-.2-.3h.3q.3-.5 1-.9l1.4-.4q1.3 0 2 .8t.7 2v4.8h-1.3v-4.6q0-.9-.4-1.3t-1.3-.5-1.5.6-.6 1.6v4.2zm11.4.2q-1.5 0-2.5-1-1-1.2-1-2.9t1-2.8 2.5-1q.8 0 1.5.3.7.4 1 1v-4h1.4v10.2H460v-1.4l.2.3h-.2l-1 1a3 3 0 0 1-1.6.3m.2-1.1a2 2 0 0 0 1.7-.8q.7-.7.7-2t-.7-2-1.7-.7a2 2 0 0 0-1.7.7q-.7.8-.7 2 0 1.3.7 2 .7.8 1.7.8m11.6 1.1q-.8 0-1.3-.2l-1-.5-.6-.8-.2-.4 1-.5.2.3.5.5q.2.3.6.4l.8.1q.7 0 1.1-.3a1 1 0 0 0 .5-.8l-.4-.7q-.4-.3-1.4-.5-1.4-.3-2-.9-.6-.5-.6-1.4t.8-1.5 1.9-.6q.6 0 1 .2l1 .4.5.6.2.3-1 .6-.2-.3-.4-.3-.5-.3h-.6q-.7 0-1 .2-.5.3-.5.7t.3.6 1.6.6 2 .9q.5.5.5 1.3 0 1-.8 1.7t-2 .6m4.3 2.8V194h1.2v1.5l-.2-.4h.3l1-1a3 3 0 0 1 1.5-.4q1.5 0 2.5 1.1 1 1 1 2.8t-1 2.8-2.4 1.1q-1 0-1.6-.4-.7-.3-1-.9v4.1zm3.6-4q1 0 1.8-.7t.6-2-.7-2a2 2 0 0 0-1.7-.7q-1 0-1.7.7-.7.8-.7 2t.7 2 1.7.8m5.3.9V194h1.2v1.3l-.2-.2h.3q.2-.6.8-1 .5-.4 1.2-.4h.4l.4.2h.2l-.1 1.3h-.2l-.4-.2h-.4q-.8 0-1.4.6t-.5 1.7v4zm8.5.2q-1.6 0-2.7-1-1-1.2-1-2.9t1-2.7 2.6-1.2 2.5 1 1 2.4v.8H488v-1h5.1q0-.9-.6-1.4-.6-.6-1.6-.6t-1.7.7q-.6.8-.6 2 0 1.3.7 2 .7.8 1.8.8.5 0 .8-.2l.7-.3.7-.7 1 .6q-.5.7-1 1l-1 .5q-.5.2-1.3.2m7.3 0q-1.2 0-2-.7t-.8-1.8.9-1.8 2.2-.7l1.2.2 1 .4v-.5q0-.8-.6-1.3t-1.4-.4h-.8q-.3 0-.6.3l-.5.4-.2.2-.9-.7.3-.3.7-.5.8-.4q.5-.2 1.2-.2 1.4 0 2.3.8t.9 2.1v4.7h-1.3v-1.6l.4.6h-.4q-.3.5-1 .8t-1.4.4m.2-1q.9 0 1.6-.7.6-.7.6-1.6l-.8-.5-1.1-.2q-1 0-1.4.4t-.6 1.1q0 .6.5 1t1.2.4m8.5 1.1q-1.5 0-2.5-1-1-1.2-1-2.9t1-2.8 2.4-1q.9 0 1.5.3.7.4 1 1h.1v-4h1.3v10.2h-1.2v-1.4l.1.3h-.2l-1 1zm.2-1.1q1 0 1.7-.8.7-.7.7-2t-.7-2-1.7-.7a2 2 0 0 0-1.8.7q-.7.8-.7 2 0 1.3.7 2 .7.8 1.8.8m8 1.1q-.7 0-1.2-.2l-1-.5-.6-.8-.2-.4 1-.5.2.3.5.5.6.4.8.1q.7 0 1.2-.3a1 1 0 0 0 .4-.8l-.4-.7q-.4-.3-1.4-.5-1.4-.3-2-.9-.6-.5-.6-1.4t.8-1.5 1.9-.6q.6 0 1 .2.6.1 1 .4l.5.6.2.3-1 .6-.1-.3-.4-.3-.6-.3h-.6q-.7 0-1 .2-.5.3-.5.7t.3.6 1.6.6 2 .9q.5.5.5 1.3 0 1-.8 1.7t-2 .6m4.3-.2V191h1.3v4q.4-.6 1-1t1.5-.4q1.2 0 2 .8t.6 2v4.8h-1.3v-4.6q0-.9-.4-1.4t-1.3-.4-1.5.6a2 2 0 0 0-.6 1.6v4.2zm11.6.2q-1.6 0-2.6-1-1-1.2-1-2.9t1-2.7 2.6-1.2 2.5 1 1 2.4v.8h-6.4v-1h5q0-.9-.6-1.4-.5-.6-1.5-.6t-1.7.7-.7 2 .7 2 1.8.8q.5 0 .9-.2l.6-.3.7-.7 1 .6q-.5.7-1 1l-1 .5q-.5.2-1.3.2m8.3 0q-1.6 0-2.7-1-1-1.2-1-2.9t1-2.7 2.6-1.2 2.6 1 1 2.4v.8h-6.5v-1h5.1q0-.9-.6-1.4-.6-.6-1.6-.6t-1.7.7-.6 2 .7 2 1.8.8q.5 0 .8-.2l.7-.3.7-.7 1 .6q-.5.7-1 1l-1 .5q-.5.2-1.3.2m7.6 0q-.9 0-1.4-.5-.6-.6-.6-1.5V192h1.3v7.2q0 .6.3.9.2.2.7.2h.2l.4-.1.3-.1.1 1-.2.2-.5.1zm-3.2-6.4v-1h4.4v1.1zm8.5 6.4q-.7 0-1.3-.2l-1-.5-.5-.8-.3-.4 1.1-.5.2.3.4.5.6.4.9.1q.7 0 1-.3a1 1 0 0 0 .5-.8l-.4-.7q-.3-.3-1.3-.5-1.5-.3-2-.9-.7-.5-.7-1.4t.8-1.5 2-.6l1 .2q.5.1.9.4l.6.6.2.3-1 .6-.2-.3-.4-.3-.5-.3h-.7q-.6 0-1 .2t-.4.7.3.6 1.5.6 2 .9.6 1.3q0 1-.8 1.7t-2 .6m5.1-.1-.7-.3-.3-.7q0-.4.3-.7l.7-.3q.4 0 .7.3l.3.7-.3.7zm8.7-.1v-9.5h1.3v9.5zm-3-8.8v-1.3h7.2v1.3zm8.7 8.8V191h1.2v4q.4-.6 1-1t1.5-.4q1.3 0 2 .8t.7 2v4.8H577v-4.6q0-.9-.5-1.4t-1.3-.4-1.5.6a2 2 0 0 0-.6 1.6v4.2zm11.6.2q-1.7 0-2.7-1-1-1.2-1-2.9t1-2.7 2.6-1.2 2.5 1 1 2.4v.8h-6.4v-1h5q0-.9-.5-1.4-.6-.6-1.6-.6t-1.7.7q-.6.8-.6 2 0 1.3.7 2 .7.8 1.7.8.5 0 .9-.2l.7-.3.6-.7 1 .6q-.4.7-.9 1l-1 .5q-.5.2-1.3.2m12.2 0-1.5-.4q-.7-.3-1-.9h-.3l.2-.3v1.4H592V191h1.3v4q.4-.6 1-1a3 3 0 0 1 1.6-.4q1.4 0 2.4 1.1t1 2.8-1 2.8-2.5 1.1m-.2-1.1q1 0 1.7-.8.7-.7.7-2 0-1.2-.7-2a2 2 0 0 0-1.7-.7q-1 0-1.7.7-.7.8-.7 2t.7 2a2 2 0 0 0 1.7.8m8.7 1.1q-1.7 0-2.8-1.1t-1-2.8 1-2.8q1.1-1 2.8-1t2.7 1 1.1 2.8-1 2.8-2.8 1.1m0-1.2q1 0 1.8-.7.7-.8.7-2t-.7-2q-.7-.7-1.8-.7t-1.8.8q-.7.7-.7 2 0 1.1.7 1.9t1.8.7m8 1.2q-1 0-1.5-.5t-.5-1.5V192h1.3v7.2q0 .6.2.9.2.2.7.2h.3l.4-.1.2-.1.2 1-.2.2-.5.1zM609 195v-1h4.5v1.1zm-353.5 26.2V211h1.3v10.2zm6.6.2q-1.7 0-2.7-1-1-1.2-1-2.9t1-2.7 2.6-1.2 2.5 1 1 2.4v.8H259v-1h5q0-.9-.5-1.4-.6-.6-1.6-.6t-1.7.7q-.6.8-.6 2 0 1.3.7 2 .7.8 1.8.8l.8-.2.7-.3.6-.7 1 .6q-.4.7-.9 1l-1 .5q-.5.2-1.3.2m7.2 0q-1.2 0-2-.7-.7-.6-.7-1.8t.9-1.8 2.1-.7q.7 0 1.2.2.6.1 1 .4v-.5q0-.8-.6-1.3t-1.4-.4h-.8q-.4 0-.5.3l-.5.4-.2.2-.9-.7.3-.3.7-.5.8-.4q.5-.2 1.2-.2 1.4 0 2.3.8t.8 2.1v4.7h-1.2v-1.6l.4.6h-.4q-.4.5-1 .8t-1.5.4m.2-1q1 0 1.6-.7t.7-1.6l-.9-.5-1-.2q-1 0-1.5.4t-.5 1.1.5 1 1.1.4m5.5.9V214h1.2v1.3l-.2-.2h.2q.2-.6.8-1a2 2 0 0 1 1.3-.4h.4l.4.2h.2l-.1 1.3h-.2l-.5-.2h-.3q-.8 0-1.4.6t-.5 1.7v4zm5.6 0V214h1.2v1.3l-.2-.3h.2q.4-.5 1-.9a3 3 0 0 1 1.5-.4q1.3 0 2 .8t.7 2v4.8h-1.3v-4.6q0-.9-.4-1.3t-1.4-.5-1.5.6-.6 1.6v4.2zm10.8.2q-.7 0-1.3-.2l-1-.5-.6-.8-.2-.4 1-.5.3.3q.1.3.4.5l.6.4.8.1q.8 0 1.2-.3a1 1 0 0 0 .4-.8l-.4-.7q-.3-.3-1.3-.5-1.5-.3-2-.9-.7-.5-.7-1.4t.8-1.5 2-.6l1 .2q.5.1.9.4l.6.6.2.3-1 .6-.2-.3-.4-.3-.5-.3h-.7q-.6 0-1 .2t-.4.7l.2.6q.3.3 1.6.6t2 .9q.6.5.6 1.3 0 1-.9 1.7t-2 .6m8.2 2.8 1.9-4v1l-3.2-7.3h1.4l2 4.8.2.6.2-.6 2-4.8h1.3l-4.4 10.3zm10-2.8q-1.6 0-2.7-1.1-1-1.1-1-2.8t1-2.8 2.8-1q1.6 0 2.7 1 1 1.2 1 2.8t-1 2.8-2.7 1.1m0-1.2q1 0 1.8-.7.7-.8.7-2t-.8-2q-.7-.7-1.7-.7-1.1 0-1.9.8-.7.7-.7 2 0 1.1.7 1.9t1.9.7m8 1.2q-1.3 0-2-.7-.7-.8-.7-2.1V214h1.3v4.5q0 1 .4 1.4t1.3.5 1.5-.7.6-1.5V214h1.2v7.3H320v-1.7l.6.6h-.6q-.4.6-1 1zm5.7-.2V214h1.2v1.3l-.2-.2h.2q.2-.6.8-1a2 2 0 0 1 1.3-.4h.4l.4.2h.2l-.1 1.3h-.3l-.4-.2h-.3q-.8 0-1.4.6t-.6 1.7v4zm12.8.2-1.5-.4q-.7-.3-1-.9h-.4l.3-.3v1.4h-1.2V211h1.2v4q.4-.6 1.1-1a3 3 0 0 1 1.5-.4q1.5 0 2.5 1.1t1 2.8-1 2.8-2.5 1.1m-.2-1.1q1 0 1.7-.8.7-.7.7-2 0-1.2-.7-2a2 2 0 0 0-1.7-.7q-1 0-1.7.7-.7.8-.7 2t.7 2a2 2 0 0 0 1.7.8m7.9 1.1q-1.3 0-2-.7-.7-.8-.7-2.1V214h1.3v4.5q0 1 .4 1.4.4.5 1.3.5t1.5-.7.6-1.5V214h1.3v7.3h-1.3v-1.7l.6.6h-.6q-.3.6-1 1-.6.3-1.4.3m8.2 0q-.8 0-1.3-.2l-1-.5-.6-.8-.2-.4 1-.5.2.3.5.5q.2.3.6.4l.8.1q.7 0 1.1-.3a1 1 0 0 0 .5-.8l-.4-.7q-.4-.3-1.4-.5-1.4-.3-2-.9-.6-.5-.6-1.4t.8-1.5 1.9-.6q.6 0 1 .2l1 .4.5.6.2.3-1 .6-.2-.3-.4-.3-.5-.3h-.6q-.7 0-1 .2-.5.3-.5.7t.3.6 1.6.6 2 .9q.5.5.5 1.3 0 1-.8 1.7t-2 .6m4.4-.2V214h1.3v7.3zm.6-8.8-.6-.3-.2-.6.2-.6.6-.2q.4 0 .6.2l.3.6q0 .4-.3.6zm2.7 8.8V214h1.3v1.3l-.2-.3h.2q.3-.5 1-.9a3 3 0 0 1 1.5-.4q1.2 0 2 .8t.6 2v4.8H365v-4.6q0-.9-.5-1.3t-1.3-.5-1.5.6-.6 1.6v4.2zm11.7.2q-1.7 0-2.7-1-1-1.2-1-2.9t1-2.7 2.6-1.2 2.5 1 1 2.4v.8h-6.4v-1h5q0-.9-.6-1.4-.5-.6-1.5-.6t-1.7.7-.7 2 .7 2 1.8.8q.5 0 .9-.2l.6-.3.7-.7 1 .6q-.4.7-.9 1l-1 .5q-.5.2-1.3.2m7.4 0q-.7 0-1.2-.2l-1-.5-.6-.8-.2-.4 1-.5.2.3.5.5q.2.3.6.4t.8.1q.7 0 1.1-.3a1 1 0 0 0 .4-.8l-.3-.7q-.4-.3-1.4-.5-1.5-.3-2-.9-.6-.5-.6-1.4t.7-1.5 2-.6q.6 0 1 .2l1 .4.5.6.2.3-1 .6-.2-.3-.4-.3-.5-.3h-.7q-.6 0-1 .2t-.4.7.3.6 1.6.6 2 .9q.5.5.5 1.3 0 1-.8 1.7t-2 .6m6.8 0q-.8 0-1.3-.2l-1-.5-.6-.8-.2-.4 1-.5.2.3.5.5q.2.3.6.4l.8.1q.7 0 1.1-.3a1 1 0 0 0 .5-.8l-.4-.7q-.4-.3-1.4-.5-1.4-.3-2-.9-.6-.5-.6-1.4t.8-1.5 1.9-.6q.6 0 1 .2l1 .4.5.6.2.3-1 .6-.2-.3-.4-.3-.5-.3h-.6q-.7 0-1 .2-.5.3-.5.7t.3.6 1.6.6 2 .9q.5.5.5 1.3 0 1-.8 1.7t-2 .6m7.6-4.1v-1h11.9v1zm17.2 3.9V214h1.3v1.3l-.2-.3h.2q.3-.5 1-.9l1.4-.4q1.3 0 2 .8.7.7.7 2v4.8h-1.2v-4.6q0-.9-.5-1.3t-1.3-.5-1.5.6-.6 1.6v4.2zm11.8.2q-1.7 0-2.8-1.1t-1-2.8 1-2.8q1.1-1 2.8-1t2.7 1q1 1.2 1 2.8t-1 2.8-2.7 1.1m0-1.2q1 0 1.8-.7.7-.8.7-2t-.7-2q-.8-.7-1.8-.7-1.1 0-1.9.8-.7.7-.7 2 0 1.1.7 1.9t1.9.7m12 4.2-1.3-.1-1-.5-.8-.8-.3-.3 1-.7.3.3.5.5q.3.3.7.4t.8.1q1.2 0 1.8-.6.5-.7.5-1.8v-1q-.3.6-1 1-.6.3-1.4.3-1.5 0-2.5-1t-1-2.8 1-2.7 2.5-1q.8 0 1.5.3.6.4 1 1h.3l-.3.3V214h1.2v7q0 1.7-1 2.6t-2.5 1m0-4.4q1 0 1.6-.8t.7-2q0-1-.7-1.8-.6-.7-1.6-.7t-1.7.7-.7 2 .7 1.9 1.6.7m9 1.3q-1.7 0-2.8-1-1-1.2-1-2.9t1-2.7 2.6-1.2 2.6 1 .9 2.4v.8h-6.4v-1h5.1q0-.9-.6-1.4-.6-.6-1.6-.6t-1.7.7q-.6.8-.6 2 0 1.3.7 2 .7.8 1.8.8.5 0 .8-.2l.7-.3.7-.7 1 .6q-.5.7-1 1l-1 .5q-.5.2-1.3.2m5-.2V214h1.2v1.3l-.2-.3h.3q.3-.5 1-.9l1.4-.4q1.3 0 2 .8t.7 2v4.8h-1.3v-4.6q0-.9-.4-1.3t-1.3-.5-1.5.6-.6 1.6v4.2zm11.6.2q-1.6 0-2.6-1-1-1.2-1-2.9t1-2.7 2.6-1.2 2.5 1 1 2.4v.8h-6.4v-1h5q0-.9-.6-1.4-.6-.6-1.5-.6t-1.7.7-.7 2 .7 2 1.8.8q.5 0 .8-.2l.7-.3.7-.7 1 .6q-.5.7-1 1l-1 .5q-.5.2-1.3.2m5-.2V214h1.2v1.3l-.1-.2h.2q.2-.6.8-1t1.2-.4h.5l.4.2h.2l-.2 1.3h-.2l-.4-.2h-.4q-.8 0-1.3.6t-.6 1.7v4zm5.7 0V214h1.3v7.3zm.6-8.8-.6-.3-.2-.6.2-.6.6-.2q.4 0 .7.2l.2.6-.2.6zm6 9q-1.6 0-2.6-1.1t-1-2.8 1-2.8 2.7-1l1.1.1 1 .5q.5.3.9 1l-1 .7-.6-.7-.7-.4h-.8q-1 0-1.7.7t-.7 1.9.7 2a2 2 0 0 0 1.7.7h.9l.6-.4.7-.8 1 .7q-.5.7-1 1l-1 .5zm10.1 0q-1.2 0-2-.7-.7-.6-.7-1.8t.8-1.8 2.2-.7q.7 0 1.2.2.6.1 1 .4v-.5q0-.8-.6-1.3t-1.4-.4h-.8l-.5.3-.5.4-.2.2-.9-.7.3-.3.7-.5q.3-.3.8-.4t1.2-.2q1.4 0 2.3.8t.8 2.1v4.7h-1.2v-1.6l.3.6h-.3q-.4.5-1 .8t-1.5.4m.2-1q1 0 1.6-.7t.7-1.6l-.9-.5-1-.2q-1 0-1.5.4t-.5 1.1.5 1 1.1.4m5.5.9V214h1.2v1.3l-.2-.3h.2q.4-.5 1-.9a3 3 0 0 1 1.5-.4q1.3 0 2 .8t.7 2v4.8H498v-4.6q0-.9-.4-1.3t-1.4-.5-1.5.6-.6 1.6v4.2zm10.8.2q-.7 0-1.3-.2l-1-.5-.6-.8-.2-.4 1-.5.3.3q.1.3.4.5l.6.4.8.1q.7 0 1.2-.3a1 1 0 0 0 .4-.8l-.4-.7q-.3-.3-1.4-.5-1.4-.3-2-.9-.6-.5-.6-1.4t.8-1.5 2-.6l1 .2q.5.1.9.4t.5.6l.2.3-1 .6-.1-.3-.4-.3-.5-.3h-.7q-.6 0-1 .2t-.4.7l.2.6q.3.3 1.6.6t2 .9q.6.5.6 1.3 0 1-.9 1.7t-2 .6m5.8-.2-2.3-7.3h1.3l1.5 5 .2.7.3-.7 1.5-5h1.3l1.5 5 .3.7.2-.7 1.5-5h1.2l-2.3 7.3h-1.2l-1.7-5-.2-.8-.2.7-1.6 5zm12.7.2q-1.6 0-2.6-1-1-1.2-1-2.9t1-2.7 2.6-1.2 2.5 1 1 2.4v.8h-6.4v-1h5q0-.9-.6-1.4-.5-.6-1.5-.6t-1.7.7-.7 2 .7 2 1.8.8q.5 0 .9-.2l.6-.3.7-.7 1 .6q-.5.7-1 1l-1 .5q-.5.2-1.3.2m5-.2V214h1.3v1.3l-.2-.2h.2q.2-.6.8-1t1.3-.4h.4l.4.2h.2l-.2 1.3h-.2l-.4-.2h-.4q-.8 0-1.3.6t-.6 1.7v4zm7.9.2q-.7 0-1.3-.2l-1-.5-.6-.8-.2-.4 1-.5.3.3q.1.3.4.5l.6.4.8.1q.7 0 1.2-.3a1 1 0 0 0 .4-.8l-.4-.7q-.3-.3-1.4-.5-1.4-.3-2-.9-.6-.5-.6-1.4t.8-1.5 2-.6l1 .2q.5.1.9.4l.6.6.1.3-1 .6-.1-.3-.4-.3-.5-.3h-.7q-.6 0-1 .2t-.4.7l.2.6q.3.3 1.6.6t2 .9q.6.5.6 1.3 0 1-.9 1.7t-2 .6m5.2-.1a1 1 0 0 1-1-1q0-.4.3-.7l.7-.3q.4 0 .7.3l.3.7-.3.7z"/><g filter="url(#e)"><mask id="g" width="87" height="87" x="156" y="147" maskUnits="userSpaceOnUse" style="mask-type:alpha"><rect width="85.949" height="85.949" x="156.744" y="147.595" fill="url(#f)" rx="2"/></mask><g mask="url(#g)"><path fill="url(#h)" d="M192.6 226.4a2 2 0 0 1-2-2v-6.7a2 2 0 0 0-2-2h-9.3a2 2 0 0 1-1.5-3.4l20.5-21.9a2 2 0 0 1 2.9 0l20.4 22a2 2 0 0 1-1.4 3.3h-9.4a2 2 0 0 0-2 2v6.7a2 2 0 0 1-2 2zm1.6-5.5a2 2 0 0 0 2 2h7a2 2 0 0 0 2-2V214a2 2 0 0 1 2-2h4.7a2 2 0 0 0 1.4-3.3l-12.1-13a2 2 0 0 0-3 0l-12.1 13a2 2 0 0 0 1.5 3.3h4.6a2 2 0 0 1 2 2zm-15.4-22.2a1.8 1.8 0 0 1-1.3-3l20.8-22.3a2 2 0 0 1 2.9 0l20.8 22.3c1 1.1.2 3-1.3 3a2 2 0 0 1-1.3-.6l-18.2-19.4a2 2 0 0 0-3 0l-18.1 19.4a2 2 0 0 1-1.3.6m0-17a1.8 1.8 0 0 1-1.3-3l20.8-22.3a2 2 0 0 1 2.9 0l20.8 22.3c1 1.1.2 3-1.3 3a2 2 0 0 1-1.3-.6l-18.2-19.4a2 2 0 0 0-3 0l-18 19.3a2 2 0 0 1-1.3.6"/></g></g></g><g filter="url(#i)"><rect width="547.926" height="102.065" x="146" y="276" fill="url(#j)" rx="13"/><path fill="#000" d="M255.8 307.8v-11.4h2l5.4 8.4v-8.4h1.7v11.4h-1.7l-5.6-8.7v8.7zm15.3.3q-1.9 0-3-1.3-1.3-1.2-1.3-3.1t1.2-3.2 3-1.2 3 1 1 2.8v1h-7.2v-1.2h5.5q0-1-.7-1.5t-1.6-.6q-1 0-1.7.8-.7.7-.7 2t.7 2.2 2 .8l.8-.1.8-.4.7-.8 1.2.8q-.5.8-1 1.2l-1.2.6q-.6.2-1.5.2m7.7-.3-3.3-8.2h1.9l2.1 5.6.2.7.3-.7 2.2-5.6h1.8l-3.4 8.2zm9.7.3q-1.9 0-3-1.3-1.2-1.2-1.2-3.1t1.1-3.2 3-1.2 3 1 1 2.8v1h-7.2v-1.2h5.5q0-1-.6-1.5t-1.7-.6q-1 0-1.7.8-.7.7-.7 2t.8 2.2 1.9.8l.9-.1.7-.4.7-.8 1.2.8q-.4.8-1 1.2l-1.1.6q-.7.2-1.6.2m5.6-.3v-8.2h1.7v1.5l-.2-.3h.3q.2-.6.8-1a3 3 0 0 1 1.5-.5l.9.1.2.1-.1 1.7h-.3l-.5-.2h-.4q-1 0-1.5.6t-.6 1.8v4.4zm10.5 0v-11.4h2.4l3.6 9 3.6-9h2.3v11.4h-1.7v-8.7l-3.5 8.7H310l-3.6-8.7v8.7zm16.9.3q-1.4 0-2.2-.8t-.9-2 1-2 2.5-.8q.7 0 1.3.2.6.1 1 .4v-.5q0-.9-.5-1.4t-1.6-.5l-.9.1-.6.3-.5.5-.3.2-1-1 .3-.3.8-.6 1-.5 1.3-.1q1.8 0 2.8.9t1 2.4v5.2h-1.7V306l.4.7h-.5q-.4.6-1.1 1a3 3 0 0 1-1.6.4m.4-1.4q1 0 1.7-.7t.6-1.7l-.9-.4-1-.2q-1 0-1.6.4-.5.4-.5 1.2 0 .6.4 1t1.3.4m7-.6V304l4.3-4.3h2.3zm-.9 1.7v-11.5h1.8v11.5zm5.5 0-2.8-4.3 1.2-1.3 3.8 5.6zm6.7.3q-1.8 0-3-1.3t-1.2-3.1 1.1-3.2q1.2-1.2 3-1.2t3 1 1 2.8v1H337v-1.2h5.5q0-1-.6-1.5t-1.6-.6q-1.1 0-1.8.8-.7.7-.7 2t.8 2.2 1.9.8l.9-.1.7-.4.7-.8 1.3.8q-.5.8-1 1.2l-1.2.6q-.7.2-1.6.2m8.6 0q-.9 0-1.5-.2l-1.1-.6-.8-.9-.2-.4 1.3-.8.2.3q.2.4.5.6.3.3.7.4l1 .1q.7 0 1.1-.2a1 1 0 0 0 .5-.8 1 1 0 0 0-.4-.8l-1.6-.5q-1.6-.4-2.3-1t-.7-1.6 1-1.7 2.2-.7l1.3.1 1 .5q.5.3.7.7l.3.3-1.3.8-.2-.2-.5-.4-.6-.3h-.7q-.7 0-1 .2-.5.3-.5.6l.3.7q.3.3 1.7.6 1.6.4 2.3 1t.7 1.6q0 1.1-1 1.9t-2.4.7m11.8 0q-1.1 0-1.8-.7t-.6-1.8v-8.3h1.7v8q0 .6.3 1 .3.3.8.3h.3l.4-.2h.3v1.4h-.2l-.5.2zm-3.8-7v-1.4h5.2v1.4zm6.9 6.8v-11.5h1.8v4.4l1.1-1a3 3 0 0 1 1.6-.4q1.4 0 2.2.8t.8 2.3v5.4h-1.7v-5q0-1-.5-1.5t-1.4-.5-1.5.7a2 2 0 0 0-.6 1.7v4.6zm9.6 0v-8.2h1.8v8.2zm1-9.8q-.5 0-.8-.3a1 1 0 0 1-.4-.8q0-.5.4-.8.3-.3.7-.3.5 0 .8.3t.3.8-.3.8zm3.1 9.8v-8.2h1.7v1.4l-.2-.2h.3q.4-.7 1.1-1.1a3 3 0 0 1 1.6-.4q1.5 0 2.3.8t.8 2.3v5.4H383v-5q0-1-.5-1.5t-1.4-.5-1.5.7-.6 1.6v4.7zm13.3 3.8-1.5-.3-1.2-.5-.8-1-.3-.4 1.3-.8.3.3q.2.4.5.6l.8.4q.4.2.9.2 1.2 0 1.8-.7t.6-2v-.9l-1.1 1q-.7.4-1.6.4-1.7 0-2.8-1.2t-1-3.1 1-3.1 2.8-1.2q.9 0 1.6.4t1.1 1h.5l-.4.4v-1.5h1.7v7.8q0 2-1.1 3-1.2 1.2-3.1 1.2m0-5.2q1.1 0 1.8-.8t.7-2-.7-2-1.8-.8-1.7.7-.7 2q0 1.4.7 2.1t1.7.8m9.3 1.7q-.9 0-1.5-.2l-1.1-.6-.8-.9-.2-.4 1.3-.8.2.3q.2.4.5.6.3.3.7.4l1 .1q.7 0 1.1-.2a1 1 0 0 0 .5-.8 1 1 0 0 0-.4-.8l-1.6-.5q-1.6-.4-2.3-1t-.7-1.6 1-1.7 2.2-.7l1.3.1 1 .5q.5.3.7.7l.3.3-1.3.8-.2-.2-.5-.4-.6-.3h-.7q-.7 0-1.1.2t-.4.6.3.7 1.7.6q1.6.4 2.3 1t.7 1.6q0 1.1-1 1.9t-2.4.7m11.6 0q-1.5 0-2.3-.9t-.8-2.3v-5.3h1.8v5q0 1 .5 1.5t1.3.5q1 0 1.5-.7.7-.6.7-1.6v-4.7h1.7v8.2h-1.6v-2l.8.9h-.9q-.4.6-1 1-.8.4-1.7.4m6.6 3.2v-11.7h1.7v1.6l-.4-.5h.4q.4-.6 1.2-1l1.7-.4q1.6 0 2.8 1.2 1 1.2 1 3.2t-1 3.1q-1.2 1.3-2.8 1.3l-1.7-.4q-.7-.4-1-1h-.1v4.6zm4.2-4.7q1 0 1.8-.9t.7-2-.7-2-1.8-.9q-1 0-1.8.8-.7.8-.7 2 0 1.3.7 2.1t1.8.9M256 338.4v-10h1.3v10zm3-6.2V331h4.4v1.1zm1.3 6.2V330q0-1 .6-1.6t1.6-.6h.6q.3 0 .5.2h.2l-.2 1.1h-.1l-.4-.1h-.5q-.5 0-.8.2t-.3.9v8zm10.6.2q-.9 0-1.4-.5-.6-.6-.6-1.5V329h1.3v7.2q0 .6.2.9.3.2.8.2h.2l.4-.1.3-.1.1 1-.2.2-.5.1zm-3.2-6.4V331h4.4v1.1zm6 6.2V328h1.3v4q.4-.6 1-1t1.5-.4q1.3 0 2 .8t.6 2v4.8h-1.2v-4.6q0-.9-.5-1.4t-1.3-.4a2 2 0 0 0-1.5.6 2 2 0 0 0-.6 1.6v4.2zm11.6.2q-1.6 0-2.6-1-1-1.2-1-2.9t1-2.7 2.6-1.2 2.5 1 1 2.4v.8h-6.4v-1h5q0-.9-.6-1.4-.5-.6-1.5-.6t-1.7.7-.7 2 .7 2 1.8.8q.5 0 .9-.2l.6-.3.7-.7 1 .6q-.4.7-.9 1l-1 .5q-.6.2-1.4.2m10.7 0q-1.2 0-2-.7-.7-.6-.7-1.8t.8-1.8 2.2-.7q.7 0 1.2.2.6.1 1 .4v-.5q0-.8-.6-1.3t-1.4-.4h-.8l-.5.3-.5.4-.2.2-.9-.7.3-.3.7-.5q.3-.3.8-.4t1.2-.2q1.4 0 2.3.8t.8 2.1v4.7h-1.2v-1.6l.3.6h-.3q-.4.5-1 .8t-1.5.4m.2-1q1 0 1.6-.7t.7-1.6l-.9-.5-1-.2q-1 0-1.5.4t-.5 1.1q0 .6.4 1t1.2.4m5.5.9V331h1.2v1.3l-.2-.3h.2q.4-.5 1-.9a3 3 0 0 1 1.5-.4q1.3 0 2 .8t.7 2v4.8h-1.3v-4.6q0-.9-.4-1.3t-1.4-.5-1.5.6-.6 1.6v4.2zm10.8.2q-.7 0-1.3-.2l-1-.5-.6-.8-.2-.4 1-.5.3.3q.1.3.4.5l.6.4.8.1q.7 0 1.2-.3a1 1 0 0 0 .4-.8l-.4-.7q-.3-.3-1.4-.5-1.4-.3-2-.9-.6-.5-.6-1.4t.8-1.5 2-.6l1 .2q.5.1.9.4l.5.6.2.3-1 .6-.1-.3-.4-.3-.5-.3h-.7q-.6 0-1 .2t-.4.7l.2.6q.3.3 1.6.6t2 .9.6 1.3q0 1-.9 1.7t-2 .6m5.8-.2-2.3-7.3h1.3l1.5 5 .2.7.3-.7 1.5-5h1.3l1.5 5 .3.7.2-.7 1.5-5h1.2l-2.3 7.3h-1.2l-1.7-5-.2-.8-.2.7-1.6 5zm12.7.2q-1.6 0-2.6-1-1-1.2-1-2.9t1-2.7 2.6-1.2 2.5 1 1 2.4v.8h-6.4v-1h5q0-.9-.6-1.4-.6-.6-1.5-.6t-1.7.7-.7 2 .7 2 1.8.8q.5 0 .8-.2l.7-.3.7-.7 1 .6q-.5.7-1 1l-1 .5q-.5.2-1.3.2m5-.2V331h1.3v1.3l-.2-.2h.2q.2-.6.8-1t1.3-.4h.4l.4.2h.2l-.2 1.3h-.2l-.4-.2h-.4q-.8 0-1.3.6t-.6 1.7v4zm9.1 0V331h1.3v7.3zm.7-8.8-.6-.3-.3-.6q0-.3.3-.6l.6-.2.6.2.2.6q0 .4-.2.6zm5.2 9q-.8 0-1.3-.2l-1-.5-.6-.8-.2-.4 1-.5.2.3.5.5q.2.3.6.4l.8.1q.7 0 1.1-.3a1 1 0 0 0 .5-.8l-.4-.7q-.4-.3-1.4-.5-1.4-.3-2-.9-.6-.5-.6-1.4t.8-1.5 1.9-.6q.6 0 1 .2l1 .4.5.6.2.3-1 .6-.2-.3-.4-.3-.5-.3h-.6q-.7 0-1 .2-.5.3-.5.7t.3.6 1.6.6 2 .9q.5.5.5 1.3 0 1-.8 1.7t-2 .6m4.3-.2V331h1.2v1.3l-.2-.3h.3q.3-.5 1-.9l1.4-.4q1.3 0 2 .8t.7 2v4.8h-1.3v-4.6q0-.9-.4-1.3t-1.3-.5-1.5.6-.6 1.6v4.2zm8.2-6.6v-3.6h1.1v3.6zm5.8 6.8q-1 0-1.5-.5t-.5-1.5V329h1.3v7.2q0 .6.2.9.2.2.7.2h.3l.4-.1.2-.1.2 1-.3.2-.5.1zm-3.3-6.4V331h4.4v1.1zm9.5 6.2V331h1.3v7.3zm.7-8.8-.6-.3-.3-.6q0-.3.3-.6l.6-.2q.4 0 .6.2l.2.6q0 .4-.2.6zm2.7 8.8V331h1.2v1.3l-.2-.3h.3q.3-.5 1-.9l1.4-.4q1.3 0 2 .8t.7 2v4.8H384v-4.6q0-.9-.4-1.3t-1.3-.5-1.5.6-.6 1.6v4.2zm12.2 3 1.9-4v1l-3.2-7.3h1.4l2 4.8.2.6.2-.6 2-4.8h1.4l-4.5 10.3zm10-2.8q-1.6 0-2.7-1.1-1-1.1-1-2.8t1-2.8q1.1-1 2.8-1t2.7 1q1 1.2 1 2.8t-1 2.8-2.7 1.1m0-1.2q1 0 1.8-.7.7-.8.7-2t-.7-2q-.8-.7-1.8-.7-1.1 0-1.8.8-.8.7-.8 2 0 1.1.8 1.9.7.7 1.8.7m8 1.2q-1.3 0-2-.7-.7-.8-.7-2.1V331h1.3v4.5q0 1 .4 1.4.4.5 1.3.5t1.5-.7.6-1.5V331h1.3v7.3h-1.3v-1.7l.6.6h-.6q-.3.6-1 1-.6.3-1.4.3m5.7-.2V331h1.2v1.3l-.2-.2h.2q.2-.6.8-1t1.3-.4h.4l.4.2h.2l-.1 1.3h-.2l-.5-.2h-.3q-.8 0-1.4.6t-.5 1.7v4zm12 .2q-1.4 0-2.4-1-1-1.2-1-2.9t1-2.8q1-1 2.4-1 .9 0 1.5.3.7.4 1 1v-4h1.4v10.2h-1.3v-1.4l.2.3h-.2l-1 1zm.1-1.1q1 0 1.8-.8.6-.7.6-2t-.7-2-1.7-.7a2 2 0 0 0-1.7.7q-.7.8-.7 2 0 1.3.7 2 .7.8 1.7.8m8 1.1q-1.3 0-2-.7-.8-.6-.8-1.8 0-1.1.9-1.8t2.1-.7q.7 0 1.2.2.6.1 1 .4v-.5q0-.8-.6-1.3t-1.4-.4h-.8l-.5.3-.5.4-.2.2-.9-.7.3-.3.7-.5.8-.4q.5-.2 1.2-.2 1.4 0 2.3.8t.8 2.1v4.7h-1.2v-1.6l.4.6h-.4q-.4.5-1 .8t-1.5.4m.2-1q1 0 1.6-.7t.7-1.6l-.9-.5-1-.2q-1 0-1.5.4t-.5 1.1q0 .6.5 1t1.1.4m8 1.1q-1 0-1.5-.5t-.6-1.5V329h1.3v7.2q0 .6.2.9.3.2.7.2h.3l.4-.1.2-.1.2 1-.2.2-.5.1zm-3.3-6.4V331h4.5v1.1zm8.4 6.4q-1.2 0-2-.7t-.8-1.8.9-1.8 2.2-.7l1.2.2 1 .4v-.5q0-.8-.6-1.3t-1.4-.4h-.8l-.6.3-.5.4-.2.2-.9-.7.3-.3.7-.5.8-.4q.5-.2 1.2-.2 1.4 0 2.3.8t.9 2.1v4.7h-1.3v-1.6l.4.6h-.4q-.3.5-1 .8t-1.4.4m.2-1q.9 0 1.6-.7.6-.7.6-1.6l-.8-.5-1.1-.2q-1 0-1.4.4t-.6 1.1q0 .6.5 1t1.2.4m5.1 2.1.9-1.2-.5-.3-.2-.6q0-.4.3-.7l.7-.2q.4 0 .7.2t.2.7v.4l-.4.6-1 1.6zm7.5-1.2V331h1.3v7.3zm.6-8.8-.6-.3-.2-.6.2-.6.6-.2q.4 0 .7.2l.2.6q0 .4-.2.6zm5.4 9q-1 0-1.5-.5t-.5-1.5V329h1.3v7.2q0 .6.2.9.2.2.7.2h.3l.4-.1.2-.1.2 1-.2.2-.5.1zm-3.3-6.4V331h4.4v1.1zm12 6.4q-.8 0-1.3-.2l-1-.5-.6-.8-.2-.4 1-.5.2.3.5.5.6.4.8.1q.7 0 1.2-.3a1 1 0 0 0 .4-.8l-.4-.7q-.4-.3-1.4-.5-1.4-.3-2-.9-.6-.5-.6-1.4t.8-1.5 1.9-.6q.6 0 1 .2.6.1 1 .4l.5.6.2.3-1 .6-.1-.3-.4-.3-.6-.3h-.6q-.7 0-1 .2-.5.3-.5.7t.3.6 1.6.6 2 .9q.5.5.5 1.3 0 1-.8 1.7t-2 .6m6.6 0q-1.2 0-2-.7-.7-.6-.7-1.8t.8-1.8 2.2-.7l1.2.2 1 .4v-.5q0-.8-.6-1.3t-1.4-.4h-.8l-.6.3-.5.4-.2.2-.8-.7.2-.3.7-.5q.4-.3.9-.4t1.1-.2q1.4 0 2.3.8t.9 2.1v4.7h-1.3v-1.6l.4.6h-.4q-.3.5-1 .8t-1.4.4m.2-1q1 0 1.6-.7t.6-1.6l-.8-.5-1.1-.2q-.9 0-1.4.4t-.5 1.1q0 .6.4 1t1.2.4m5.7 4 1.8-4v.9l-3.2-7.3h1.4l2 4.8.2.6.3-.6 2-4.8h1.3l-4.5 10.3zm9.3-2.9q-.7 0-1.3-.2l-1-.5-.6-.8-.2-.4 1-.5.2.3.5.5.6.4.8.1q.7 0 1.2-.3a1 1 0 0 0 .4-.8l-.4-.7q-.3-.3-1.4-.5-1.4-.3-2-.9-.6-.5-.6-1.4t.8-1.5 2-.6l1 .2q.5.1.9.4t.5.6l.2.3-1 .6-.1-.3-.4-.3-.5-.3h-.7q-.7 0-1 .2-.5.3-.5.7t.3.6 1.6.6 2 .9q.5.5.5 1.3 0 1-.8 1.7t-2 .6m10.2 0q-.7 0-1.3-.2l-1-.5-.5-.8-.2-.4 1-.5.2.3.4.5q.3.3.7.4t.8.1q.7 0 1.1-.3a1 1 0 0 0 .4-.8l-.3-.7q-.4-.3-1.4-.5-1.5-.3-2-.9-.6-.5-.6-1.4t.7-1.5 2-.6q.6 0 1 .2.5.1.9.4t.6.6l.2.3-1 .6-.2-.3-.4-.3-.5-.3h-.7q-.6 0-1 .2t-.4.7.3.6 1.5.6 2 .9.6 1.3q0 1-.8 1.7t-2 .6m7.6 0q-1.6 0-2.7-1.1-1-1.1-1-2.8t1-2.8q1-1 2.7-1t2.8 1 1 2.8q0 1.7-1 2.8t-2.8 1.1m0-1.2q1.1 0 1.9-.7.7-.8.7-2t-.8-2q-.7-.7-1.8-.7-1 0-1.8.8-.7.7-.7 2 0 1.1.7 1.9t1.8.7m11.1 1.2q-1.2 0-2-.7-.7-.6-.7-1.8t.8-1.8q.9-.7 2.2-.7.7 0 1.2.2.6.1 1 .4v-.5q0-.8-.6-1.3t-1.4-.4h-.8l-.5.3-.5.4-.3.2-.8-.7.3-.3.7-.5q.3-.3.8-.4t1.2-.2q1.4 0 2.3.8t.8 2.1v4.7H529v-1.6l.3.6h-.4q-.3.5-1 .8t-1.4.4m.2-1q1 0 1.6-.7t.7-1.6l-.9-.5-1-.2q-1 0-1.5.4t-.5 1.1q0 .6.4 1t1.2.4m5.5.9V331h1.2v1.3l-.2-.3h.2q.4-.5 1-.9a3 3 0 0 1 1.5-.4q1.3 0 2 .8t.7 2v4.8H537v-4.6q0-.9-.5-1.3t-1.3-.5-1.5.6-.6 1.6v4.2zm11.4.2q-1.5 0-2.5-1-1-1.2-1-2.9t1-2.8q1-1 2.4-1 .9 0 1.6.3.6.4 1 1v-4h1.3v10.2H546v-1.4l.1.3h-.2l-1 1zm.2-1.1q1 0 1.7-.8.7-.7.7-2t-.7-2-1.7-.7a2 2 0 0 0-1.8.7q-.6.8-.6 2 0 1.3.6 2 .7.8 1.8.8m9 .9V328h1.3v4q.4-.6 1-1t1.5-.4q1.2 0 2 .8t.6 2v4.8H558v-4.6q0-.9-.5-1.4t-1.3-.4-1.5.6a2 2 0 0 0-.6 1.6v4.2zm10.6.2q-1.2 0-2-.7-.7-.6-.7-1.8t.8-1.8q.9-.7 2.2-.7.7 0 1.2.2.6.1 1 .4v-.5q0-.8-.6-1.3t-1.4-.4h-.8l-.5.3-.5.4-.2.2-.9-.7.3-.3.7-.5.8-.4q.5-.2 1.2-.2 1.4 0 2.3.8t.8 2.1v4.7h-1.2v-1.6l.3.6h-.3q-.4.5-1 .8t-1.5.4m.2-1q1 0 1.6-.7t.7-1.6l-.9-.5-1-.2q-1 0-1.5.4t-.5 1.1q0 .6.5 1t1.1.4m5.5.9V331h1.2v1.3l-.2-.3h.2q.4-.5 1-.9a3 3 0 0 1 1.5-.4q1.3 0 2 .8t.7 2v4.8H574v-4.6q0-.9-.4-1.3t-1.4-.5-1.5.6-.6 1.6v4.2zm11.4.2q-1.5 0-2.5-1-1-1.2-1-2.9t1-2.8q1-1 2.4-1 .9 0 1.6.3.6.4 1 1v-4h1.3v10.2H583v-1.4l.2.3h-.3l-1 1zm.2-1.1q1 0 1.7-.8.7-.7.7-2t-.7-2-1.7-.7a2 2 0 0 0-1.7.7q-.7.8-.7 2 0 1.3.7 2 .6.8 1.7.8m8.1 1.1q-.7 0-1.3-.2l-1-.5-.6-.8-.2-.4 1-.5.3.3q.1.3.4.5l.6.4.8.1q.8 0 1.2-.3a1 1 0 0 0 .4-.8l-.4-.7q-.3-.3-1.4-.5-1.4-.3-2-.9-.6-.5-.6-1.4t.8-1.5 2-.6l1 .2q.5.1.9.4l.6.6.1.3-1 .6-.1-.3-.4-.3-.5-.3h-.7q-.6 0-1 .2t-.4.7l.2.6q.3.3 1.6.6t2 .9.6 1.3q0 1-.9 1.7t-2 .6m11.1 0q-1.6 0-2.7-1.1-1-1.1-1-2.8t1-2.8q1-1 2.7-1t2.8 1 1 2.8-1 2.8q-1 1.1-2.8 1.1m0-1.2q1.1 0 1.8-.7.8-.8.8-2t-.8-2q-.7-.7-1.8-.7-1 0-1.8.8-.7.7-.7 2 0 1.1.7 1.9t1.8.7m6 1V330q0-1 .6-1.6t1.6-.6h.6q.3 0 .5.2h.2l-.2 1.1h-.2l-.4-.1h-.4q-.5 0-.8.2t-.3.9v8zm4.7 0V330q0-1 .6-1.6t1.7-.6h.6l.4.2h.3l-.2 1.1h-.2l-.4-.1h-.4q-.5 0-.8.2t-.3.9v8zm-6.1-6.2V331h2v1.1zm6.7 0V331h2.5v1.1zm-4.7 0V331h4.7v1.1zM258 358.5q-.9 0-1.4-.5-.6-.6-.6-1.5V349h1.3v7.2q0 .6.3.9.2.2.7.2h.2l.4-.1.3-.1.2 1-.3.2-.5.1zm-3.2-6.4V351h4.4v1.1zm9.4 6.4q-1.7 0-2.7-1.1t-1.1-2.8 1-2.8q1.2-1 2.8-1 1.7 0 2.8 1 1 1.2 1 2.8t-1 2.8q-1.1 1.1-2.8 1.1m0-1.2q1.1 0 1.8-.7.7-.8.7-2t-.7-2q-.7-.7-1.8-.7-1 0-1.8.8-.7.7-.7 2 0 1.1.7 1.9t1.8.7m9.3 4 1.8-4v1l-3.1-7.3h1.3l2 4.8.2.6.3-.6 2-4.8h1.3l-4.5 10.3zm10-2.8q-1.7 0-2.7-1.1t-1.1-2.8 1-2.8q1.2-1 2.8-1 1.7 0 2.8 1 1 1.2 1 2.8t-1 2.8-2.8 1.1m0-1.2q1.1 0 1.8-.7.7-.8.7-2t-.7-2q-.7-.7-1.8-.7-1 0-1.8.8-.7.7-.7 2 0 1.1.7 1.9t1.8.7m8 1.2q-1.3 0-2-.7-.7-.8-.7-2.1V351h1.3v4.5q0 1 .5 1.4.4.5 1.3.5t1.4-.7.6-1.5V351h1.3v7.3H294v-1.7l.6.6h-.7q-.3.6-1 1zm5.7-.2V351h1.2v1.3l-.1-.2h.2q.2-.6.8-1t1.2-.4h.5l.4.2h.2l-.2 1.3h-.2l-.4-.2h-.4q-.8 0-1.3.6t-.6 1.7v4zm11.7.2q-1 0-1.5-.5t-.5-1.5V349h1.2v7.2q0 .6.3.9.2.2.7.2h.3l.4-.1.2-.1.2 1-.3.2-.5.1zm-3.3-6.4V351h4.4v1.1zm9.3 6.4q-1.6 0-2.7-1-1-1.2-1-2.9t1-2.7 2.6-1.2 2.6 1 1 2.4v.8H312v-1h5.1q0-.9-.6-1.4-.6-.6-1.6-.6t-1.6.7-.7 2 .7 2 1.8.8q.5 0 .8-.2l.7-.3.7-.7 1 .6q-.5.7-1 1l-1 .5q-.5.2-1.3.2m7.3 0q-1.2 0-2-.7-.7-.6-.7-1.8t.8-1.8 2.2-.7l1.2.2 1 .4v-.5q0-.8-.6-1.3t-1.4-.4h-.8l-.6.3-.5.4-.2.2-.8-.7.2-.3.7-.5q.4-.3.9-.4t1.1-.2q1.4 0 2.3.8t.9 2.1v4.7h-1.3v-1.6l.4.6h-.4q-.3.5-1 .8t-1.4.4m.2-1q1 0 1.6-.7t.6-1.6l-.8-.5-1.1-.2q-.9 0-1.4.4t-.5 1.1q0 .6.4 1t1.2.4m5.4.9V351h1.2v1.2-.2q.4-.5 1-.9l1.4-.4q.9 0 1.5.4t.8 1.1q.4-.7 1-1a3 3 0 0 1 1.6-.5q1.2 0 1.8.8t.7 2v4.8h-1.3v-4.6q0-1-.4-1.4t-1.2-.4-1.4.6-.6 1.6v4.2h-1.2v-4.6q0-1-.5-1.4t-1.2-.4-1.3.6a2 2 0 0 0-.6 1.6v4.2zm13.8 0-.7-.2-.3-.7q0-.4.3-.7l.7-.3q.4 0 .7.3l.3.7-.3.7zm6.5-.1v-10h1.5l5.1 7.8v-7.8h1.3v10h-1.3l-5.3-8.1v8.1zm13.5.2q-1.7 0-2.7-1.1t-1.1-2.8 1-2.8q1.2-1 2.8-1 1.7 0 2.8 1 1 1.2 1 2.8t-1 2.8-2.8 1.1m0-1.2q1.1 0 1.8-.7t.8-2-.8-2-1.8-.7-1.8.8-.7 2q0 1.1.7 1.9t1.8.7m8.8 1V348h1.3v4q.4-.6 1-1t1.5-.4q1.3 0 2 .8t.7 2v4.8h-1.3v-4.6q0-.9-.5-1.4t-1.3-.4-1.5.6a2 2 0 0 0-.6 1.6v4.2zm10.6.2q-1.1 0-2-.7-.7-.6-.7-1.8t.9-1.8 2.1-.7q.7 0 1.3.2.5.1.9.4v-.5q0-.8-.6-1.3t-1.4-.4h-.7l-.6.3-.5.4-.2.2-.9-.7.3-.3.7-.5.8-.4q.5-.2 1.2-.2 1.4 0 2.3.8t.8 2.1v4.7h-1.2v-1.6l.4.6h-.4q-.4.5-1 .8t-1.5.4m.3-1q.9 0 1.5-.7t.7-1.6l-.9-.5-1-.2q-1 0-1.4.4-.6.4-.6 1.1 0 .6.5 1t1.2.4m5.4.9V348h1.3v10.2zm3.3 0V348h1.3v10.2zm5.9.2q-1.3 0-2-.7-.7-.8-.7-2.1V351h1.3v4.5q0 1 .4 1.4.5.5 1.3.5t1.5-.7.6-1.5V351h1.3v7.3h-1.3v-1.7l.6.6h-.6q-.3.6-1 1zm9 0q-1.7 0-2.7-1.1t-1-2.8 1-2.8 2.7-1l1.1.1 1 .5.9 1-1 .7-.6-.7-.6-.4h-.8q-1 0-1.8.7-.7.7-.7 1.9t.7 2a2 2 0 0 0 1.8.7h.8l.6-.4.7-.8 1 .7q-.5.7-1 1l-1 .5zm4.5-.2V351h1.3v7.3zm.7-8.8-.6-.3-.3-.6q0-.3.3-.6l.6-.2q.4 0 .6.2l.2.6q0 .4-.2.6zm2.7 8.8V351h1.2v1.3l-.2-.3h.3q.3-.5 1-.9l1.4-.4q1.3 0 2 .8t.7 2v4.8H418v-4.6q0-.9-.4-1.3t-1.3-.5-1.5.6-.6 1.6v4.2zm10.6.2q-1.2 0-2-.7-.7-.6-.7-1.8t.8-1.8 2.2-.7q.7 0 1.2.2.6.1 1 .4v-.5q0-.8-.6-1.3t-1.4-.4h-.8q-.4 0-.5.3l-.5.4-.3.2-.8-.7.3-.3.7-.5q.3-.3.8-.4t1.2-.2q1.4 0 2.3.8t.8 2.1v4.7H426v-1.6l.3.6h-.4q-.3.5-1 .8t-1.4.4m.2-1q1 0 1.6-.7t.7-1.6l-.9-.5-1-.2q-1 0-1.5.4t-.5 1.1q0 .6.4 1t1.2.4m7.9 1.1q-1 0-1.5-.5t-.5-1.5V349h1.3v7.2q0 .6.2.9.2.2.7.2h.3l.4-.1.2-.1.2 1-.2.2-.5.1zm-3.3-6.4v-1h4.5v1.1zm9.4 6.4q-1.7 0-2.7-1-1-1.2-1-2.9t1-2.7 2.6-1.2 2.5 1 1 2.4v.8h-6.4v-1h5q0-.9-.6-1.4-.5-.6-1.5-.6t-1.7.7-.7 2 .7 2 1.8.8q.5 0 .9-.2l.6-.3.7-.7 1 .6q-.4.7-.9 1l-1 .5q-.5.2-1.3.2m8 0q-1.5 0-2.5-1-1-1.2-1-2.9t1-2.8q1-1 2.5-1 .8 0 1.5.3.7.4 1 1v-4h1.4v10.2h-1.3v-1.4l.2.3h-.2l-1 1a3 3 0 0 1-1.6.3m.2-1.1a2 2 0 0 0 1.7-.8q.7-.7.7-2t-.7-2-1.7-.7a2 2 0 0 0-1.7.7q-.7.8-.7 2 0 1.3.7 2 .7.8 1.7.8m9 4V351h1.3v1.5l-.3-.4h.4l1-1a3 3 0 0 1 1.5-.4q1.5 0 2.5 1.1 1 1 1 2.8t-1 2.8q-1 1.1-2.5 1.1-.8 0-1.5-.4-.7-.3-1-.9v4.1zm3.7-4q1 0 1.7-.8t.7-2-.7-2a2 2 0 0 0-1.7-.7q-1 0-1.7.7-.7.8-.7 2t.7 2 1.7.8m8.7 1.1q-1.7 0-2.8-1.1t-1-2.8 1-2.8q1.1-1 2.8-1t2.7 1q1 1.2 1 2.8t-1 2.8-2.7 1.1m0-1.2q1 0 1.8-.7.7-.8.7-2t-.7-2q-.8-.7-1.8-.7-1.1 0-1.9.8-.7.7-.7 2 0 1.1.7 1.9t1.9.7m5.4 1V348h1.2v10.2zm3.3 0V351h1.3v7.3zm.7-8.8-.6-.3-.3-.6q0-.3.3-.6l.6-.2.6.2.2.6-.2.6zm6 9q-1.7 0-2.7-1.1t-1-2.8 1-2.8 2.7-1l1.1.1 1 .5.9 1-1 .7-.6-.7-.7-.4h-.7q-1 0-1.8.7-.7.7-.7 1.9t.7 2a2 2 0 0 0 1.8.7h.8l.6-.4.7-.8 1 .7q-.5.7-1 1l-1 .5zm4.5-.2V351h1.3v7.3zm.7-8.8-.6-.3-.3-.6q0-.3.3-.6l.6-.2q.4 0 .6.2l.2.6-.2.6zm6 9q-1.7 0-2.7-1-1-1.2-1-2.9t1-2.7 2.6-1.2 2.5 1 1 2.4v.8h-6.4v-1h5q0-.9-.5-1.4-.6-.6-1.6-.6t-1.7.7q-.6.8-.6 2 0 1.3.7 2 .7.8 1.7.8.5 0 .9-.2l.7-.3.6-.7 1 .6q-.4.7-.9 1l-1 .5q-.5.2-1.3.2m7.5 0q-.8 0-1.3-.2l-1-.5-.6-.8-.2-.4 1-.5.2.3.5.5q.2.3.6.4t.8.1q.7 0 1.1-.3a1 1 0 0 0 .5-.8l-.4-.7q-.4-.3-1.4-.5-1.4-.3-2-.9-.6-.5-.6-1.4t.8-1.5 1.9-.6q.6 0 1 .2l1 .4.5.6.2.3-1 .6-.2-.3-.4-.3-.5-.3h-.6q-.7 0-1 .2-.5.3-.5.7t.3.6 1.6.6 2 .9q.5.5.5 1.3 0 1-.8 1.7t-2 .6m5.1-.1a1 1 0 0 1-1-1q0-.4.3-.7l.7-.3q.5 0 .8.3l.2.7-.2.7z"/><g filter="url(#k)"><mask id="m" width="87" height="87" x="157" y="284" maskUnits="userSpaceOnUse" style="mask-type:alpha"><rect width="85.949" height="85.949" x="157.818" y="284.595" fill="url(#l)" rx="4"/></mask><g mask="url(#m)"><path fill="url(#n)" d="M202.7 360.2a4 4 0 0 1-3.8 0l-26.5-14.6a4 4 0 0 1-2-3.5v-29a4 4 0 0 1 2-3.5l26.5-14.7a4 4 0 0 1 3.8 0l26.5 14.7a4 4 0 0 1 2 3.5v29a4 4 0 0 1-2 3.5zm-14.9-42c1.7 1 3.8.6 5.4-.6l2-1.3a12 12 0 0 1 5.6-1.3q3 0 5.6 1.3l2 1.3c1.6 1.2 3.7 1.6 5.4.7l5.5-3a4 4 0 0 0 0-7l-16.6-9.3a4 4 0 0 0-3.9 0l-16.5 9.2a4 4 0 0 0 0 7zm5.3 34.7a4 4 0 0 0 5.9-3.5v-6c0-2-1.4-3.5-3.2-4.3q-2.5-1.2-4.5-3.4-3-3.5-3-8.1 0-1.2.2-2.3.3-2.1-1.4-3.2l-7.2-4a4 4 0 0 0-6 3.4V340a4 4 0 0 0 2 3.5zm14-19q2.6-2.5 2.6-6.3t-2.5-6.4-6.4-2.6-6.4 2.6-2.6 6.4 2.6 6.3 6.4 2.6 6.4-2.6m-4.6 15.5c0 3 3.3 5 6 3.5l17-9.5a4 4 0 0 0 2-3.5v-18.4c0-3-3.2-5-5.9-3.5l-7.2 4q-1.7 1.2-1.4 3.3.2 1 .2 2.3 0 4.6-3 8.1-2 2.2-4.5 3.4c-1.8.8-3.2 2.4-3.2 4.3z"/></g></g></g><g filter="url(#o)"><rect width="547.926" height="102.065" x="146" y="550" fill="url(#p)" rx="13"/><path fill="#000" d="M255.8 581.8v-11.4h1.8v9.7h5v1.7zm8.4 0v-8.2h1.8v8.2zm1-9.8q-.5 0-.8-.3a1 1 0 0 1-.4-.8q0-.5.4-.8.3-.3.7-.3.5 0 .8.3t.3.8-.3.8zm5.5 9.8-3.3-8.2h1.9l2 5.6.3.7.3-.7 2.1-5.6h1.9l-3.4 8.2zm9.7.3q-1.9 0-3-1.3t-1.3-3.1 1.2-3.2 3-1.2 2.9 1 1.1 2.8v1H277v-1.2h5.5q0-1-.7-1.5t-1.6-.6q-1 0-1.8.8-.6.7-.6 2t.7 2.2 2 .8l.8-.1.7-.4.8-.8 1.2.8q-.5.8-1 1.2l-1.2.6q-.6.2-1.5.2m9.4-.3v-8.2h1.8v8.2zm.9-9.8q-.5 0-.8-.3l-.3-.8q0-.5.3-.8t.8-.3.8.3.3.8-.3.8zm3 9.8v-8.2h1.8v1.4l-.2-.2h.2q.4-.7 1.2-1.1a3 3 0 0 1 1.6-.4q1.4 0 2.2.8t.8 2.3v5.4h-1.8v-5q0-1-.4-1.5t-1.4-.5-1.5.7-.6 1.6v4.7zm16.4.3q-1.5 0-2.3-.9t-.8-2.3v-5.3h1.8v5q0 1 .4 1.5t1.4.5 1.5-.7.6-1.6v-4.7h1.8v8.2h-1.7v-2l.8.9h-.8q-.4.6-1.1 1t-1.6.4m6.5-.3v-8.2h1.7v1.4l-.2-.2h.3q.4-.7 1.1-1.1a3 3 0 0 1 1.6-.4q1.5 0 2.3.8t.8 2.3v5.4h-1.8v-5q0-1-.5-1.5t-1.4-.5-1.5.7-.6 1.6v4.7zm13 .3q-1.7 0-2.8-1.2-1.1-1.3-1.1-3.2t1.1-3.2 2.8-1.2q1 0 1.7.4t1 1h.1v-4.4h1.8v11.5h-1.7v-1.4l.2.3h-.3q-.4.6-1.1 1zm.4-1.5q1 0 1.8-.8t.7-2.1-.7-2q-.8-.9-1.8-.9a2 2 0 0 0-1.8.8q-.7.8-.7 2 0 1.4.7 2.2t1.8.8m10 1.5q-1.8 0-3-1.3-1.2-1.2-1.2-3.1t1.2-3.2 3-1.2 2.9 1 1.1 2.8v1h-7.2v-1.2h5.5q0-1-.7-1.5t-1.6-.6q-1 0-1.8.8-.6.7-.6 2t.7 2.2 2 .8l.8-.1.7-.4.8-.8 1.2.8q-.5.8-1 1.2l-1.2.6q-.6.2-1.5.2m5.6-.3v-8.2h1.6v1.5l-.2-.3h.3q.2-.6.9-1l1.4-.5 1 .1.1.1v1.7h-.3l-.5-.2h-.5q-.9 0-1.5.6t-.6 1.8v4.4zm12.7.3q-1.3 0-2.2-.8-.8-.7-.8-2t1-2 2.5-.8l1.2.2q.7.1 1 .4v-.5q0-.9-.5-1.4t-1.5-.5l-1 .1-.6.3-.5.5-.2.2-1.1-1 .3-.3.8-.6 1-.5 1.4-.1q1.7 0 2.7.9t1 2.4v5.2H361V580l.5.7h-.6q-.3.6-1 1a3 3 0 0 1-1.7.4m.4-1.4a2 2 0 0 0 1.7-.7q.7-.7.7-1.7l-1-.4-1-.2q-1 0-1.5.4t-.6 1.2q0 .6.5 1t1.2.4m6.1 1.1v-8.2h1.7v1.4l-.2-.2h.3q.4-.7 1.1-1.1a3 3 0 0 1 1.6-.4q1.5 0 2.3.8t.8 2.3v5.4h-1.8v-5q0-1-.5-1.5t-1.4-.5-1.5.7-.6 1.6v4.7zm16.8.3q-1 0-1.7-.3l-1.3-1-.7-1.1-.2-.7 1.6-.5.1.4.5.7q.3.4.7.6t1 .2q1 0 1.6-.6t.6-1.6-.6-1.6-1.6-.6l-1 .2q-.4.2-.9.8l-1.6-.7.7-6h6v1.7h-4.6l-.4 3.2 1-.5 1.2-.2q1.6 0 2.6 1t1 2.7-1.1 2.8-2.9 1m10 0q-2.1 0-3.3-1.6-1.3-1.6-1.3-4.3t1.3-4.3q1.2-1.7 3.2-1.7 2.1 0 3.4 1.7t1.2 4.3-1.2 4.3-3.4 1.7m0-1.7q1.4 0 2-1.2.8-1.1.8-3.1t-.7-3.2-2-1.1-2 1.1-.8 3.2.7 3.1 2 1.2m10.6 1.7q-2 0-3.3-1.7t-1.2-4.3 1.2-4.3q1.3-1.7 3.3-1.7 2.1 0 3.3 1.7 1.3 1.6 1.3 4.3t-1.3 4.3-3.3 1.7m0-1.7q1.4 0 2-1.2.8-1.1.8-3.1t-.7-3.2-2-1.1-2 1.1q-.8 1.2-.8 3.2t.7 3.1 2 1.2m13.1 1.7q-.8 0-1.5-.2l-1-.6-.8-.8-.3-.5 1.3-.8.2.3q.2.4.5.6l.8.4.9.1q.7 0 1.1-.2a1 1 0 0 0 .5-.8 1 1 0 0 0-.4-.8l-1.6-.5q-1.6-.4-2.3-1t-.7-1.6 1-1.7 2.2-.7l1.3.1 1 .5q.5.3.7.7l.3.3-1.3.8-.2-.2-.4-.4-.6-.3h-.8q-.7 0-1 .2-.5.3-.5.7l.3.6q.4.3 1.7.6 1.6.4 2.3 1t.7 1.6q0 1.1-1 1.9t-2.4.7m8.7 0q-2 0-3-1.3-1.3-1.2-1.3-3.1t1.2-3.2q1.2-1.2 3-1.2t2.9 1 1.1 2.8v1h-7.2v-1.2h5.5q0-1-.7-1.5t-1.6-.6q-1 0-1.8.8-.6.7-.6 2t.7 2.2 2 .8l.8-.1.7-.4.8-.8 1.2.8q-.5.8-1 1.2l-1.2.6q-.6.2-1.5.2m9.4 0q-2 0-3.1-1.3-1.2-1.2-1.2-3.1t1.2-3.2 3-1.2q.8 0 1.5.2l1.2.6 1 1.3-1.5.8q-.3-.6-.6-.8l-.7-.4-.8-.2q-1 0-1.8.8t-.8 2 .8 2.1 1.8.8l.8-.1.7-.4.7-.8 1.5.6q-.5 1-1 1.4l-1.3.7zm-177.5 30.2v-10h3.2q2.3 0 3.7 1.3t1.4 3.6-1.4 3.7-3.7 1.4zm1.3-1.3h1.8q1.8 0 2.9-1t1-2.7-1-2.9-2.9-1H257zm8.7 1.3V605h1.3v1.3l-.2-.2h.2q.2-.6.8-1t1.3-.4h.4l.4.2h.2l-.2 1.3h-.2l-.4-.2h-.4q-.8 0-1.3.6t-.6 1.7v4zm8.7.2q-1.7 0-2.8-1.1t-1-2.8 1-2.8q1.1-1 2.8-1t2.7 1q1 1.2 1 2.8t-1 2.8q-1 1.1-2.7 1.1m0-1.2q1 0 1.8-.7.7-.8.7-2t-.7-2-1.8-.7-1.9.8-.7 2q0 1.1.7 1.9.8.7 1.9.7m5.4 4V605h1.2v1.5l-.3-.4h.3l1-1a3 3 0 0 1 1.6-.4q1.5 0 2.5 1.1 1 1 1 2.8t-1 2.8q-1 1.1-2.5 1.1-.9 0-1.5-.4-.7-.3-1-.9v4.1zm3.6-4q1 0 1.7-.7t.7-2-.7-2a2 2 0 0 0-1.7-.7q-1 0-1.7.7-.7.8-.7 2t.7 2 1.7.8m8.7.9V605h1.3v7.3zm.7-8.8-.6-.3-.3-.6q0-.3.3-.6l.6-.2q.4 0 .6.2l.2.6-.2.6zm2.7 8.8V605h1.2v1.3l-.2-.3h.3q.3-.5 1-.9l1.4-.4q1.3 0 2 .8t.7 2v4.8h-1.3v-4.6q0-.9-.4-1.4t-1.3-.4-1.5.6-.6 1.6v4.2zm15.2.2q-1.7 0-2.8-1.1t-1-2.8 1-2.8q1.1-1 2.8-1t2.7 1q1 1.2 1 2.8t-1 2.8q-1 1.1-2.7 1.1m0-1.2q1 0 1.8-.7.7-.8.7-2t-.7-2-1.8-.7-1.9.8-.7 2q0 1.1.7 1.9t1.9.7m5.4 1V605h1.2v1.3l-.2-.3h.2q.4-.5 1-.9a3 3 0 0 1 1.5-.4q1.3 0 2 .8t.7 2v4.8h-1.3v-4.6q0-.9-.4-1.4t-1.4-.4-1.5.6-.6 1.6v4.2zm11.6.2q-1.7 0-2.7-1-1-1.2-1-2.9t1-2.7 2.6-1.2 2.5 1 1 2.4v.8h-6.4v-1h5q0-.9-.5-1.4-.6-.6-1.6-.6t-1.7.7-.6 2 .7 2 1.7.8q.5 0 .9-.2l.7-.3.6-.7 1 .6q-.4.7-.9 1l-1 .5q-.5.2-1.3.2m8.4-.2V602h1.3v10.2zm3.4 0V605h1.2v7.3zm.6-8.8-.6-.3-.3-.6q0-.3.3-.6l.6-.2q.4 0 .6.2l.3.6-.3.6zm2.7 8.8V605h1.2v1.3l-.1-.3h.2q.3-.5 1-.9l1.4-.4q1.3 0 2 .8.7.7.7 2v4.8H348v-4.6q0-.9-.5-1.4t-1.3-.4-1.5.6-.6 1.6v4.2zm11.6.2q-1.6 0-2.6-1-1-1.2-1-2.9t1-2.7 2.6-1.2 2.5 1 1 2.4v.8h-6.4v-1h5q0-.9-.6-1.4-.5-.6-1.5-.6t-1.7.7-.7 2 .7 2 1.8.8q.5 0 .9-.2l.6-.3.7-.7 1 .6q-.4.7-.9 1l-1 .5q-.6.2-1.4.2m11.8 0q-1.6 0-2.7-1.1-1-1.1-1-2.8t1-2.8q1-1 2.7-1t2.8 1 1 2.8-1 2.8q-1 1.1-2.8 1.1m0-1.2q1.1 0 1.9-.7.7-.8.7-2t-.8-2-1.8-.7-1.8.8-.7 2q0 1.1.7 1.9t1.8.7m4.6-5.2V605h4.5v1.1zm1.3 6.2V604q0-1 .7-1.6t1.6-.6h.6q.3 0 .5.2h.2l-.2 1.1h-.2l-.4-.1h-.4q-.5 0-.8.2t-.3.9v8zm11.4.2q-1.7 0-2.7-1.1t-1-2.8 1-2.8 2.7-1l1.1.1 1 .5.9 1-1 .7-.6-.7-.6-.4h-.8q-1 0-1.8.7-.7.7-.7 1.9t.7 2 1.8.7h.8l.6-.4.7-.8 1 .7q-.5.7-1 1l-1 .5zm7.9 0q-1.7 0-2.8-1.1t-1-2.8 1-2.8q1.1-1 2.8-1t2.7 1q1 1.2 1 2.8 0 1.7-1 2.8t-2.7 1.1m0-1.2q1 0 1.8-.7.7-.8.7-2t-.7-2-1.8-.7-1.9.8-.7 2q0 1.1.7 1.9.8.7 1.9.7m8.4 1.2q-1.5 0-2.5-1-1-1.2-1-2.9t1-2.8q1-1 2.5-1 .8 0 1.5.3.7.4 1 1v-4h1.4v10.2h-1.3v-1.4l.2.3h-.2l-1 1a3 3 0 0 1-1.6.3m.2-1.1q1 0 1.7-.8.7-.7.7-2t-.7-2-1.7-.7a2 2 0 0 0-1.7.7q-.7.8-.7 2 0 1.3.7 2 .7.8 1.7.8m9 1.1q-1.7 0-2.7-1-1-1.2-1-2.9t1-2.7 2.6-1.2 2.5 1 1 2.4v.8H406v-1h5q0-.9-.6-1.4-.6-.6-1.5-.6t-1.7.7-.7 2 .7 2 1.8.8q.5 0 .8-.2l.7-.3.7-.7 1 .6q-.5.7-1 1l-1 .5q-.5.2-1.3.2m5.9-.1a1 1 0 0 1-1-1q0-.4.3-.7l.7-.3q.4 0 .7.3l.3.7-.3.7zm6.5-.1v-10h1.8l3.3 8.2 3.4-8.3h1.7v10h-1.3v-8l-3.2 8h-1l-3.3-8v8zm14.7.2q-1.2 0-2-.7-.7-.6-.7-1.8t.8-1.8q.9-.7 2.2-.7l1.2.2q.6.1 1 .4v-.5q0-.8-.6-1.3t-1.4-.4h-.8l-.5.3-.5.4-.3.2-.8-.7.3-.3.6-.5q.4-.3.9-.4t1.2-.2q1.4 0 2.2.8 1 .8 1 2.1v4.7h-1.3v-1.6l.3.6h-.4q-.3.5-1 .8t-1.4.4m.2-1q1 0 1.6-.7t.7-1.6l-.9-.5-1-.2q-1 0-1.5.4t-.5 1.1q0 .6.4 1t1.2.4m7.9 1.1q-1 0-1.5-.5t-.5-1.5V603h1.3v7.2q0 .6.2.9.2.2.7.2h.3l.4-.1.2-.1.2 1-.2.2-.5.1zm-3.3-6.4V605h4.4v1.1zm9.4 6.4q-1.7 0-2.7-1.1t-1-2.8 1-2.8 2.7-1l1.1.1 1 .5.9 1-1 .7-.6-.7-.7-.4h-.7q-1 0-1.8.7-.7.7-.7 1.9t.7 2a2 2 0 0 0 1.8.7h.8l.6-.4.7-.8 1 .7q-.5.7-1 1l-1 .5zm4.5-.2V602h1.3v4q.3-.6 1-1t1.4-.4q1.3 0 2 .8t.7 2v4.8h-1.3v-4.6q0-.9-.4-1.4t-1.3-.4a2 2 0 0 0-1.5.6 2 2 0 0 0-.6 1.6v4.2zm12.2 3 1.9-4v1l-3.2-7.3h1.3l2 4.8.3.6.2-.6 2-4.8h1.3l-4.5 10.3zm10-2.8q-1.7 0-2.7-1.1t-1-2.8 1-2.8q1-1 2.7-1t2.8 1 1 2.8-1 2.8q-1 1.1-2.8 1.1m0-1.2q1.1 0 1.8-.7.8-.8.8-2t-.8-2-1.8-.7-1.8.8q-.7.7-.7 2 0 1.1.7 1.9t1.8.7m8 1.2q-1.3 0-2-.7-.6-.8-.6-2.1V605h1.2v4.5q0 1 .5 1.4.4.5 1.3.5t1.4-.7.6-1.5V605h1.3v7.3h-1.2v-1.7l.6.6h-.6q-.4.6-1 1zm5.7-.2V605h1.3v1.3l-.2-.2h.2q.2-.6.8-1t1.3-.4h.4l.4.2h.2l-.2 1.3h-.2l-.4-.2h-.4q-.8 0-1.3.6t-.6 1.7v4zm12.9.2-1.5-.4q-.7-.3-1-.9h-.4l.3-.3v1.4h-1.2V602h1.2v4q.4-.6 1-1a3 3 0 0 1 1.6-.4q1.5 0 2.5 1.1 1 1 1 2.8t-1 2.8-2.5 1.1m-.2-1.1q1 0 1.7-.8t.7-2-.7-2a2 2 0 0 0-1.7-.7q-1 0-1.7.7-.7.8-.7 2t.7 2a2 2 0 0 0 1.7.8m5.3.9V605h1.2v1.3l-.2-.2h.2q.2-.6.8-1a2 2 0 0 1 1.3-.4h.4l.4.2h.2l-.2 1.3h-.2l-.4-.2h-.3q-.8 0-1.4.6t-.6 1.7v4zm7.5.2q-1.2 0-2-.7-.7-.6-.7-1.8t.8-1.8q.9-.7 2.2-.7.7 0 1.2.2.6.1 1 .4v-.5q0-.8-.6-1.3t-1.4-.4h-.8q-.4 0-.5.3l-.5.4-.2.2-.9-.7.3-.3.7-.5q.3-.3.8-.4t1.2-.2q1.4 0 2.3.8t.8 2.1v4.7h-1.2v-1.6l.3.6h-.3q-.4.5-1 .8t-1.5.4m.2-1q1 0 1.6-.7t.7-1.6l-.9-.5-1-.2q-1 0-1.5.4t-.5 1.1q0 .6.5 1t1.1.4m5.5.9V605h1.2v1.3l-.2-.3h.2q.4-.5 1-.9a3 3 0 0 1 1.5-.4q1.3 0 2 .8.7.7.7 2v4.8H527v-4.6q0-.9-.4-1.4t-1.4-.4-1.5.6-.6 1.6v4.2zm11.4.2q-1.5 0-2.5-1-1-1.2-1-2.9t1-2.8q1-1 2.4-1 .9 0 1.6.3.6.4 1 1v-4h1.3v10.2h-1v-1.4l.2.3h-.3l-1 1zm.2-1.1q1 0 1.7-.8.7-.7.7-2t-.7-2-1.7-.7a2 2 0 0 0-1.7.7q-.7.8-.7 2 0 1.3.6 2 .7.8 1.8.8m12.3 1.1q-1.6 0-2.7-1.1-1-1.1-1-2.8t1-2.8 2.8-1l1 .1 1 .5q.5.3 1 1l-1 .7-.7-.7-.6-.4h-.8q-1 0-1.7.7t-.7 1.9.7 2 1.7.7h.8l.7-.4.7-.8 1 .7q-.5.7-1 1l-1 .5zm8 0q-1.8 0-2.9-1.1t-1-2.8q0-1.7 1-2.8 1.1-1 2.8-1t2.8 1q1 1.2 1 2.8 0 1.7-1 2.8-1.1 1.1-2.8 1.1m0-1.2q1 0 1.8-.7.7-.8.7-2t-.7-2-1.8-.7-1.8.8-.7 2q0 1.1.7 1.9t1.8.7m5.4 1V602h1.3v10.2zm6.7.2q-1.7 0-2.8-1.1t-1-2.8 1-2.8q1.1-1 2.8-1t2.7 1 1.1 2.8-1 2.8q-1.1 1.1-2.8 1.1m0-1.2q1 0 1.8-.7.7-.8.7-2t-.7-2-1.8-.7-1.8.8-.7 2q0 1.1.7 1.9t1.8.7m5.4 1V605h1.2v1.3l-.2-.2h.2q.2-.6.8-1t1.3-.4h.4l.4.2h.2l-.1 1.3h-.2l-.5-.2h-.3q-.8 0-1.4.6t-.5 1.7v4zm7.8.2q-.7 0-1.2-.2l-1-.5-.6-.8-.2-.4 1-.5.2.3.4.5q.3.3.7.4t.8.1q.7 0 1.1-.3a1 1 0 0 0 .4-.8l-.3-.7q-.4-.3-1.4-.5-1.5-.3-2-.9-.6-.5-.6-1.4t.7-1.5 2-.6q.6 0 1 .2.5.1.9.4l.6.6.2.3-1 .6-.2-.3-.4-.3-.5-.3h-.7q-.6 0-1 .2t-.4.7.3.6 1.5.6 2 .9.6 1.3q0 1-.8 1.7t-2 .6m10 0q-1.3 0-2-.7-.8-.6-.8-1.8t.9-1.8q.8-.7 2.1-.7.7 0 1.2.2.6.1 1 .4v-.5q0-.8-.6-1.3t-1.4-.4h-.8l-.5.3-.5.4-.2.2-.9-.7.3-.3.7-.5.8-.4q.5-.2 1.2-.2 1.4 0 2.3.8t.8 2.1v4.7h-1.2v-1.6l.4.6h-.4q-.4.5-1 .8t-1.5.4m.2-1q1 0 1.6-.7t.7-1.6l-.9-.5-1-.2q-1 0-1.5.4t-.5 1.1q0 .6.5 1t1.1.4m5.5.9V605h1.2v1.3l-.2-.3h.2q.4-.5 1-.9a3 3 0 0 1 1.5-.4q1.3 0 2 .8.7.7.7 2v4.8h-1.3v-4.6q0-.9-.4-1.4t-1.4-.4-1.4.6-.6 1.6v4.2zm11.4.2q-1.5 0-2.5-1-1-1.2-1-2.9t1-2.8q1-1 2.5-1 .8 0 1.5.3.7.4 1 1v-4h1.3v10.2h-1.2v-1.4l.2.3h-.3l-1 1zm.2-1.1a2 2 0 0 0 1.7-.8q.7-.7.7-2t-.7-2-1.7-.7a2 2 0 0 0-1.7.7q-.7.8-.7 2 0 1.3.7 2 .6.8 1.7.8m-350.8 20.9V622h1.3v10.2zm6.7.2q-1.7 0-2.8-1.1t-1-2.8 1-2.8q1.1-1 2.8-1t2.7 1 1.1 2.8-1 2.8q-1.1 1.1-2.8 1.1m0-1.2q1 0 1.8-.7.7-.8.7-2t-.7-2-1.8-.7-1.8.8-.7 2q0 1.1.7 1.9t1.8.7m8.6 4.2-1.3-.1-1-.5-.8-.8-.2-.3 1-.7.2.3.5.5q.3.3.7.4t.8.1q1.2 0 1.8-.6t.6-1.8v-1q-.4.6-1 1-.7.3-1.5.3-1.5 0-2.5-1t-1-2.8 1-2.7 2.5-1q.8 0 1.5.3.6.4 1 1h.3l-.3.3V625h1.2v7q0 1.7-1 2.6t-2.5 1m0-4.4q1 0 1.7-.8t.6-2q0-1-.6-1.8-.7-.7-1.7-.7t-1.7.7-.7 2 .7 1.9 1.7.7m9 1.3q-1.8 0-2.8-1.1t-1-2.8 1-2.8 2.7-1 2.8 1 1 2.8-1 2.8-2.8 1.1m0-1.2q1.1 0 1.8-.7.8-.8.8-2t-.8-2-1.8-.7-1.8.8q-.7.7-.7 2 0 1.1.7 1.9t1.8.7m6 1a1 1 0 0 1-1-1q0-.3.4-.6l.7-.3q.4 0 .7.3l.3.7-.3.7zm6.5-.1v-10h3.2q2.4 0 3.8 1.3t1.3 3.6-1.4 3.7-3.7 1.4zm1.3-1.3h1.9q1.8 0 2.8-1t1-2.7-1-2.9-2.8-1h-1.9zm12.2 1.5q-1.7 0-2.8-1.1t-1-2.8 1-2.8q1-1 2.8-1 1.6 0 2.7 1 1 1.2 1 2.8t-1 2.8q-1 1.1-2.7 1.1m0-1.2q1 0 1.8-.7.7-.8.7-2t-.7-2-1.8-.7-1.9.8-.7 2q0 1.1.7 1.9.8.7 1.9.7m5.3 1V625h1.3v1.3l-.2-.3h.2q.4-.5 1-.9a3 3 0 0 1 1.5-.4q1.3 0 2 .8t.7 2v4.8h-1.3v-4.6q0-.9-.5-1.4t-1.3-.4-1.5.6-.6 1.6v4.2zm11.7.2q-1.7 0-2.7-1-1-1.2-1-2.9t1-2.7 2.6-1.2 2.5 1 1 2.4v.8h-6.4v-1h5q0-.9-.5-1.4-.6-.6-1.6-.6t-1.7.7-.7 2 .8 2 1.7.8q.5 0 .9-.2l.6-.3.7-.7 1 .6q-.4.7-.9 1l-1 .5q-.5.2-1.3.2m8.3-4.1v-1H343v1zm17.2 3.9V625h1.2v1.3l-.2-.3h.3q.3-.5 1-.9l1.4-.4q1.3 0 2 .8t.7 2v4.8h-1.3v-4.6q0-.9-.4-1.4t-1.3-.4-1.5.6-.6 1.6v4.2zm11.7.2q-1.7 0-2.7-1.1t-1-2.8 1-2.8q1-1 2.7-1t2.8 1 1 2.8-1 2.8q-1 1.1-2.8 1.1m0-1.2q1.1 0 1.8-.7.8-.8.8-2t-.8-2-1.8-.7-1.8.8q-.7.7-.7 2 0 1.1.7 1.9t1.8.7m12.1 1.2q-1.6 0-2.7-1-1-1.2-1-2.9t1-2.7 2.6-1.2 2.6 1 1 2.4v.8H369v-1h5.1q0-.9-.6-1.4-.6-.6-1.6-.6t-1.7.7-.6 2 .7 2 1.8.8q.5 0 .8-.2l.7-.3.7-.7 1 .6q-.5.7-1 1l-1 .5q-.5.2-1.3.2m5-.2V625h1.2v1.3l-.1-.3h.2q.3-.5 1-.9l1.4-.4q1.3 0 2 .8t.7 2v4.8h-1.3v-4.6q0-.9-.4-1.4t-1.3-.4-1.5.6-.6 1.6v4.2zm11.5 3.2-1.2-.1-1-.5-.8-.8-.3-.3 1-.7.3.3.5.5q.3.3.7.4t.8.1q1.2 0 1.7-.6t.6-1.8v-1q-.3.6-1 1-.6.3-1.5.3-1.4 0-2.4-1t-1-2.8 1-2.7 2.5-1q.8 0 1.5.3.6.4 1 1h.3l-.3.3V625h1.2v7q0 1.7-1 2.6t-2.6 1m0-4.4q1 0 1.7-.8t.7-2q0-1-.7-1.8-.6-.7-1.6-.7t-1.7.7-.7 2 .7 1.9q.6.7 1.6.7m5.7 1V625h1.3v7.3zm.6-8.7-.6-.3-.2-.6.2-.6.6-.2q.4 0 .7.2l.2.6q0 .4-.2.6zm2.8 8.8V625h1.2v1.3l-.2-.3h.2q.4-.5 1-.9a3 3 0 0 1 1.5-.4q1.3 0 2 .8t.7 2v4.8h-1.3v-4.6q0-.9-.4-1.4t-1.4-.4-1.5.6-.6 1.6v4.2zm11.6.2q-1.7 0-2.7-1-1-1.2-1-2.9t1-2.7 2.6-1.2 2.5 1 1 2.4v.8h-6.4v-1h5q0-.9-.5-1.4-.6-.6-1.6-.6t-1.7.7-.6 2 .7 2 1.8.8l.8-.2.7-.3.6-.7 1 .6q-.4.7-.9 1l-1 .5q-.5.2-1.3.2m8.3 0q-1.7 0-2.7-1-1-1.2-1-2.9t1-2.7 2.6-1.2 2.5 1 1 2.4v.8h-6.4v-1h5q0-.9-.6-1.4-.5-.6-1.5-.6t-1.7.7-.7 2 .7 2 1.8.8q.5 0 .9-.2l.6-.3.7-.7 1 .6q-.4.7-.9 1l-1 .5q-.5.2-1.3.2m5-.2V625h1.2v1.3l-.2-.2h.2q.2-.6.8-1a2 2 0 0 1 1.3-.4h.4l.4.2h.2l-.1 1.3h-.2l-.5-.2h-.3q-.8 0-1.4.6t-.6 1.7v4zm7.8.2q-.7 0-1.3-.2l-1-.5-.5-.8-.3-.4 1.1-.5.2.3.4.5.6.4.9.1q.7 0 1-.3a1 1 0 0 0 .5-.8l-.4-.7q-.3-.3-1.3-.5-1.5-.3-2-.9-.7-.5-.7-1.4t.8-1.5 2-.6l1 .2q.5.1.9.4l.6.6.2.3-1 .6-.2-.3-.4-.3-.5-.3h-.7q-.6 0-1 .2t-.4.7.3.6 1.5.6 2 .9.6 1.3q0 1-.8 1.7t-2 .6m7.7-.2V625h1.2v1.3l-.2-.2h.2q.2-.6.8-1t1.3-.4h.4l.4.2h.2l-.1 1.3h-.2l-.5-.2h-.3q-.8 0-1.4.6t-.5 1.7v4zm8.5.2q-1.7 0-2.7-1-1-1.2-1-2.9t1-2.7 2.6-1.2 2.5 1 1 2.4v.8h-6.4v-1h5q0-.9-.5-1.4-.6-.6-1.6-.6t-1.7.7-.6 2 .7 2 1.7.8q.5 0 .9-.2l.7-.3.6-.7 1 .6q-.4.7-.9 1l-1 .5q-.5.2-1.3.2m10.6 2.8v-4q-.3.5-1 .8t-1.6.4q-1.4 0-2.5-1-1-1.2-1-2.9t1-2.8q1-1 2.6-1l1.5.3q.6.4 1 1h.3l-.3.3V625h1.3v10.3zm-2.4-4q1 0 1.8-.6.6-.8.6-2.1 0-1.2-.7-2-.6-.7-1.7-.7a2 2 0 0 0-1.7.7q-.7.8-.7 2t.7 2a2 2 0 0 0 1.7.8m8.3 1.1q-1.3 0-2-.7-.7-.8-.7-2.1V625h1.3v4.5q0 1 .4 1.4.5.5 1.3.5t1.5-.7.6-1.5V625h1.3v7.3h-1.2v-1.7l.5.6h-.6q-.3.6-1 1zm5.8-.2V625h1.2v7.3zm.6-8.8-.6-.3-.3-.6q0-.3.3-.6l.6-.2q.4 0 .6.2l.3.6q0 .4-.3.6zm2.7 8.8V625h1.2v1.3l-.1-.2h.2q.2-.6.8-1t1.2-.4h.5l.4.2h.2l-.2 1.3h-.2l-.4-.2h-.4q-.8 0-1.3.6t-.6 1.7v4zm8.5.2q-1.6 0-2.6-1-1-1.2-1-2.9t1-2.7 2.6-1.2 2.5 1 1 2.4v.8h-6.4v-1h5q0-.9-.6-1.4-.6-.6-1.5-.6t-1.7.7-.7 2 .7 2 1.8.8q.5 0 .8-.2l.7-.3.7-.7 1 .6q-.5.7-1 1l-1 .5q-.5.2-1.3.2m8.1 0q-1.5 0-2.5-1-1-1.2-1-2.9t1-2.8q1-1 2.5-1 .8 0 1.5.3.7.4 1 1v-4h1.3v10.2h-1.2v-1.4l.2.3h-.3l-1 1zm.2-1.1q1 0 1.7-.8.7-.7.7-2t-.7-2-1.7-.7a2 2 0 0 0-1.7.7q-.7.8-.7 2 0 1.3.7 2 .7.8 1.7.8m6.5 1-.7-.3-.3-.7q0-.4.3-.7l.7-.3q.4 0 .7.3l.3.7-.3.7z"/><g filter="url(#q)"><mask id="s" width="87" height="87" x="157" y="558" maskUnits="userSpaceOnUse" style="mask-type:alpha"><path fill="url(#r)" d="M157.8 558.6h86v86h-86z"/></mask><g mask="url(#s)"><path fill="url(#t)" d="M210.9 626.6q-10.5 0-17.8-7.3t-7.3-17.8q0-10.4 7.3-17.7t17.8-7.3 17.7 7.3 7.3 17.7q0 10.6-7.3 17.8t-17.7 7.3m0-3.5q8.9 0 15.2-6.3t6.2-15.2-6.2-15.3-15.3-6.2-15.2 6.2-6.2 15.3 6.2 15.2 15.2 6.3m8.9-10 2.5-2.6-9.6-9.6v-12.6h-3.5v14zm-50.4-24v-3.6h12.9v3.5zm-3.6 14.3v-3.6h16.5v3.6zm3.6 14.3V614h12.9v3.6z"/></g></g></g><g filter="url(#u)"><rect width="547.926" height="102.065" x="146" y="413" fill="url(#v)" rx="13"/><path fill="#000" d="M254.8 444.8v-11.4h4q1.7 0 2.8 1t1 2.5-1 2.5-2.9 1h-3V439h3q.9 0 1.5-.5t.6-1.5q0-.8-.6-1.4t-1.4-.5h-2.2v9.8zm6.4 0-3.5-5.2h2l3.6 5.2zm6.8.3q-1.8 0-3-1.3-1.2-1.2-1.2-3.1t1.1-3.2 3-1.2 3 1 1 2.8v1h-7.2v-1.2h5.5q0-1-.6-1.5t-1.6-.6q-1.1 0-1.8.8-.7.7-.7 2t.8 2.2 1.9.8l.9-.1.7-.4.7-.8 1.3.8q-.5.8-1 1.2l-1.2.6q-.7.2-1.6.2m5.6-.3v-8.2h1.7v1.4l-.1-.3h.2q.3-.6 1-1a3 3 0 0 1 1.6-.4q1 0 1.6.4t1 1.2a3 3 0 0 1 1.2-1.2 3 3 0 0 1 1.6-.4q1.5 0 2.2.8t.8 2.3v5.4h-1.8v-5q0-1-.4-1.5t-1.3-.5-1.4.7-.6 1.6v4.7H279v-5q0-1-.4-1.5t-1.3-.5-1.4.7-.6 1.6v4.7zm18.6.3q-2 0-3.1-1.3-1.2-1.2-1.2-3.1t1.2-3.2 3-1.2 2.9 1 1.1 2.8v1h-7.2v-1.2h5.5q0-1-.7-1.5t-1.6-.6q-1 0-1.8.8-.6.7-.6 2t.7 2.2 1.9.8l1-.1.6-.4.8-.8 1.2.8q-.5.8-1 1.2l-1.2.6q-.6.2-1.5.2m5.6-.3v-8.2h1.6v1.4l-.1-.3h.2q.4-.6 1-1a3 3 0 0 1 1.6-.4q1 0 1.6.4t1 1.2a3 3 0 0 1 1.2-1.2 3 3 0 0 1 1.7-.4q1.4 0 2.1.8t.8 2.3v5.4h-1.8v-5q0-1-.4-1.5t-1.3-.5-1.4.7-.6 1.6v4.7h-1.8v-5q0-1-.4-1.5t-1.3-.5-1.4.7-.6 1.6v4.7zm19.3.3-1.7-.4q-.7-.4-1.1-1h-.5l.4-.5v1.6h-1.7v-11.5h1.8v4.4q.5-.6 1.2-1t1.6-.4q1.7 0 2.8 1.2t1.1 3.2-1 3.1-3 1.3m-.2-1.5q1 0 1.7-.8.8-.9.8-2.1t-.8-2a2 2 0 0 0-1.7-.9q-1 0-1.8.8t-.8 2q0 1.4.8 2.2t1.8.8m9.6 1.5q-1.9 0-3-1.3-1.2-1.2-1.2-3.1t1.1-3.2 3-1.2 3 1 1 2.8v1h-7.2v-1.2h5.5q0-1-.6-1.5t-1.6-.6q-1.1 0-1.8.8-.7.7-.7 2t.8 2.2 1.9.8l.9-.1.7-.4.7-.8 1.3.8q-.5.8-1 1.2l-1.2.6q-.7.2-1.6.2m5.6-.3v-8.2h1.7v1.5l-.2-.3h.3q.2-.6.9-1l1.4-.5.9.1.2.1-.1 1.7h-.3l-.5-.2h-.4q-.9 0-1.5.6t-.6 1.8v4.4zm9.2.3q-.8 0-1.4-.2l-1.2-.6-.7-.9-.3-.4 1.3-.8.2.3q.2.4.6.6.3.3.7.4l.9.1q.7 0 1.2-.2a1 1 0 0 0 .4-.8 1 1 0 0 0-.4-.8l-1.6-.5q-1.6-.4-2.3-1t-.7-1.6 1-1.7 2.3-.7l1.2.1 1 .5q.5.3.7.7l.3.3-1.3.8-.2-.2-.4-.4-.6-.3h-.8q-.6 0-1 .2t-.5.6.4.7 1.7.6q1.6.4 2.2 1t.7 1.6q0 1.1-1 1.9t-2.4.7m11.8 0q-1 0-1.7-.7t-.7-1.8v-8.3h1.8v8q0 .6.2 1 .3.3.8.3h.3l.5-.2h.2l.1 1.4h-.2l-.6.2zm-3.8-7v-1.4h5.2v1.4zm7 6.8v-11.5h1.7v4.4l1.1-1a3 3 0 0 1 1.6-.4q1.5 0 2.3.8t.8 2.3v5.4h-1.8v-5q0-1-.5-1.5t-1.3-.5q-1 0-1.6.7a2 2 0 0 0-.6 1.7v4.6zm13.3.3q-2 0-3.1-1.3-1.2-1.2-1.2-3.1t1.2-3.2 3-1.2 2.9 1 1 2.8v1h-7.1V440h5.5q0-1-.7-1.5t-1.6-.6q-1.1 0-1.8.8-.6.7-.6 2t.7 2.2 1.9.8l1-.1.6-.4.8-.8 1.2.8q-.5.8-1 1.2l-1.2.6q-.6.2-1.5.2m13 0q-1.8 0-3-1.3-1.2-1.2-1.2-3.1t1.2-3.2 3.1-1.2q.8 0 1.4.2l1.2.6 1 1.3-1.4.8-.7-.8-.7-.4-.8-.2q-1 0-1.8.8t-.8 2 .8 2.1 1.8.8l.9-.1.7-.4.6-.8 1.5.6q-.5 1-1 1.4l-1.2.7zm9 0q-1.9 0-3.1-1.3-1.3-1.2-1.3-3.1t1.3-3.2 3.1-1.2 3.2 1.2 1.2 3.2-1.2 3.1q-1.2 1.3-3.2 1.3m0-1.6q1.2 0 1.9-.8.8-.8.8-2 0-1.3-.8-2-.8-.9-1.9-.9t-1.8.8-.8 2q0 1.3.8 2.1.7.8 1.8.8m6 1.3v-8.2h1.8v1.4l-.3-.2h.3q.4-.7 1.1-1.1a3 3 0 0 1 1.7-.4q1.4 0 2.2.8t.8 2.3v5.4h-1.8v-5q0-1-.5-1.5t-1.3-.5-1.6.7-.6 1.6v4.7zm11.7 0-3.3-8.2h1.8l2.2 5.6.2.7.3-.7 2.1-5.6h1.9l-3.4 8.2zm9.7.3q-2 0-3-1.3-1.3-1.2-1.3-3.1t1.2-3.2 3-1.2 2.9 1 1.1 2.8v1h-7.2V440h5.5q0-1-.7-1.5t-1.6-.6q-1 0-1.8.8-.6.7-.6 2t.7 2.2 2 .8l.8-.1.7-.4.8-.8 1.2.8q-.5.8-1 1.2l-1.2.6q-.6.2-1.5.2m5.6-.3v-8.2h1.7v1.5l-.3-.3h.3q.2-.6.9-1l1.4-.5 1 .1.1.1v1.7h-.3l-.5-.2h-.5q-.9 0-1.5.6t-.6 1.8v4.4zm9.2.3q-.9 0-1.5-.2l-1.1-.6-.8-.9-.2-.4 1.3-.8.2.3q.2.4.5.6.3.3.7.4l1 .1q.7 0 1.1-.2a1 1 0 0 0 .5-.8 1 1 0 0 0-.4-.8l-1.6-.5q-1.6-.4-2.3-1t-.7-1.6 1-1.7 2.2-.7l1.3.1 1 .5.7.7.2.3-1.2.8-.2-.2-.5-.4-.6-.3h-.7q-.7 0-1.1.2t-.4.6.3.7 1.7.6q1.6.4 2.3 1t.7 1.6q0 1.1-1 1.9t-2.4.7m7.4 0q-1.3 0-2.2-.8t-.8-2 1-2 2.4-.8q.7 0 1.3.2.7.1 1 .4v-.5q0-.9-.5-1.4t-1.5-.5l-1 .1-.6.3-.5.5-.2.2-1.1-1 .3-.3.8-.6 1-.5 1.4-.1q1.7 0 2.7.9t1 2.4v5.2H444V443l.5.7h-.6q-.3.6-1 1a3 3 0 0 1-1.7.4m.4-1.4q1 0 1.7-.7t.7-1.7l-1-.4-1-.2q-1 0-1.5.4t-.6 1.2q0 .6.5 1t1.2.4m9 1.4q-1 0-1.7-.7t-.7-1.8v-8.3h1.8v8q0 .6.2 1 .3.3.8.3h.3l.5-.2h.2l.1 1.4h-.2l-.6.2zm-3.8-7v-1.4h5.2v1.4zm7 6.8v-8.2h1.8v8.2zm1-9.8q-.5 0-.9-.3l-.3-.8q0-.5.3-.8.4-.3.8-.3t.8.3.3.8-.3.8-.8.3m7 10q-1.9 0-3.1-1.2t-1.3-3.1 1.3-3.2 3.1-1.2 3.2 1.2 1.2 3.2-1.2 3.1-3.2 1.3m0-1.6q1.1 0 1.9-.8t.7-2-.7-2q-.8-.9-1.9-.9t-1.9.8q-.7.8-.7 2 0 1.3.7 2.1.8.8 2 .8m6 1.3v-8.2h1.6v1.4l-.2-.2h.3q.4-.7 1.1-1.1a3 3 0 0 1 1.6-.4q1.5 0 2.3.8t.8 2.3v5.4h-1.8v-5q0-1-.5-1.5t-1.4-.5-1.5.7-.6 1.6v4.7zM255.4 473v-1.8l5-6h1.6l-4 4.8zm-.7 2.3v-10h1.3v10zm6 0-3.5-5.3.8-1 4.3 6.3zm2.8 0V468h1.2v1.3l-.1-.3h.2q.3-.5 1-.9l1.4-.4q1.3 0 2 .8.7.7.7 2v4.8h-1.2v-4.6q0-.9-.5-1.4t-1.3-.4-1.5.6-.6 1.6v4.2zm11.8.2q-1.7 0-2.8-1.1t-1-2.8 1-2.8q1.1-1 2.8-1t2.7 1q1 1.2 1 2.8t-1 2.8-2.7 1.1m0-1.2q1 0 1.8-.7.7-.8.7-2t-.7-2q-.8-.7-1.8-.7-1.1 0-1.9.8-.7.7-.7 2 0 1.1.7 1.9t1.9.7m6.6 1-2.3-7.3h1.3l1.5 5 .2.7.3-.7 1.5-5h1.3l1.5 5 .3.7.2-.7 1.5-5h1.2l-2.3 7.3H287l-1.7-5-.2-.8-.2.7-1.6 5zm12 .2q-.8 0-1.3-.2l-1-.5-.6-.8-.2-.4 1-.5.2.3.5.5q.2.3.6.4l.8.1q.7 0 1.1-.3a1 1 0 0 0 .4-.8l-.3-.7q-.4-.3-1.4-.5-1.5-.3-2-.9-.6-.5-.6-1.4t.7-1.5 2-.6q.6 0 1 .2l1 .4.5.6.2.3-1 .6-.2-.3-.4-.3-.5-.3h-.7q-.6 0-1 .2t-.4.7.3.6 1.6.6 2 .9q.5.5.5 1.3 0 1-.8 1.7t-2 .6m9.2-.2-2.3-7.3h1.3l1.4 5 .2.7.3-.7 1.6-5h1.2l1.6 5 .2.7.3-.7 1.4-5h1.3l-2.3 7.3H308l-1.6-5-.2-.8-.3.7-1.6 5zm9.7 0V465h1.2v4q.4-.6 1-1t1.5-.4q1.3 0 2 .8.7.7.7 2v4.8h-1.3v-4.6q0-.9-.4-1.4t-1.3-.4a2 2 0 0 0-1.5.6 2 2 0 0 0-.7 1.6v4.2zm10.6.2q-1.2 0-2-.7-.7-.6-.7-1.8 0-1.1.8-1.8t2.2-.7l1.2.2 1 .4v-.5q0-.8-.6-1.3t-1.4-.4h-.8l-.6.3-.5.4-.2.2-.8-.7.2-.3.7-.5q.4-.3.9-.4t1.1-.2q1.5 0 2.3.8t.9 2.1v4.7h-1.3v-1.6l.4.6h-.4q-.3.5-1 .8t-1.4.4m.2-1q1 0 1.6-.7t.6-1.6l-.8-.5-1.1-.2q-.9 0-1.4.4t-.5 1.1q0 .6.4 1t1.2.4m7.9 1.1q-1 0-1.5-.5t-.5-1.5V466h1.2v7.2q0 .6.3.9.2.2.7.2h.3l.4-.1.2-.1.2 1-.3.2-.5.1zm-3.3-6.4V468h4.4v1.1zm9.5-.4v-3.6h1v3.6zm2.2 0v-3.6h1.2v3.6zm3.2 6.6V468h1.3v7.3zm.7-8.8-.6-.3-.3-.6q0-.3.3-.6l.6-.2.6.2.2.6q0 .4-.2.6zm5.3 9q-.9 0-1.4-.5-.6-.6-.6-1.5V466h1.3v7.2q0 .6.2.9.3.2.7.2h.3l.4-.1.2-.1.2 1-.2.2-.5.1zm-3.3-6.4V468h4.5v1.1zm6.1-.4v-3.6h1.1v3.6zm2.3 0v-3.6h1.1v3.6zm8.8 6.8q-1.2 0-2-.7-.7-.6-.7-1.8t.8-1.8 2.2-.7l1.2.2q.6.1 1 .4v-.5q0-.8-.6-1.3t-1.4-.4h-.8l-.6.3-.4.4-.3.2-.8-.7.2-.3.7-.5q.4-.3.9-.4t1.1-.2q1.5 0 2.3.8.9.8.9 2.1v4.7h-1.2v-1.6l.3.6h-.4q-.3.5-1 .8t-1.4.4m.2-1q1 0 1.6-.7t.6-1.6l-.8-.5-1.1-.2q-.9 0-1.4.4t-.5 1.1q0 .6.4 1t1.2.4m5.4.9V468h1.2v1.3l-.1-.3h.2q.3-.5 1-.9l1.4-.4q1.3 0 2 .8t.7 2v4.8h-1.3v-4.6q0-.9-.4-1.3t-1.3-.5-1.5.6-.6 1.6v4.2zm11.5.2q-1.5 0-2.6-1-1-1.2-1-2.9t1-2.8q1-1 2.5-1 .8 0 1.5.3.7.4 1 1v-4h1.4v10.2h-1.3v-1.4l.2.3h-.2l-1 1zm.1-1.1q1 0 1.7-.8.7-.7.7-2t-.7-2-1.7-.7a2 2 0 0 0-1.7.7q-.7.8-.7 2 0 1.3.7 2 .7.8 1.7.8m9-5.7v-3.6h1.2v3.6zm2.4 0v-3.6h1v3.6zm5.7 6.8q-.9 0-1.4-.5-.6-.6-.6-1.5V466h1.3v7.2q0 .6.2.9.3.2.7.2h.3l.4-.1.2-.1.2 1-.2.2-.5.1zm-3.3-6.4V468h4.5v1.1zm6.1 6.2V465h1.3v4q.4-.6 1-1t1.4-.4q1.3 0 2 .8.7.7.7 2v4.8h-1.3v-4.6q0-.9-.4-1.4t-1.3-.4a2 2 0 0 0-1.5.6 2 2 0 0 0-.6 1.6v4.2zm10.6.2q-1.2 0-2-.7-.7-.6-.7-1.8 0-1.1.8-1.8t2.2-.7l1.2.2q.6.1 1 .4v-.5q0-.8-.6-1.3t-1.4-.4h-.8l-.5.3-.5.4-.3.2-.8-.7.3-.3.6-.5q.4-.3.9-.4t1.2-.2q1.4 0 2.2.8t1 2.1v4.7h-1.3v-1.6l.3.6h-.4q-.3.5-1 .8t-1.4.4m.2-1q1 0 1.6-.7t.7-1.6l-.9-.5-1-.2q-1 0-1.5.4t-.5 1.1q0 .6.4 1t1.2.4m7.9 1.1q-1 0-1.5-.5t-.5-1.5V466h1.3v7.2q0 .6.2.9.2.2.7.2h.3l.4-.1.2-.1.2 1-.2.2-.5.1zm-3.3-6.4V468h4.4v1.1zm12.9 6.4q-1.7 0-2.8-1.1t-1-2.8 1-2.8q1.1-1 2.8-1t2.7 1 1.1 2.8-1 2.8q-1.1 1.1-2.8 1.1m0-1.2q1 0 1.8-.7.7-.8.7-2t-.7-2q-.7-.7-1.8-.7t-1.8.8q-.7.7-.7 2 0 1.1.7 1.9t1.8.7m5.4 1V468h1.2v1.3l-.2-.3h.2q.4-.5 1-.9a3 3 0 0 1 1.5-.4q1.3 0 2 .8t.7 2v4.8h-1.3v-4.6q0-.9-.4-1.3t-1.4-.5-1.4.6-.6 1.6v4.2zm11.6.2q-1.6 0-2.7-1-1-1.2-1-2.9t1-2.7 2.6-1.2 2.5 1 1 2.4v.8h-6.4v-1h5q0-.9-.5-1.4-.6-.6-1.6-.6t-1.7.7-.6 2 .7 2 1.8.8q.5 0 .8-.2l.7-.3.7-.7 1 .6q-.5.7-1 1l-1 .5q-.5.2-1.3.2m5-6.8v-3.6h1.1v3.6zm2.3 0v-3.6h1.1v3.6zm6.5 6.6V468h1.2v1.2-.2q.4-.5 1-.9l1.4-.4q.9 0 1.5.4t.8 1.1q.4-.7 1-1a3 3 0 0 1 1.6-.5q1.2 0 1.9.8t.6 2v4.8H469v-4.6q0-1-.4-1.4t-1.2-.4-1.4.6-.5 1.6v4.2H464v-4.6q0-1-.4-1.4t-1.3-.4-1.3.6a2 2 0 0 0-.6 1.6v4.2zm16.2.2q-1.6 0-2.7-1-1-1.2-1-2.9t1-2.7 2.6-1.2 2.6 1 1 2.4v.8h-6.5v-1h5.1q0-.9-.6-1.4-.6-.6-1.6-.6t-1.6.7-.7 2 .7 2 1.8.8q.5 0 .8-.2l.7-.3.7-.7 1 .6q-.5.7-1 1l-1 .5q-.5.2-1.3.2m7.3 0q-1.2 0-2-.7-.7-.6-.7-1.8t.8-1.8 2.2-.7l1.2.2q.6.1 1 .4v-.5q0-.8-.6-1.3t-1.4-.4h-.8q-.3 0-.6.3l-.4.4-.3.2-.8-.7.2-.3.7-.5q.4-.3.9-.4t1.1-.2q1.5 0 2.3.8.9.8.9 2.1v4.7h-1.2v-1.6l.3.6h-.4q-.3.5-1 .8t-1.4.4m.2-1q1 0 1.6-.7t.6-1.6l-.8-.5-1.1-.2q-.9 0-1.4.4t-.5 1.1q0 .6.4 1t1.2.4m5.4.9V468h1.2v1.3l-.1-.3h.2q.3-.5 1-.9l1.4-.4q1.3 0 2 .8.7.7.7 2v4.8h-1.3v-4.6q0-.9-.4-1.3t-1.3-.5-1.5.6-.6 1.6v4.2zm14.4.2q-.9 0-1.4-.5-.6-.6-.6-1.5V466h1.3v7.2q0 .6.2.9.3.2.7.2h.3l.4-.1.2-.1.2 1-.2.2-.5.1zm-3.3-6.4V468h4.5v1.1zm6.1 6.2V465h1.3v4q.4-.6 1-1t1.4-.4q1.3 0 2 .8t.7 2v4.8h-1.3v-4.6q0-.9-.4-1.4t-1.3-.4q-1 0-1.5.6a2 2 0 0 0-.6 1.6v4.2zm8.4 0V468h1.2v1.3l-.2-.2h.2q.2-.6.8-1a2 2 0 0 1 1.3-.4h.4l.4.2h.2l-.2 1.3h-.2l-.4-.2h-.3q-.8 0-1.4.6t-.6 1.7v4zm8.5.2q-1.7 0-2.7-1-1-1.2-1-2.9t1-2.7 2.6-1.2 2.5 1 1 2.4v.8h-6.4v-1h5q0-.9-.6-1.4-.5-.6-1.5-.6t-1.7.7-.7 2 .7 2 1.8.8q.5 0 .9-.2l.6-.3.7-.7 1 .6q-.4.7-.9 1l-1 .5q-.5.2-1.3.2m8.2 0q-1.6 0-2.6-1-1-1.2-1-2.9t1-2.7 2.6-1.2 2.5 1 1 2.4v.8h-6.4v-1h5q0-.9-.6-1.4-.6-.6-1.5-.6t-1.7.7-.7 2 .7 2 1.8.8q.5 0 .8-.2l.7-.3.7-.7 1 .6q-.5.7-1 1l-1 .5q-.5.2-1.3.2m8.5-.2V468h1.2v1.2l-.1-.2h.1q.4-.5 1-.9l1.4-.4q.8 0 1.4.4t.8 1.1q.4-.7 1-1a3 3 0 0 1 1.6-.5q1.2 0 1.9.8t.6 2v4.8h-1.2v-4.6q0-1-.5-1.4t-1.2-.4-1.3.6-.6 1.6v4.2h-1.3v-4.6q0-1-.4-1.4t-1.2-.4-1.4.6a2 2 0 0 0-.6 1.6v4.2zm16.2.2q-1.7 0-2.7-1-1-1.2-1-2.9t1-2.7 2.6-1.2 2.5 1 1 2.4v.8h-6.4v-1h5q0-.9-.6-1.4-.5-.6-1.5-.6t-1.7.7-.7 2 .7 2 1.8.8q.5 0 .9-.2l.6-.3.7-.7 1 .6q-.4.7-.9 1l-1 .5q-.5.2-1.3.2m7.4 0q-.7 0-1.2-.2l-1-.5-.6-.8-.2-.4 1-.5.2.3.4.5q.3.3.7.4t.8.1q.7 0 1.1-.3a1 1 0 0 0 .4-.8l-.3-.7q-.4-.3-1.4-.5-1.5-.3-2-.9-.6-.5-.6-1.4t.7-1.5 2-.6q.6 0 1 .2.5.1.9.4l.6.6.2.3-1 .6-.2-.3-.4-.3-.5-.3h-.7q-.6 0-1 .2t-.4.7.3.6 1.5.6 2 .9.6 1.3q0 1-.8 1.7t-2 .6m6.8 0q-.8 0-1.3-.2l-1-.5-.6-.8-.2-.4 1-.5.2.3.5.5q.2.3.6.4l.8.1q.7 0 1.1-.3a1 1 0 0 0 .5-.8l-.4-.7q-.4-.3-1.4-.5-1.4-.3-2-.9-.6-.5-.6-1.4t.8-1.5 1.9-.6q.6 0 1 .2l1 .4.5.6.2.3-1 .6-.2-.3-.4-.3-.5-.3h-.6q-.7 0-1 .2-.5.3-.5.7t.3.6 1.6.6 2 .9q.5.5.5 1.3 0 1-.8 1.7t-2 .6m6.6 0q-1.2 0-2-.7t-.8-1.8.9-1.8 2.2-.7l1.2.2 1 .4v-.5q0-.8-.6-1.3t-1.5-.4h-.7l-.6.3-.5.4-.2.2-.9-.7.3-.3.7-.5.8-.4q.5-.2 1.2-.2 1.4 0 2.3.8t.9 2.1v4.7h-1.3v-1.6l.4.6h-.4q-.3.5-1 .8t-1.4.4m.2-1q.9 0 1.5-.7t.7-1.6l-.9-.5-1-.2q-1 0-1.4.4-.6.4-.6 1.1 0 .6.5 1t1.2.4m8.6 4.1-1.3-.1-1-.5-.8-.8-.2-.3 1-.7.2.3.5.5q.3.3.7.4t.8.1q1.2 0 1.8-.6t.6-1.8v-1q-.4.6-1 1-.7.3-1.5.3-1.5 0-2.5-1t-1-2.8 1-2.7 2.5-1q.8 0 1.5.3.6.4 1 1h.3l-.3.3V468h1.2v7q0 1.7-1 2.6t-2.5 1m0-4.4q1 0 1.7-.8t.6-2q0-1-.6-1.8-.7-.7-1.7-.7t-1.7.7-.7 2 .7 1.9 1.7.7m8.8 1.3q-1.6 0-2.7-1-1-1.2-1-2.9t1-2.7 2.6-1.2 2.6 1 1 2.4v.8h-6.5v-1h5.1q0-.9-.6-1.4-.6-.6-1.6-.6t-1.6.7-.7 2 .7 2 1.8.8q.5 0 .8-.2l.7-.3.7-.7 1 .6q-.5.7-1 1l-1 .5q-.5.2-1.3.2m7.5 0q-.7 0-1.3-.2l-1-.5-.6-.8-.2-.4 1-.5.3.3.4.5.6.4.9.1q.7 0 1-.3a1 1 0 0 0 .5-.8l-.4-.7q-.3-.3-1.3-.5-1.5-.3-2-.9-.7-.5-.7-1.4t.8-1.5 2-.6l1 .2q.5.1.9.4l.6.6.2.3-1 .6-.2-.3-.4-.3-.5-.3h-.7q-.6 0-1 .2t-.4.7l.2.6q.3.3 1.6.6t2 .9.6 1.3q0 1-.8 1.7t-2.1.6m7.8-.2V468h1.3v7.3zm.7-8.8-.6-.3-.3-.6q0-.3.3-.6l.6-.2.6.2.2.6q0 .4-.2.6zm2.7 8.8V468h1.2v1.3l-.2-.3h.3q.3-.5 1-.9l1.4-.4q1.3 0 2 .8t.7 2v4.8h-1.3v-4.6q0-.9-.4-1.3t-1.3-.5-1.5.6-.6 1.6v4.2zm9.2 0-.7-.2-.3-.7q0-.4.3-.7l.7-.3q.4 0 .7.3l.3.7-.3.7zm-362.3 20.1q-2.3 0-3.8-1.5-1.4-1.5-1.4-3.8t1.5-3.7 3.7-1.5q.8 0 1.4.2l1.3.5.8.7.3.3-.9.9-.3-.3-.6-.5-.9-.4-1-.2q-1.7 0-2.9 1.1-1 1.1-1 3t1 2.9q1.1 1 2.8 1h1.1l1-.6.8-.5.2-.3 1 .8-.4.4q-.3.4-1 .7l-1.2.6zm8 0q-1.2 0-2-.7-.6-.8-.6-2.1V488h1.3v4.5q0 1 .4 1.4.4.5 1.3.5t1.5-.7.6-1.5V488h1.2v7.3H270v-1.7l.6.6h-.6q-.4.6-1 1-.7.3-1.4.3m8.1 0q-.7 0-1.2-.2l-1-.5-.6-.8-.2-.4 1-.5.2.3.5.5q.2.3.6.4l.8.1q.7 0 1.1-.3a1 1 0 0 0 .4-.8l-.3-.7q-.4-.3-1.4-.5-1.5-.3-2-.9-.6-.5-.6-1.4t.7-1.5 2-.6q.6 0 1 .2l1 .4.5.6.2.3-1 .6-.2-.3-.4-.3-.5-.3h-.7q-.6 0-1 .2t-.4.7.3.6 1.6.6 2 .9q.5.5.5 1.3 0 1-.8 1.7t-2 .6m6.9 0q-.9 0-1.4-.5-.6-.6-.6-1.5V486h1.3v7.2q0 .6.2.9.2.2.7.2h.3l.4-.1.2-.1.2 1-.2.2-.5.1zm-3.3-6.4V488h4.5v1.1zm9.5 6.4q-1.7 0-2.8-1.1t-1-2.8 1-2.8q1.1-1 2.8-1t2.7 1 1.1 2.8-1 2.8q-1.1 1.1-2.8 1.1m0-1.2q1 0 1.8-.7.7-.8.7-2t-.7-2q-.7-.7-1.8-.7t-1.8.8q-.7.7-.7 2 0 1.1.7 1.9t1.8.7m5.4 1V488h1.2v1.2l-.1-.2h.1q.4-.5 1-.9l1.4-.4q.8 0 1.4.4t.9 1.1q.3-.7 1-1a3 3 0 0 1 1.5-.5q1.3 0 2 .8t.6 2v4.8H304v-4.6q0-1-.4-1.4t-1.3-.4-1.3.6-.6 1.6v4.2H299v-4.6q0-1-.4-1.4t-1.2-.4-1.4.6a2 2 0 0 0-.5 1.6v4.2zm16.2.2q-1.7 0-2.7-1-1-1.2-1-2.9t1-2.7 2.6-1.2 2.5 1 1 2.4v.8h-6.4v-1h5q0-.9-.5-1.4-.6-.6-1.6-.6t-1.7.7q-.6.8-.6 2 0 1.3.7 2 .7.8 1.7.8.5 0 .9-.2l.7-.3.6-.7 1 .6q-.4.7-.9 1l-1 .5q-.5.2-1.3.2m5-.2V488h1.2v1.3l-.2-.2h.2q.2-.6.8-1t1.3-.4h.4l.4.2h.2l-.1 1.3h-.2l-.5-.2h-.3q-.8 0-1.4.6t-.5 1.7v4zm7.8.2q-.7 0-1.2-.2l-1-.5-.6-.8-.2-.4 1-.5.2.3.4.5q.3.3.7.4t.8.1q.7 0 1.1-.3a1 1 0 0 0 .4-.8l-.3-.7q-.4-.3-1.4-.5-1.5-.3-2-.9-.6-.5-.6-1.4t.7-1.5 2-.6q.6 0 1 .2.5.1.9.4l.6.6.2.3-1 .6-.2-.3-.4-.3-.5-.3h-.7q-.6 0-1 .2t-.4.7.3.6 1.5.6 2 .9.6 1.3q0 1-.8 1.7t-2 .6m10.8 0q-1.5 0-2.5-1-1-1.2-1-2.9t1-2.8q1-1 2.4-1 .9 0 1.5.3.7.4 1 1h.1v-4h1.3v10.2h-1.3v-1.4l.2.3h-.2l-1 1zm.2-1.1a2 2 0 0 0 1.7-.8q.7-.7.7-2t-.8-2-1.6-.7a2 2 0 0 0-1.8.7q-.7.8-.7 2 0 1.3.7 2 .7.8 1.8.8m9 1.1q-1.7 0-2.8-1.1t-1-2.8 1-2.8q1.1-1 2.8-1t2.7 1 1.1 2.8-1 2.8q-1.1 1.1-2.8 1.1m0-1.2q1 0 1.8-.7.7-.8.7-2t-.7-2q-.7-.7-1.8-.7t-1.8.8q-.8.7-.8 2 0 1.1.8 1.9t1.8.7m5.4 1V488h1.2v1.3l-.2-.3h.2q.4-.5 1-.9a3 3 0 0 1 1.5-.4q1.3 0 2 .8t.7 2v4.8h-1.3v-4.6q0-.9-.4-1.3t-1.4-.5-1.5.6-.5 1.6v4.2zm8.1-6.6v-3.6h1.2v3.6zm5.8 6.8q-.9 0-1.4-.5-.6-.6-.6-1.5V486h1.3v7.2q0 .6.2.9.3.2.7.2h.3l.4-.1.3-.1.1 1-.2.2-.5.1zm-3.2-6.4V488h4.4v1.1zm9.4 6.2V485h1.3v4q.4-.6 1-1t1.5-.4q1.3 0 2 .8t.6 2v4.8H374v-4.6q0-.9-.5-1.4t-1.3-.4-1.5.6a2 2 0 0 0-.6 1.6v4.2zm10.6.2q-1.2 0-2-.7-.7-.6-.7-1.8t.9-1.8 2.1-.7q.7 0 1.2.2.6.1 1 .4v-.5q0-.8-.6-1.3t-1.4-.4h-.7l-.6.3-.5.4-.2.2-.9-.7.3-.3.7-.5.8-.4q.5-.2 1.2-.2 1.4 0 2.3.8t.8 2.1v4.7H382v-1.6l.4.6h-.4q-.4.5-1 .8t-1.5.4m.2-1q1 0 1.6-.7t.7-1.6l-.9-.5-1-.2q-1 0-1.5.4t-.5 1.1q0 .6.5 1t1.1.4m7.2.9-3-7.3h1.4l2 5.2.3.6.2-.6 2-5.2h1.4l-3 7.3zm8.4.2q-1.7 0-2.7-1-1-1.2-1-2.9t1-2.7 2.6-1.2 2.5 1 1 2.4v.8h-6.4v-1h5q0-.9-.6-1.4-.5-.6-1.5-.6t-1.7.7-.7 2 .7 2 1.8.8q.5 0 .9-.2l.6-.3.7-.7 1 .6q-.4.7-.9 1l-1 .5q-.5.2-1.3.2m11 0q-1 0-1.5-.5t-.5-1.5V486h1.3v7.2q0 .6.2.9.2.2.7.2h.3l.4-.1.2-.1.2 1-.2.2-.5.1zm-3.3-6.4V488h4.5v1.1zm9.5 6.4q-1.7 0-2.8-1.1t-1-2.8 1-2.8q1.1-1 2.8-1t2.7 1 1.1 2.8-1 2.8q-1.1 1.1-2.8 1.1m0-1.2q1 0 1.8-.7.7-.8.7-2t-.7-2q-.7-.7-1.8-.7t-1.8.8q-.8.7-.8 2 0 1.1.8 1.9t1.8.7m8.8 1V488h1.2v1.3l-.2-.2h.2q.3-.6.8-1a2 2 0 0 1 1.3-.4h.4l.4.2h.2l-.1 1.3h-.2l-.4-.2h-.4q-.8 0-1.4.6t-.5 1.7v4zm8.5.2q-1.6 0-2.7-1-1-1.2-1-2.9t1-2.7 2.6-1.2 2.5 1 1 2.4v.8h-6.4v-1h5q0-.9-.5-1.4-.6-.6-1.6-.6t-1.7.7-.6 2 .7 2 1.8.8l.8-.2.7-.3.7-.7 1 .6q-.5.7-1 1l-1 .5q-.5.2-1.3.2m5 2.8V488h1.2v1.5l-.2-.4h.3l1-1a3 3 0 0 1 1.5-.4q1.5 0 2.5 1.1 1 1 1 2.8t-1 2.8q-1 1.1-2.4 1.1-1 0-1.6-.4-.7-.3-1-.9v4.1zm3.6-4q1 0 1.8-.7t.6-2-.7-2a2 2 0 0 0-1.7-.7q-1 0-1.7.7-.7.8-.7 2t.7 2 1.7.8m8.6 1.1q-1.7 0-2.7-1-1-1.2-1-2.9t1-2.7 2.6-1.2 2.5 1 1 2.4v.8H444v-1h5q0-.9-.6-1.4-.5-.6-1.5-.6t-1.7.7-.7 2 .7 2 1.8.8q.5 0 .9-.2l.6-.3.7-.7 1 .6q-.4.7-.9 1l-1 .5q-.5.2-1.3.2m7.2 0q-1.2 0-2-.7-.7-.6-.7-1.8 0-1.1.8-1.8t2.2-.7q.7 0 1.2.2.6.1 1 .4v-.5q0-.8-.6-1.3t-1.4-.4h-.8l-.5.3-.5.4-.2.2-.9-.7.3-.3.7-.5q.3-.3.8-.4t1.2-.2q1.4 0 2.3.8t.8 2.1v4.7h-1.2v-1.6l.3.6h-.4q-.3.5-1 .8t-1.4.4m.2-1q1 0 1.6-.7t.7-1.6l-.9-.5-1-.2q-1 0-1.5.4t-.5 1.1q0 .6.4 1t1.2.4m7.9 1.1q-1 0-1.5-.5t-.5-1.5V486h1.3v7.2q0 .6.2.9.2.2.7.2h.3l.4-.1.2-.1.2 1-.2.2-.5.1zm-3.3-6.4V488h4.5v1.1zm12.1 6.4q-.9 0-1.4-.5-.6-.6-.6-1.5V486h1.3v7.2q0 .6.2.9.3.2.8.2h.2l.4-.1.3-.1.1 1-.2.2-.5.1zm-3.2-6.4V488h4.4v1.1zm6 6.2V485h1.3v4q.4-.6 1-1t1.5-.4q1.2 0 2 .8t.6 2v4.8H479v-4.6q0-.9-.5-1.4t-1.3-.4-1.5.6a2 2 0 0 0-.6 1.6v4.2zm11.6.2q-1.6 0-2.6-1-1-1.2-1-2.9t1-2.7 2.6-1.2 2.5 1 1 2.4v.8h-6.4v-1h5q0-.9-.6-1.4-.5-.6-1.5-.6t-1.7.7-.7 2 .7 2 1.8.8q.5 0 .9-.2l.6-.3.7-.7 1 .6q-.4.7-.9 1l-1 .5q-.6.2-1.4.2m5-.2V488h1.3v1.2l-.1-.2h.1q.4-.5 1-.9l1.4-.4q.8 0 1.4.4t.8 1.1q.4-.7 1-1a3 3 0 0 1 1.6-.5q1.2 0 1.9.8t.6 2v4.8h-1.2v-4.6q0-1-.5-1.4t-1.2-.4-1.4.6-.5 1.6v4.2h-1.3v-4.6q0-1-.4-1.4t-1.2-.4-1.4.6a2 2 0 0 0-.6 1.6v4.2zm15.5.2q-.8 0-1.3-.2l-1-.5-.6-.8-.2-.4 1-.5.2.3.5.5q.2.3.6.4t.8.1q.7 0 1.1-.3a1 1 0 0 0 .5-.8l-.4-.7q-.4-.3-1.4-.5-1.4-.3-2-.9-.6-.5-.6-1.4t.8-1.5 1.9-.6q.6 0 1 .2l1 .4q.4.3.5.6l.2.3-1 .6-.2-.3-.4-.3-.5-.3h-.6q-.7 0-1 .2-.5.3-.5.7t.3.6 1.6.6 2 .9q.5.5.5 1.3 0 1-.8 1.7t-2 .6m7.6 0q-1.7 0-2.7-1-1-1.2-1-2.9t1-2.7 2.6-1.2 2.5 1 1 2.4v.8h-6.4v-1h5q0-.9-.5-1.4-.6-.6-1.6-.6t-1.7.7q-.6.8-.6 2 0 1.3.7 2 .7.8 1.7.8.5 0 .9-.2l.6-.3.7-.7 1 .6q-.4.7-.9 1l-1 .5q-.5.2-1.3.2m5-.2V485h1.3v10.2zm5.3 0L521 488h1.4l2 5.2.2.6.3-.6 2-5.2h1.3l-3 7.3zm8.4.2q-1.6 0-2.7-1-1-1.2-1-2.9t1-2.7 2.6-1.2 2.5 1 1 2.4v.8h-6.4v-1h5q0-.9-.5-1.4-.6-.6-1.6-.6t-1.7.7-.6 2 .7 2 1.8.8l.8-.2.7-.3.7-.7 1 .6q-.5.7-1 1l-1 .5q-.5.2-1.3.2m7.5 0q-.8 0-1.3-.2l-1-.5-.6-.8-.2-.4 1-.5.2.3.5.5q.2.3.6.4l.8.1q.7 0 1.1-.3a1 1 0 0 0 .5-.8l-.4-.7q-.4-.3-1.4-.5-1.4-.3-2-.9-.6-.5-.6-1.4t.8-1.5 1.9-.6q.6 0 1 .2l1 .4.5.6.2.3-1 .6-.2-.3-.3-.3-.6-.3h-.6q-.7 0-1 .2-.5.3-.5.7t.3.6 1.6.6 2 .9q.5.5.5 1.3 0 1-.8 1.7t-2 .6m5.2-.1-.7-.3-.3-.7q0-.4.3-.7l.7-.3q.4 0 .7.3l.3.7-.3.7z"/><g filter="url(#w)"><mask id="y" width="87" height="87" x="157" y="421" maskUnits="userSpaceOnUse" style="mask-type:alpha"><rect width="85.949" height="85.949" x="157.818" y="421.595" fill="url(#x)" rx="4"/></mask><g mask="url(#y)"><path fill="url(#z)" d="M181.1 468.2q.2 1.6 1.8 1.7h35.8a1.8 1.8 0 1 0 0-3.5h-35.8q-1.6.1-1.8 1.8m0-10.8q.2 1.6 1.8 1.8h35.8a1.8 1.8 0 0 0 0-3.6h-35.8a2 2 0 0 0-1.8 1.8m0-10.7q.2 1.7 1.8 1.8h35.8a1.8 1.8 0 0 0 0-3.6h-35.8q-1.6.1-1.8 1.8m52 37.1a4 4 0 0 1-6.9 2.9l-3-3a4 4 0 0 0-2.9-1.2h-46q-2.4 0-4-1.7t-1.7-4.1V438q0-2.4 1.6-4.1t4.1-1.7h53q2.4 0 4 1.7t1.7 4.1zm-58.8-5h48a3 3 0 0 1 2.1 1 3 3 0 0 0 5-2.1V438q0-.8-.6-1.5t-1.6-.7h-52.9q-.8 0-1.5.7t-.7 1.5v38.6q0 .8.7 1.5t1.5.7"/></g></g></g><g filter="url(#A)"><mask id="B" width="122" height="122" x="30" y="117" maskUnits="userSpaceOnUse" style="mask-type:alpha"><rect width="122" height="122" fill="#1c1b1f" rx="4" transform="matrix(1 0 0 -1 30 239)"/></mask><g mask="url(#B)"><path fill="#1c1b1f" fill-opacity=".02" d="M63 142.4a2.5 2.5 0 0 0-2.5 2.6v46.8a4 4 0 0 0 4 4h42.7a4 4 0 0 1 2.8 6.8l-10.6 10.6a2.6 2.6 0 1 0 3.6 3.7l20.8-20.8a4 4 0 0 0 0-5.7L103 169.6a2.6 2.6 0 1 0-3.7 3.6L110 184a4 4 0 0 1-2.8 6.8H69.6a4 4 0 0 1-4-4V145a2.5 2.5 0 0 0-2.6-2.6"/></g></g><g filter="url(#C)"><mask id="D" width="122" height="122" x="30" y="247" maskUnits="userSpaceOnUse" style="mask-type:alpha"><rect width="122" height="122" fill="#d9d9d9" rx="4" transform="matrix(1 0 0 -1 30 369)"/></mask><g mask="url(#D)"><path fill="#1c1b1f" fill-opacity=".02" d="M63 272.4a2.5 2.5 0 0 0-2.5 2.6v46.8a4 4 0 0 0 4 4h42.7a4 4 0 0 1 2.8 6.8l-10.6 10.6a2.6 2.6 0 1 0 3.6 3.7l20.8-20.8a4 4 0 0 0 0-5.7L103 299.6a2.6 2.6 0 1 0-3.7 3.6L110 314a4 4 0 0 1-2.8 6.8H69.6a4 4 0 0 1-4-4V275a2.5 2.5 0 0 0-2.6-2.6"/></g></g><g filter="url(#E)"><mask id="F" width="122" height="122" x="30" y="388" maskUnits="userSpaceOnUse" style="mask-type:alpha"><rect width="122" height="122" fill="#d9d9d9" rx="4" transform="matrix(1 0 0 -1 30 510)"/></mask><g mask="url(#F)"><path fill="#1c1b1f" fill-opacity=".02" d="M63 413.4a2.5 2.5 0 0 0-2.5 2.6v46.8a4 4 0 0 0 4 4h42.7a4 4 0 0 1 2.8 6.8l-10.6 10.6a2.6 2.6 0 1 0 3.6 3.7l20.8-20.8a4 4 0 0 0 0-5.7L103 440.6a2.6 2.6 0 1 0-3.7 3.6L110 455a4 4 0 0 1-2.8 6.8H69.6a4 4 0 0 1-4-4V416a2.5 2.5 0 0 0-2.6-2.6"/></g></g><g filter="url(#G)"><mask id="H" width="122" height="122" x="30" y="528" maskUnits="userSpaceOnUse" style="mask-type:alpha"><rect width="122" height="122" fill="#d9d9d9" rx="4" transform="matrix(1 0 0 -1 30 650)"/></mask><g mask="url(#H)"><path fill="#1c1b1f" fill-opacity=".02" d="M63 553.4a2.5 2.5 0 0 0-2.5 2.6v46.8a4 4 0 0 0 4 4h42.7a4 4 0 0 1 2.8 6.8l-10.6 10.6a2.6 2.6 0 1 0 3.6 3.7l20.8-20.8a4 4 0 0 0 0-5.7L103 580.6a2.6 2.6 0 1 0-3.7 3.6L110 595a4 4 0 0 1-2.8 6.8H69.6a4 4 0 0 1-4-4V556a2.5 2.5 0 0 0-2.6-2.6"/></g></g><defs><filter id="a" width="663" height="697" x="0" y="0" color-interpolation-filters="sRGB" filterUnits="userSpaceOnUse"><feFlood flood-opacity="0" result="BackgroundImageFix"/><feBlend in="SourceGraphic" in2="BackgroundImageFix" result="shape"/><feColorMatrix in="SourceAlpha" result="hardAlpha" values="0 0 0 0 0 0 0 0 0 0 0 0 0 0 0 0 0 0 127 0"/><feOffset/><feGaussianBlur stdDeviation="4"/><feComposite in2="hardAlpha" k2="-1" k3="1" operator="arithmetic"/><feColorMatrix values="0 0 0 0 0 0 0 0 0 0 0 0 0 0 0 0 0 0 0.6 0"/><feBlend in2="shape" result="effect1_innerShadow_0_1"/><feTurbulence baseFrequency="2 2" numOctaves="3" result="noise" seed="8809" stitchTiles="stitch" type="fractalNoise"/><feComponentTransfer in="noise" result="coloredNoise1"><feFuncR intercept="-.5" slope="2" type="linear"/><feFuncG intercept="-.5" slope="2" type="linear"/><feFuncB intercept="-.5" slope="2" type="linear"/><feFuncA tableValues="1 1 1 1 1 1 1 1 1 1 1 1 1 1 1 1 1 1 1 1 1 1 1 1 1 1 1 1 1 1 1 1 1 1 1 1 1 1 1 1 1 1 1 1 1 1 1 1 1 1 1 0 0 0 0 0 0 0 0 0 0 0 0 0 0 0 0 0 0 0 0 0 0 0 0 0 0 0 0 0 0 0 0 0 0 0 0 0 0 0 0 0 0 0 0 0 0 0 0 0" type="discrete"/></feComponentTransfer><feComposite in="coloredNoise1" in2="effect1_innerShadow_0_1" operator="in" result="noise1Clipped"/><feComponentTransfer in="noise1Clipped" result="color1"><feFuncA tableValues="0 0.15" type="table"/></feComponentTransfer><feMerge result="effect2_noise_0_1"><feMergeNode in="effect1_innerShadow_0_1"/><feMergeNode in="color1"/></feMerge></filter><filter id="c" width="555.926" height="110.065" x="142" y="139" color-interpolation-filters="sRGB" filterUnits="userSpaceOnUse"><feFlood flood-opacity="0" result="BackgroundImageFix"/><feColorMatrix in="SourceAlpha" result="hardAlpha" values="0 0 0 0 0 0 0 0 0 0 0 0 0 0 0 0 0 0 127 0"/><feOffset dy="4"/><feGaussianBlur stdDeviation="2"/><feComposite in2="hardAlpha" operator="out"/><feColorMatrix values="0 0 0 0 0 0 0 0 0 0 0 0 0 0 0 0 0 0 0.25 0"/><feBlend in2="BackgroundImageFix" result="effect1_dropShadow_0_1"/><feBlend in="SourceGraphic" in2="effect1_dropShadow_0_1" result="shape"/></filter><filter id="e" width="53.485" height="78.624" x="172.976" y="155.757" color-interpolation-filters="sRGB" filterUnits="userSpaceOnUse"><feFlood flood-opacity="0" result="BackgroundImageFix"/><feColorMatrix in="SourceAlpha" result="hardAlpha" values="0 0 0 0 0 0 0 0 0 0 0 0 0 0 0 0 0 0 127 0"/><feOffset dy="4"/><feGaussianBlur stdDeviation="2"/><feComposite in2="hardAlpha" operator="out"/><feColorMatrix values="0 0 0 0 0 0 0 0 0 0 0 0 0 0 0 0 0 0 0.25 0"/><feBlend in2="BackgroundImageFix" result="effect1_dropShadow_0_1"/><feBlend in="SourceGraphic" in2="effect1_dropShadow_0_1" result="shape"/></filter><filter id="i" width="555.926" height="110.065" x="142" y="276" color-interpolation-filters="sRGB" filterUnits="userSpaceOnUse"><feFlood flood-opacity="0" result="BackgroundImageFix"/><feColorMatrix in="SourceAlpha" result="hardAlpha" values="0 0 0 0 0 0 0 0 0 0 0 0 0 0 0 0 0 0 127 0"/><feOffset dy="4"/><feGaussianBlur stdDeviation="2"/><feComposite in2="hardAlpha" operator="out"/><feColorMatrix values="0 0 0 0 0 0 0 0 0 0 0 0 0 0 0 0 0 0 0.25 0"/><feBlend in2="BackgroundImageFix" result="effect1_dropShadow_0_1"/><feBlend in="SourceGraphic" in2="effect1_dropShadow_0_1" result="shape"/></filter><filter id="k" width="68.881" height="74.345" x="166.352" y="294.397" color-interpolation-filters="sRGB" filterUnits="userSpaceOnUse"><feFlood flood-opacity="0" result="BackgroundImageFix"/><feColorMatrix in="SourceAlpha" result="hardAlpha" values="0 0 0 0 0 0 0 0 0 0 0 0 0 0 0 0 0 0 127 0"/><feOffset dy="4"/><feGaussianBlur stdDeviation="2"/><feComposite in2="hardAlpha" operator="out"/><feColorMatrix values="0 0 0 0 0 0 0 0 0 0 0 0 0 0 0 0 0 0 0.25 0"/><feBlend in2="BackgroundImageFix" result="effect1_dropShadow_0_1"/><feBlend in="SourceGraphic" in2="effect1_dropShadow_0_1" result="shape"/></filter><filter id="o" width="555.926" height="110.065" x="142" y="550" color-interpolation-filters="sRGB" filterUnits="userSpaceOnUse"><feFlood flood-opacity="0" result="BackgroundImageFix"/><feColorMatrix in="SourceAlpha" result="hardAlpha" values="0 0 0 0 0 0 0 0 0 0 0 0 0 0 0 0 0 0 127 0"/><feOffset dy="4"/><feGaussianBlur stdDeviation="2"/><feComposite in2="hardAlpha" operator="out"/><feColorMatrix values="0 0 0 0 0 0 0 0 0 0 0 0 0 0 0 0 0 0 0.25 0"/><feBlend in2="BackgroundImageFix" result="effect1_dropShadow_0_1"/><feBlend in="SourceGraphic" in2="effect1_dropShadow_0_1" result="shape"/></filter><filter id="q" width="78.247" height="58.137" x="161.669" y="576.501" color-interpolation-filters="sRGB" filterUnits="userSpaceOnUse"><feFlood flood-opacity="0" result="BackgroundImageFix"/><feColorMatrix in="SourceAlpha" result="hardAlpha" values="0 0 0 0 0 0 0 0 0 0 0 0 0 0 0 0 0 0 127 0"/><feOffset dy="4"/><feGaussianBlur stdDeviation="2"/><feComposite in2="hardAlpha" operator="out"/><feColorMatrix values="0 0 0 0 0 0 0 0 0 0 0 0 0 0 0 0 0 0 0.25 0"/><feBlend in2="BackgroundImageFix" result="effect1_dropShadow_0_1"/><feBlend in="SourceGraphic" in2="effect1_dropShadow_0_1" result="shape"/></filter><filter id="u" width="555.926" height="110.065" x="142" y="413" color-interpolation-filters="sRGB" filterUnits="userSpaceOnUse"><feFlood flood-opacity="0" result="BackgroundImageFix"/><feColorMatrix in="SourceAlpha" result="hardAlpha" values="0 0 0 0 0 0 0 0 0 0 0 0 0 0 0 0 0 0 127 0"/><feOffset dy="4"/><feGaussianBlur stdDeviation="2"/><feComposite in2="hardAlpha" operator="out"/><feColorMatrix values="0 0 0 0 0 0 0 0 0 0 0 0 0 0 0 0 0 0 0.25 0"/><feBlend in2="BackgroundImageFix" result="effect1_dropShadow_0_1"/><feBlend in="SourceGraphic" in2="effect1_dropShadow_0_1" result="shape"/></filter><filter id="w" width="72.462" height="63.508" x="164.562" y="432.339" color-interpolation-filters="sRGB" filterUnits="userSpaceOnUse"><feFlood flood-opacity="0" result="BackgroundImageFix"/><feColorMatrix in="SourceAlpha" result="hardAlpha" values="0 0 0 0 0 0 0 0 0 0 0 0 0 0 0 0 0 0 127 0"/><feOffset dy="4"/><feGaussianBlur stdDeviation="2"/><feComposite in2="hardAlpha" operator="out"/><feColorMatrix values="0 0 0 0 0 0 0 0 0 0 0 0 0 0 0 0 0 0 0.25 0"/><feBlend in2="BackgroundImageFix" result="effect1_dropShadow_0_1"/><feBlend in="SourceGraphic" in2="effect1_dropShadow_0_1" result="shape"/></filter><filter id="A" width="72.426" height="83.188" x="59.5" y="142.417" color-interpolation-filters="sRGB" filterUnits="userSpaceOnUse"><feFlood flood-opacity="0" result="BackgroundImageFix"/><feColorMatrix in="SourceAlpha" result="hardAlpha" values="0 0 0 0 0 0 0 0 0 0 0 0 0 0 0 0 0 0 127 0"/><feOffset dx="3" dy="4"/><feGaussianBlur stdDeviation="2"/><feComposite in2="hardAlpha" operator="out"/><feColorMatrix values="0 0 0 0 0 0 0 0 0 0 0 0 0 0 0 0 0 0 0.25 0"/><feBlend in2="BackgroundImageFix" result="effect1_dropShadow_0_1"/><feBlend in="SourceGraphic" in2="effect1_dropShadow_0_1" result="shape"/></filter><filter id="C" width="72.426" height="83.188" x="59.5" y="272.417" color-interpolation-filters="sRGB" filterUnits="userSpaceOnUse"><feFlood flood-opacity="0" result="BackgroundImageFix"/><feColorMatrix in="SourceAlpha" result="hardAlpha" values="0 0 0 0 0 0 0 0 0 0 0 0 0 0 0 0 0 0 127 0"/><feOffset dx="3" dy="4"/><feGaussianBlur stdDeviation="2"/><feComposite in2="hardAlpha" operator="out"/><feColorMatrix values="0 0 0 0 0 0 0 0 0 0 0 0 0 0 0 0 0 0 0.25 0"/><feBlend in2="BackgroundImageFix" result="effect1_dropShadow_0_1"/><feBlend in="SourceGraphic" in2="effect1_dropShadow_0_1" result="shape"/></filter><filter id="E" width="72.426" height="83.188" x="59.5" y="413.417" color-interpolation-filters="sRGB" filterUnits="userSpaceOnUse"><feFlood flood-opacity="0" result="BackgroundImageFix"/><feColorMatrix in="SourceAlpha" result="hardAlpha" values="0 0 0 0 0 0 0 0 0 0 0 0 0 0 0 0 0 0 127 0"/><feOffset dx="3" dy="4"/><feGaussianBlur stdDeviation="2"/><feComposite in2="hardAlpha" operator="out"/><feColorMatrix values="0 0 0 0 0 0 0 0 0 0 0 0 0 0 0 0 0 0 0.25 0"/><feBlend in2="BackgroundImageFix" result="effect1_dropShadow_0_1"/><feBlend in="SourceGraphic" in2="effect1_dropShadow_0_1" result="shape"/></filter><filter id="G" width="72.426" height="83.188" x="59.5" y="553.417" color-interpolation-filters="sRGB" filterUnits="userSpaceOnUse"><feFlood flood-opacity="0" result="BackgroundImageFix"/><feColorMatrix in="SourceAlpha" result="hardAlpha" values="0 0 0 0 0 0 0 0 0 0 0 0 0 0 0 0 0 0 127 0"/><feOffset dx="3" dy="4"/><feGaussianBlur stdDeviation="2"/><feComposite in2="hardAlpha" operator="out"/><feColorMatrix values="0 0 0 0 0 0 0 0 0 0 0 0 0 0 0 0 0 0 0.25 0"/><feBlend in2="BackgroundImageFix" result="effect1_dropShadow_0_1"/><feBlend in="SourceGraphic" in2="effect1_dropShadow_0_1" result="shape"/></filter><linearGradient id="b" x1="30.694" x2="802.309" y1="32.583" y2="717.141" gradientUnits="userSpaceOnUse"><stop stop-color="#fff"/><stop offset="1" stop-color="#2b6eff"/></linearGradient><linearGradient id="d" x1="381.286" x2="736.9" y1="50.902" y2="281.353" gradientUnits="userSpaceOnUse"><stop offset=".63" stop-color="#fff"/><stop offset="1" stop-color="#ff007b"/></linearGradient><linearGradient id="f" x1="199.718" x2="199.718" y1="147.595" y2="233.544" gradientUnits="userSpaceOnUse"><stop stop-color="#ff0040"/><stop offset="1" stop-color="#ffadc2"/></linearGradient><linearGradient id="h" x1="199.718" x2="199.718" y1="154.826" y2="226.382" gradientUnits="userSpaceOnUse"><stop stop-color="#ff0040"/><stop offset="1" stop-color="#ffadc2"/></linearGradient><linearGradient id="j" x1="588.101" x2="782.561" y1="307.694" y2="439.841" gradientUnits="userSpaceOnUse"><stop stop-color="#fff"/><stop offset=".751" stop-color="#0035ff"/></linearGradient><linearGradient id="p" x1="535.994" x2="740.123" y1="520.992" y2="684.295" gradientUnits="userSpaceOnUse"><stop offset=".296" stop-color="#fff"/><stop offset="1" stop-color="#ffea00"/></linearGradient><linearGradient id="r" x1="165.876" x2="250.213" y1="603.718" y2="603.718" gradientUnits="userSpaceOnUse"><stop stop-color="#fff346"/><stop offset="1" stop-color="#f70"/></linearGradient><linearGradient id="t" x1="172.255" x2="241.185" y1="602.823" y2="602.823" gradientUnits="userSpaceOnUse"><stop stop-color="#fff346"/><stop offset="1" stop-color="#f70"/></linearGradient><linearGradient id="v" x1="553.721" x2="740.123" y1="397.422" y2="560.188" gradientUnits="userSpaceOnUse"><stop offset=".263" stop-color="#fff"/><stop offset="1" stop-color="#00bc26"/></linearGradient><linearGradient id="x" x1="200.793" x2="200.793" y1="421.595" y2="507.544" gradientUnits="userSpaceOnUse"><stop stop-color="#00d157"/><stop offset="1" stop-color="#003918"/></linearGradient><linearGradient id="z" x1="200.793" x2="200.793" y1="432.339" y2="493.495" gradientUnits="userSpaceOnUse"><stop stop-color="#00d157"/><stop offset="1" stop-color="#003918"/></linearGradient><radialGradient id="l" cx="0" cy="0" r="1" gradientTransform="rotate(90 -63.389 264.181)scale(42.9746)" gradientUnits="userSpaceOnUse"><stop stop-color="#002374"/><stop offset="1" stop-color="#348fff"/></radialGradient><radialGradient id="n" cx="0" cy="0" r="1" gradientTransform="matrix(0 33.7458 -30.4403 0 200.792 327.57)" gradientUnits="userSpaceOnUse"><stop stop-color="#002374"/><stop offset="1" stop-color="#348fff"/></radialGradient></defs></svg>